<?xml version="1.0" encoding="utf-8"?>
<!-- Generator: Adobe Illustrator 23.0.0, SVG Export Plug-In . SVG Version: 6.00 Build 0)  -->
<svg version="1.1" id="Layer_1" xmlns="http://www.w3.org/2000/svg" xmlns:xlink="http://www.w3.org/1999/xlink" x="0px" y="0px"
	 viewBox="0 0 1000 1000" style="enable-background:new 0 0 1000 1000;" xml:space="preserve">
<style type="text/css">
	.st0{clip-path:url(#SVGID_2_);fill:#2A2939;}
	.st1{opacity:0.15;}
	.st2{clip-path:url(#SVGID_4_);}
	.st3{fill:none;stroke:#77DFF7;stroke-width:0.5;stroke-miterlimit:10;}
	.st4{fill:url(#SVGID_5_);}
	.st5{enable-background:new    ;}
	.st6{clip-path:url(#SVGID_7_);enable-background:new    ;}
	.st7{fill:#12495F;}
	.st8{fill:url(#SVGID_8_);}
	.st9{fill:#1B6D8D;}
	.st10{fill:#134C62;}
	.st11{fill:url(#SVGID_9_);}
	.st12{fill:#D4FBFC;}
	.st13{fill:#C5EFEF;}
	.st14{fill:#DC3333;}
	.st15{fill:#B7D8D9;}
</style>
<g>
	<defs>
		<rect id="SVGID_1_" width="1000" height="1000"/>
	</defs>
	<clipPath id="SVGID_2_">
		<use xlink:href="#SVGID_1_"  style="overflow:visible;"/>
	</clipPath>
	<rect x="-80" y="-84" class="st0" width="1196" height="1196"/>
</g>
<g class="st1">
	<defs>
		<rect id="SVGID_3_" class="st1" width="1000" height="1000"/>
	</defs>
	<clipPath id="SVGID_4_">
		<use xlink:href="#SVGID_3_"  style="overflow:visible;"/>
	</clipPath>
	<g class="st2">
		<polygon class="st3" points="500,1360.19 1989.9,500 500,-360.19 -989.9,500 		"/>
		<line class="st3" x1="-960.69" y1="516.87" x2="529.22" y2="-343.33"/>
		<line class="st3" x1="-931.47" y1="533.74" x2="558.43" y2="-326.46"/>
		<line class="st3" x1="-902.26" y1="550.6" x2="587.65" y2="-309.59"/>
		<line class="st3" x1="-873.05" y1="567.47" x2="616.86" y2="-292.73"/>
		<line class="st3" x1="-843.83" y1="584.34" x2="646.07" y2="-275.86"/>
		<line class="st3" x1="-814.62" y1="601.2" x2="675.29" y2="-259"/>
		<line class="st3" x1="-785.4" y1="618.07" x2="704.5" y2="-242.13"/>
		<line class="st3" x1="-756.19" y1="634.93" x2="733.71" y2="-225.26"/>
		<line class="st3" x1="-726.98" y1="651.8" x2="762.93" y2="-208.4"/>
		<line class="st3" x1="-697.76" y1="668.67" x2="792.14" y2="-191.53"/>
		<line class="st3" x1="-668.55" y1="685.53" x2="821.35" y2="-174.66"/>
		<line class="st3" x1="-639.34" y1="702.4" x2="850.57" y2="-157.8"/>
		<line class="st3" x1="-610.12" y1="719.27" x2="879.78" y2="-140.93"/>
		<line class="st3" x1="-580.91" y1="736.13" x2="909" y2="-124.06"/>
		<line class="st3" x1="-551.7" y1="753" x2="938.21" y2="-107.2"/>
		<line class="st3" x1="-522.48" y1="769.87" x2="967.42" y2="-90.33"/>
		<line class="st3" x1="-493.27" y1="786.73" x2="996.64" y2="-73.46"/>
		<line class="st3" x1="-464.05" y1="803.6" x2="1025.85" y2="-56.6"/>
		<line class="st3" x1="-434.84" y1="820.47" x2="1055.06" y2="-39.73"/>
		<line class="st3" x1="-405.63" y1="837.33" x2="1084.28" y2="-22.86"/>
		<line class="st3" x1="-376.41" y1="854.2" x2="1113.49" y2="-6"/>
		<line class="st3" x1="-347.2" y1="871.07" x2="1142.7" y2="10.87"/>
		<line class="st3" x1="-317.99" y1="887.93" x2="1171.92" y2="27.74"/>
		<line class="st3" x1="-288.77" y1="904.8" x2="1201.13" y2="44.6"/>
		<line class="st3" x1="-259.56" y1="921.67" x2="1230.35" y2="61.47"/>
		<line class="st3" x1="-230.35" y1="938.53" x2="1259.56" y2="78.33"/>
		<line class="st3" x1="-201.13" y1="955.4" x2="1288.77" y2="95.2"/>
		<line class="st3" x1="-171.92" y1="972.26" x2="1317.99" y2="112.07"/>
		<line class="st3" x1="-142.7" y1="989.13" x2="1347.2" y2="128.93"/>
		<line class="st3" x1="-113.49" y1="1006" x2="1376.41" y2="145.8"/>
		<line class="st3" x1="-84.28" y1="1022.86" x2="1405.63" y2="162.67"/>
		<line class="st3" x1="-55.06" y1="1039.73" x2="1434.84" y2="179.53"/>
		<line class="st3" x1="-25.85" y1="1056.6" x2="1464.05" y2="196.4"/>
		<line class="st3" x1="3.36" y1="1073.46" x2="1493.27" y2="213.27"/>
		<line class="st3" x1="32.58" y1="1090.33" x2="1522.48" y2="230.13"/>
		<line class="st3" x1="61.79" y1="1107.2" x2="1551.7" y2="247"/>
		<line class="st3" x1="91" y1="1124.06" x2="1580.91" y2="263.87"/>
		<line class="st3" x1="120.22" y1="1140.93" x2="1610.12" y2="280.73"/>
		<line class="st3" x1="149.43" y1="1157.8" x2="1639.34" y2="297.6"/>
		<line class="st3" x1="178.65" y1="1174.66" x2="1668.55" y2="314.47"/>
		<line class="st3" x1="207.86" y1="1191.53" x2="1697.76" y2="331.33"/>
		<line class="st3" x1="237.07" y1="1208.4" x2="1726.98" y2="348.2"/>
		<line class="st3" x1="266.29" y1="1225.26" x2="1756.19" y2="365.07"/>
		<line class="st3" x1="295.5" y1="1242.13" x2="1785.4" y2="381.93"/>
		<line class="st3" x1="324.71" y1="1259" x2="1814.62" y2="398.8"/>
		<line class="st3" x1="353.93" y1="1275.86" x2="1843.83" y2="415.66"/>
		<line class="st3" x1="383.14" y1="1292.73" x2="1873.05" y2="432.53"/>
		<line class="st3" x1="412.35" y1="1309.59" x2="1902.26" y2="449.4"/>
		<line class="st3" x1="441.57" y1="1326.46" x2="1931.47" y2="466.26"/>
		<line class="st3" x1="470.78" y1="1343.33" x2="1960.69" y2="483.13"/>
		<line class="st3" x1="1960.69" y1="516.86" x2="470.79" y2="-343.33"/>
		<line class="st3" x1="1931.47" y1="533.73" x2="441.58" y2="-326.46"/>
		<line class="st3" x1="1902.26" y1="550.6" x2="412.36" y2="-309.59"/>
		<line class="st3" x1="1873.04" y1="567.46" x2="383.15" y2="-292.73"/>
		<line class="st3" x1="1843.83" y1="584.33" x2="353.94" y2="-275.86"/>
		<line class="st3" x1="1814.62" y1="601.2" x2="324.72" y2="-258.99"/>
		<line class="st3" x1="1785.4" y1="618.06" x2="295.51" y2="-242.13"/>
		<line class="st3" x1="1756.19" y1="634.93" x2="266.29" y2="-225.26"/>
		<line class="st3" x1="1726.98" y1="651.8" x2="237.08" y2="-208.39"/>
		<line class="st3" x1="1697.76" y1="668.66" x2="207.87" y2="-191.53"/>
		<line class="st3" x1="1668.55" y1="685.53" x2="178.65" y2="-174.66"/>
		<line class="st3" x1="1639.33" y1="702.4" x2="149.44" y2="-157.8"/>
		<line class="st3" x1="1610.12" y1="719.26" x2="120.22" y2="-140.93"/>
		<line class="st3" x1="1580.91" y1="736.13" x2="91.01" y2="-124.06"/>
		<line class="st3" x1="1551.69" y1="753" x2="61.8" y2="-107.2"/>
		<line class="st3" x1="1522.48" y1="769.86" x2="32.58" y2="-90.33"/>
		<line class="st3" x1="1493.27" y1="786.73" x2="3.37" y2="-73.46"/>
		<line class="st3" x1="1464.05" y1="803.6" x2="-25.84" y2="-56.6"/>
		<line class="st3" x1="1434.84" y1="820.46" x2="-55.06" y2="-39.73"/>
		<line class="st3" x1="1405.62" y1="837.33" x2="-84.27" y2="-22.86"/>
		<line class="st3" x1="1376.41" y1="854.2" x2="-113.49" y2="-6"/>
		<line class="st3" x1="1347.2" y1="871.06" x2="-142.7" y2="10.87"/>
		<line class="st3" x1="1317.98" y1="887.93" x2="-171.91" y2="27.74"/>
		<line class="st3" x1="1288.77" y1="904.8" x2="-201.13" y2="44.6"/>
		<line class="st3" x1="1259.55" y1="921.66" x2="-230.34" y2="61.47"/>
		<line class="st3" x1="1230.34" y1="938.53" x2="-259.55" y2="78.34"/>
		<line class="st3" x1="1201.13" y1="955.4" x2="-288.77" y2="95.2"/>
		<line class="st3" x1="1171.91" y1="972.26" x2="-317.98" y2="112.07"/>
		<line class="st3" x1="1142.7" y1="989.13" x2="-347.2" y2="128.94"/>
		<polyline class="st3" points="1113.49,1006 237.08,500 -376.41,145.8 		"/>
		<line class="st3" x1="1084.27" y1="1022.86" x2="-405.62" y2="162.67"/>
		<line class="st3" x1="1055.06" y1="1039.73" x2="-434.84" y2="179.54"/>
		<line class="st3" x1="1025.84" y1="1056.6" x2="-464.05" y2="196.4"/>
		<line class="st3" x1="996.63" y1="1073.46" x2="-493.27" y2="213.27"/>
		<line class="st3" x1="967.42" y1="1090.33" x2="-522.48" y2="230.14"/>
		<line class="st3" x1="938.2" y1="1107.2" x2="-551.69" y2="247"/>
		<line class="st3" x1="908.99" y1="1124.06" x2="-580.91" y2="263.87"/>
		<line class="st3" x1="879.78" y1="1140.93" x2="-610.12" y2="280.74"/>
		<line class="st3" x1="850.56" y1="1157.8" x2="-639.33" y2="297.6"/>
		<line class="st3" x1="821.35" y1="1174.66" x2="-668.55" y2="314.47"/>
		<line class="st3" x1="792.13" y1="1191.53" x2="-697.76" y2="331.34"/>
		<line class="st3" x1="762.92" y1="1208.39" x2="-726.98" y2="348.2"/>
		<line class="st3" x1="733.71" y1="1225.26" x2="-756.19" y2="365.07"/>
		<line class="st3" x1="704.49" y1="1242.13" x2="-785.4" y2="381.94"/>
		<line class="st3" x1="675.28" y1="1258.99" x2="-814.62" y2="398.8"/>
		<line class="st3" x1="646.06" y1="1275.86" x2="-843.83" y2="415.67"/>
		<line class="st3" x1="616.85" y1="1292.73" x2="-873.04" y2="432.54"/>
		<line class="st3" x1="587.64" y1="1309.59" x2="-902.26" y2="449.4"/>
		<line class="st3" x1="558.42" y1="1326.46" x2="-931.47" y2="466.27"/>
		<line class="st3" x1="529.21" y1="1343.33" x2="-960.69" y2="483.14"/>
	</g>
</g>
<g>
	<radialGradient id="SVGID_5_" cx="500" cy="511.0662" r="197.8188" gradientUnits="userSpaceOnUse">
		<stop  offset="1.198083e-07" style="stop-color:#2A2939"/>
		<stop  offset="0.8917" style="stop-color:#2A2939;stop-opacity:0.1083"/>
		<stop  offset="1" style="stop-color:#2A2939;stop-opacity:0"/>
	</radialGradient>
	<ellipse class="st4" cx="500" cy="511.07" rx="242.28" ry="139.88"/>
	<g>
		<g class="st5">
			<defs>
				<path id="SVGID_6_" class="st5" d="M327.72,473.02l0.09-32.47c-0.02,7.27,4.78,14.55,14.38,20.09l-0.09,32.47
					C332.5,487.57,327.7,480.29,327.72,473.02z"/>
			</defs>
			<clipPath id="SVGID_7_">
				<use xlink:href="#SVGID_6_"  style="overflow:visible;"/>
			</clipPath>
			<g class="st6">
				<path class="st7" d="M342.19,460.65l-0.09,32.47c-9.6-5.54-14.4-12.82-14.38-20.09l0.09-32.47
					C327.79,447.82,332.59,455.1,342.19,460.65"/>
			</g>
		</g>
		<linearGradient id="SVGID_8_" gradientUnits="userSpaceOnUse" x1="690.2483" y1="501.774" x2="704.5008" y2="501.774">
			<stop  offset="0" style="stop-color:#1B6D8D"/>
			<stop  offset="0.2876" style="stop-color:#1A6988"/>
			<stop  offset="0.645" style="stop-color:#175D78"/>
			<stop  offset="1" style="stop-color:#134C62"/>
		</linearGradient>
		<path class="st8" d="M704.46,476.49c-0.01,0.24-0.03,0.49-0.05,0.73c-0.02,0.21-0.05,0.43-0.08,0.64
			c-0.03,0.24-0.07,0.49-0.11,0.73c-0.04,0.22-0.09,0.43-0.13,0.65c-0.05,0.24-0.11,0.47-0.17,0.71c-0.06,0.22-0.12,0.43-0.19,0.65
			c-0.07,0.23-0.15,0.47-0.23,0.7c-0.07,0.21-0.16,0.42-0.24,0.63c-0.1,0.25-0.2,0.49-0.31,0.74c-0.09,0.21-0.19,0.41-0.29,0.62
			c-0.12,0.24-0.25,0.49-0.38,0.73c-0.11,0.2-0.22,0.4-0.33,0.59c-0.17,0.29-0.35,0.57-0.53,0.86c-0.11,0.18-0.22,0.35-0.34,0.53
			c-0.22,0.32-0.45,0.63-0.69,0.94c-0.1,0.14-0.2,0.28-0.31,0.41c-0.39,0.5-0.82,0.99-1.26,1.47c-0.11,0.12-0.24,0.25-0.35,0.37
			c-0.35,0.37-0.72,0.74-1.11,1.1c-0.17,0.16-0.35,0.33-0.53,0.49c-0.23,0.21-0.47,0.41-0.71,0.62c-0.22,0.19-0.44,0.37-0.67,0.56
			c-0.25,0.2-0.51,0.4-0.77,0.6c-0.24,0.18-0.48,0.36-0.72,0.54c-0.27,0.2-0.55,0.39-0.82,0.58c-0.26,0.18-0.51,0.35-0.78,0.53
			c-0.29,0.19-0.59,0.37-0.88,0.56c-0.37,0.23-0.74,0.46-1.13,0.69l-0.09,32.47c0.2-0.12,0.4-0.23,0.59-0.35
			c0.19-0.11,0.36-0.23,0.54-0.34c0.3-0.18,0.59-0.37,0.88-0.56c0.27-0.17,0.52-0.35,0.78-0.53c0.28-0.19,0.55-0.38,0.82-0.58
			c0.25-0.18,0.49-0.36,0.73-0.54c0.26-0.2,0.51-0.4,0.76-0.6c0.23-0.19,0.45-0.37,0.67-0.56c0.24-0.2,0.47-0.41,0.7-0.61
			c0.09-0.08,0.2-0.17,0.29-0.25c0.09-0.08,0.16-0.16,0.24-0.24c0.38-0.36,0.75-0.73,1.1-1.1c0.12-0.12,0.24-0.25,0.36-0.37
			c0.45-0.49,0.87-0.98,1.26-1.47c0.02-0.02,0.04-0.04,0.05-0.06c0.09-0.11,0.17-0.23,0.25-0.35c0.24-0.31,0.47-0.63,0.69-0.94
			c0.12-0.17,0.23-0.35,0.34-0.52c0.18-0.29,0.37-0.57,0.53-0.86c0.05-0.08,0.1-0.16,0.15-0.24c0.07-0.12,0.12-0.24,0.18-0.35
			c0.13-0.24,0.26-0.49,0.38-0.73c0.1-0.2,0.19-0.41,0.29-0.61c0.11-0.25,0.21-0.49,0.31-0.74c0.04-0.11,0.1-0.22,0.14-0.33
			c0.04-0.1,0.06-0.2,0.1-0.3c0.08-0.23,0.16-0.47,0.23-0.7c0.07-0.22,0.13-0.43,0.19-0.65c0.06-0.24,0.12-0.47,0.17-0.71
			c0.03-0.13,0.07-0.26,0.09-0.39c0.02-0.09,0.02-0.17,0.04-0.26c0.04-0.24,0.08-0.49,0.11-0.73c0.03-0.21,0.06-0.43,0.08-0.64
			c0.02-0.24,0.04-0.49,0.05-0.73c0.01-0.14,0.03-0.29,0.03-0.43c0-0.14,0.01-0.29,0.01-0.43l0.09-32.47
			C704.5,475.92,704.48,476.2,704.46,476.49z"/>
		<g>
			<polygon class="st9" points="690.34,495.45 690.25,527.92 581.12,591.33 581.21,558.86 			"/>
		</g>
		<g>
			<polygon class="st10" points="512.32,558.87 512.23,591.34 342.1,493.12 342.19,460.65 			"/>
		</g>
		<linearGradient id="SVGID_9_" gradientUnits="userSpaceOnUse" x1="512.2324" y1="579.2211" x2="581.2147" y2="579.2211">
			<stop  offset="0" style="stop-color:#134C62"/>
			<stop  offset="0.1492" style="stop-color:#175E79"/>
			<stop  offset="0.2497" style="stop-color:#175D77"/>
			<stop  offset="0.5578" style="stop-color:#134C62"/>
			<stop  offset="1" style="stop-color:#1B6D8D"/>
		</linearGradient>
		<path class="st11" d="M576.94,593.48c0.3-0.14,0.6-0.28,0.9-0.42c1.13-0.55,2.23-1.11,3.29-1.73l0.09-32.47
			c-1.06,0.61-2.16,1.18-3.29,1.73c-0.3,0.14-0.59,0.28-0.9,0.42c-1.02,0.47-2.06,0.92-3.12,1.33c-0.14,0.05-0.27,0.12-0.42,0.17
			c-1.14,0.43-2.31,0.83-3.5,1.2c-0.82,0.26-1.67,0.49-2.51,0.72c-0.64,0.17-1.27,0.36-1.92,0.52c-0.89,0.21-1.79,0.39-2.69,0.58
			c-0.66,0.13-1.3,0.28-1.96,0.4c-0.27,0.05-0.55,0.09-0.82,0.13c-1.12,0.18-2.24,0.34-3.38,0.48c-0.33,0.04-0.66,0.08-0.99,0.12
			c-1.31,0.14-2.63,0.25-3.96,0.33c-0.24,0.01-0.49,0.02-0.73,0.04c-0.89,0.04-1.79,0.06-2.68,0.07c-0.89,0.02-1.78,0.02-2.67,0.01
			c-0.75-0.01-1.49-0.03-2.23-0.06c-0.82-0.03-1.65-0.08-2.47-0.13c-0.75-0.05-1.5-0.12-2.25-0.19c-0.81-0.08-1.62-0.17-2.43-0.27
			c-0.73-0.09-1.46-0.2-2.18-0.31c-0.86-0.13-1.72-0.29-2.58-0.45c-0.9-0.17-1.8-0.34-2.68-0.54c-0.21-0.05-0.42-0.09-0.63-0.14
			c-1.24-0.3-2.47-0.63-3.67-0.99c-0.34-0.1-0.68-0.21-1.03-0.32c-1-0.32-1.99-0.65-2.96-1.01c-0.28-0.1-0.57-0.2-0.85-0.31
			c-0.88-0.34-1.74-0.72-2.59-1.1c-0.42-0.18-0.85-0.35-1.25-0.55c-1.23-0.58-2.42-1.2-3.57-1.87l-0.09,32.47
			c1.15,0.66,2.34,1.28,3.57,1.86c0.41,0.19,0.84,0.36,1.26,0.55c0.73,0.32,1.44,0.66,2.19,0.96c0.13,0.05,0.26,0.09,0.39,0.14
			c0.28,0.11,0.57,0.21,0.85,0.31c0.97,0.36,1.96,0.7,2.96,1.01c0.34,0.11,0.68,0.22,1.03,0.32c0.23,0.07,0.46,0.15,0.69,0.21
			c0.98,0.28,1.98,0.53,2.98,0.77c0.21,0.05,0.42,0.09,0.63,0.14c0.49,0.11,0.97,0.23,1.47,0.33c0.4,0.08,0.81,0.13,1.22,0.21
			c0.86,0.16,1.71,0.31,2.58,0.45c0.35,0.05,0.69,0.13,1.03,0.18c0.38,0.05,0.76,0.08,1.14,0.13c0.81,0.1,1.62,0.19,2.43,0.27
			c0.39,0.04,0.77,0.1,1.16,0.13c0.36,0.03,0.73,0.03,1.09,0.06c0.82,0.06,1.64,0.1,2.47,0.13c0.41,0.02,0.82,0.06,1.24,0.07
			c0.33,0.01,0.66-0.01,0.99,0c0.89,0.01,1.78,0,2.67-0.01c0.44-0.01,0.88,0.01,1.32-0.01c0.45-0.02,0.9-0.05,1.35-0.07
			c0.25-0.01,0.49-0.02,0.74-0.04c1.11-0.07,2.22-0.15,3.32-0.25c0.21-0.02,0.42-0.05,0.64-0.08c0.33-0.04,0.66-0.08,0.99-0.12
			c1.13-0.14,2.26-0.29,3.37-0.48c0.27-0.04,0.55-0.08,0.82-0.13c0.13-0.02,0.26-0.04,0.39-0.06c0.53-0.1,1.04-0.23,1.57-0.34
			c0.9-0.18,1.81-0.36,2.69-0.58c0.65-0.16,1.28-0.34,1.91-0.52c0.84-0.23,1.69-0.46,2.51-0.72c0.18-0.06,0.36-0.1,0.54-0.15
			c1-0.33,1.99-0.68,2.96-1.05c0.14-0.05,0.28-0.11,0.42-0.17C574.89,594.4,575.92,593.95,576.94,593.48z"/>
		<g>
			<path class="st12" d="M690.12,455.54c19.08,11.02,19.18,28.88,0.22,39.9l-109.13,63.42c-18.97,11.02-49.81,11.02-68.89,0.01
				l-170.13-98.22c-19.08-11.02-19.19-28.89-0.22-39.91l109.13-63.42c18.97-11.02,49.82-11.02,68.9,0L690.12,455.54z"/>
		</g>
		<path class="st13" d="M688.8,455.54l-4.24-2.45c-17.29,3.94-34.81,6.83-52.38,9.25c-64.04,8.82-128.08,10.16-192.45,4
			c-36.84-3.53-73.42-9.15-109.89-15.44c2.39,3.55,6.06,6.88,11.02,9.74L511,558.87c19.08,11.02,49.92,11.02,68.89-0.01
			l109.13-63.42C707.98,484.43,707.88,466.56,688.8,455.54z"/>
		<g>
			<g class="st5">
				<g>
					<path class="st14" d="M522.05,389.34c8.75,5.05,8.8,13.25,0.1,18.3c-4.51,2.62-10.49,3.88-16.42,3.78
						c7.07,9.13,4.2,20.21-8.68,27.7l-60.87-35.14c12.88-7.49,32-9.19,47.79-5.12c-0.2-3.44,1.96-6.9,6.47-9.52
						C499.15,384.28,513.29,384.28,522.05,389.34z"/>
				</g>
				<g>
					<polygon class="st15" points="664.82,471.76 657.48,476.03 567.23,423.92 574.56,419.65 					"/>
				</g>
				<g>
					<polygon class="st15" points="642,485.03 634.66,489.29 544.4,437.18 551.74,432.92 					"/>
				</g>
				<g>
					<polygon class="st15" points="619.17,498.29 611.84,502.56 521.58,450.45 528.92,446.18 					"/>
				</g>
				<g>
					<polygon class="st15" points="596.35,511.56 589.01,515.82 401.93,407.81 409.27,403.55 					"/>
				</g>
				<g>
					<polygon class="st15" points="573.52,524.82 566.19,529.08 379.11,421.08 386.44,416.81 					"/>
				</g>
				<g>
					<polygon class="st15" points="550.7,538.09 543.36,542.35 356.28,434.34 363.62,430.08 					"/>
				</g>
			</g>
		</g>
	</g>
</g>
</svg>
