<?xml version="1.0" encoding="utf-8"?>
<!-- Generator: Adobe Illustrator 23.0.0, SVG Export Plug-In . SVG Version: 6.00 Build 0)  -->
<svg version="1.1" id="Layer_1" xmlns="http://www.w3.org/2000/svg" xmlns:xlink="http://www.w3.org/1999/xlink" x="0px" y="0px"
	 viewBox="0 0 1000 1000" style="enable-background:new 0 0 1000 1000;" xml:space="preserve">
<style type="text/css">
	.st0{clip-path:url(#SVGID_2_);fill:#2A2939;}
	.st1{opacity:0.15;}
	.st2{clip-path:url(#SVGID_4_);}
	.st3{fill:none;stroke:#77DFF7;stroke-width:0.5;stroke-miterlimit:10;}
	.st4{fill:url(#SVGID_5_);}
	.st5{fill:#134C62;}
	.st6{fill:#1B6D8D;}
	.st7{fill:#DC3333;}
	.st8{fill:#C12B2B;}
	.st9{fill:#D4FBFC;}
	.st10{fill:#C1E5E5;}
	.st11{fill:#0C313D;}
	.st12{fill:#07242B;}
	.st13{fill:none;stroke:#1D6672;stroke-width:0.75;stroke-miterlimit:10;}
	.st14{fill:url(#SVGID_6_);}
	.st15{fill:url(#SVGID_7_);}
	.st16{fill:url(#SVGID_8_);}
	.st17{fill:url(#SVGID_9_);}
	.st18{fill:url(#SVGID_10_);}
	.st19{fill:url(#SVGID_11_);}
</style>
<g>
	<defs>
		<rect id="SVGID_1_" width="1000" height="1000"/>
	</defs>
	<clipPath id="SVGID_2_">
		<use xlink:href="#SVGID_1_"  style="overflow:visible;"/>
	</clipPath>
	<rect x="-80" y="-84" class="st0" width="1196" height="1196"/>
</g>
<g class="st1">
	<defs>
		<rect id="SVGID_3_" class="st1" width="1000" height="1000"/>
	</defs>
	<clipPath id="SVGID_4_">
		<use xlink:href="#SVGID_3_"  style="overflow:visible;"/>
	</clipPath>
	<g class="st2">
		<polygon class="st3" points="500,1360.19 1989.9,500 500,-360.19 -989.9,500 		"/>
		<line class="st3" x1="-960.69" y1="516.87" x2="529.22" y2="-343.33"/>
		<line class="st3" x1="-931.47" y1="533.74" x2="558.43" y2="-326.46"/>
		<line class="st3" x1="-902.26" y1="550.6" x2="587.65" y2="-309.59"/>
		<line class="st3" x1="-873.05" y1="567.47" x2="616.86" y2="-292.73"/>
		<line class="st3" x1="-843.83" y1="584.34" x2="646.07" y2="-275.86"/>
		<line class="st3" x1="-814.62" y1="601.2" x2="675.29" y2="-259"/>
		<line class="st3" x1="-785.4" y1="618.07" x2="704.5" y2="-242.13"/>
		<line class="st3" x1="-756.19" y1="634.93" x2="733.71" y2="-225.26"/>
		<line class="st3" x1="-726.98" y1="651.8" x2="762.93" y2="-208.4"/>
		<line class="st3" x1="-697.76" y1="668.67" x2="792.14" y2="-191.53"/>
		<line class="st3" x1="-668.55" y1="685.53" x2="821.35" y2="-174.66"/>
		<line class="st3" x1="-639.34" y1="702.4" x2="850.57" y2="-157.8"/>
		<line class="st3" x1="-610.12" y1="719.27" x2="879.78" y2="-140.93"/>
		<line class="st3" x1="-580.91" y1="736.13" x2="909" y2="-124.06"/>
		<line class="st3" x1="-551.7" y1="753" x2="938.21" y2="-107.2"/>
		<line class="st3" x1="-522.48" y1="769.87" x2="967.42" y2="-90.33"/>
		<line class="st3" x1="-493.27" y1="786.73" x2="996.64" y2="-73.46"/>
		<line class="st3" x1="-464.05" y1="803.6" x2="1025.85" y2="-56.6"/>
		<line class="st3" x1="-434.84" y1="820.47" x2="1055.06" y2="-39.73"/>
		<line class="st3" x1="-405.63" y1="837.33" x2="1084.28" y2="-22.86"/>
		<line class="st3" x1="-376.41" y1="854.2" x2="1113.49" y2="-6"/>
		<line class="st3" x1="-347.2" y1="871.07" x2="1142.7" y2="10.87"/>
		<line class="st3" x1="-317.99" y1="887.93" x2="1171.92" y2="27.74"/>
		<line class="st3" x1="-288.77" y1="904.8" x2="1201.13" y2="44.6"/>
		<line class="st3" x1="-259.56" y1="921.67" x2="1230.35" y2="61.47"/>
		<line class="st3" x1="-230.35" y1="938.53" x2="1259.56" y2="78.33"/>
		<line class="st3" x1="-201.13" y1="955.4" x2="1288.77" y2="95.2"/>
		<line class="st3" x1="-171.92" y1="972.26" x2="1317.99" y2="112.07"/>
		<line class="st3" x1="-142.7" y1="989.13" x2="1347.2" y2="128.93"/>
		<line class="st3" x1="-113.49" y1="1006" x2="1376.41" y2="145.8"/>
		<line class="st3" x1="-84.28" y1="1022.86" x2="1405.63" y2="162.67"/>
		<line class="st3" x1="-55.06" y1="1039.73" x2="1434.84" y2="179.53"/>
		<line class="st3" x1="-25.85" y1="1056.6" x2="1464.05" y2="196.4"/>
		<line class="st3" x1="3.36" y1="1073.46" x2="1493.27" y2="213.27"/>
		<line class="st3" x1="32.58" y1="1090.33" x2="1522.48" y2="230.13"/>
		<line class="st3" x1="61.79" y1="1107.2" x2="1551.7" y2="247"/>
		<line class="st3" x1="91" y1="1124.06" x2="1580.91" y2="263.87"/>
		<line class="st3" x1="120.22" y1="1140.93" x2="1610.12" y2="280.73"/>
		<line class="st3" x1="149.43" y1="1157.8" x2="1639.34" y2="297.6"/>
		<line class="st3" x1="178.65" y1="1174.66" x2="1668.55" y2="314.47"/>
		<line class="st3" x1="207.86" y1="1191.53" x2="1697.76" y2="331.33"/>
		<line class="st3" x1="237.07" y1="1208.4" x2="1726.98" y2="348.2"/>
		<line class="st3" x1="266.29" y1="1225.26" x2="1756.19" y2="365.07"/>
		<line class="st3" x1="295.5" y1="1242.13" x2="1785.4" y2="381.93"/>
		<line class="st3" x1="324.71" y1="1259" x2="1814.62" y2="398.8"/>
		<line class="st3" x1="353.93" y1="1275.86" x2="1843.83" y2="415.66"/>
		<line class="st3" x1="383.14" y1="1292.73" x2="1873.05" y2="432.53"/>
		<line class="st3" x1="412.35" y1="1309.59" x2="1902.26" y2="449.4"/>
		<line class="st3" x1="441.57" y1="1326.46" x2="1931.47" y2="466.26"/>
		<line class="st3" x1="470.78" y1="1343.33" x2="1960.69" y2="483.13"/>
		<line class="st3" x1="1960.69" y1="516.86" x2="470.79" y2="-343.33"/>
		<line class="st3" x1="1931.47" y1="533.73" x2="441.58" y2="-326.46"/>
		<line class="st3" x1="1902.26" y1="550.6" x2="412.36" y2="-309.59"/>
		<line class="st3" x1="1873.04" y1="567.46" x2="383.15" y2="-292.73"/>
		<line class="st3" x1="1843.83" y1="584.33" x2="353.94" y2="-275.86"/>
		<line class="st3" x1="1814.62" y1="601.2" x2="324.72" y2="-258.99"/>
		<line class="st3" x1="1785.4" y1="618.06" x2="295.51" y2="-242.13"/>
		<line class="st3" x1="1756.19" y1="634.93" x2="266.29" y2="-225.26"/>
		<line class="st3" x1="1726.98" y1="651.8" x2="237.08" y2="-208.39"/>
		<line class="st3" x1="1697.76" y1="668.66" x2="207.87" y2="-191.53"/>
		<line class="st3" x1="1668.55" y1="685.53" x2="178.65" y2="-174.66"/>
		<line class="st3" x1="1639.33" y1="702.4" x2="149.44" y2="-157.8"/>
		<line class="st3" x1="1610.12" y1="719.26" x2="120.22" y2="-140.93"/>
		<line class="st3" x1="1580.91" y1="736.13" x2="91.01" y2="-124.06"/>
		<line class="st3" x1="1551.69" y1="753" x2="61.8" y2="-107.2"/>
		<line class="st3" x1="1522.48" y1="769.86" x2="32.58" y2="-90.33"/>
		<line class="st3" x1="1493.27" y1="786.73" x2="3.37" y2="-73.46"/>
		<line class="st3" x1="1464.05" y1="803.6" x2="-25.84" y2="-56.6"/>
		<line class="st3" x1="1434.84" y1="820.46" x2="-55.06" y2="-39.73"/>
		<line class="st3" x1="1405.62" y1="837.33" x2="-84.27" y2="-22.86"/>
		<line class="st3" x1="1376.41" y1="854.2" x2="-113.49" y2="-6"/>
		<line class="st3" x1="1347.2" y1="871.06" x2="-142.7" y2="10.87"/>
		<line class="st3" x1="1317.98" y1="887.93" x2="-171.91" y2="27.74"/>
		<line class="st3" x1="1288.77" y1="904.8" x2="-201.13" y2="44.6"/>
		<line class="st3" x1="1259.55" y1="921.66" x2="-230.34" y2="61.47"/>
		<line class="st3" x1="1230.34" y1="938.53" x2="-259.55" y2="78.34"/>
		<line class="st3" x1="1201.13" y1="955.4" x2="-288.77" y2="95.2"/>
		<line class="st3" x1="1171.91" y1="972.26" x2="-317.98" y2="112.07"/>
		<line class="st3" x1="1142.7" y1="989.13" x2="-347.2" y2="128.94"/>
		<polyline class="st3" points="1113.49,1006 237.08,500 -376.41,145.8 		"/>
		<line class="st3" x1="1084.27" y1="1022.86" x2="-405.62" y2="162.67"/>
		<line class="st3" x1="1055.06" y1="1039.73" x2="-434.84" y2="179.54"/>
		<line class="st3" x1="1025.84" y1="1056.6" x2="-464.05" y2="196.4"/>
		<line class="st3" x1="996.63" y1="1073.46" x2="-493.27" y2="213.27"/>
		<line class="st3" x1="967.42" y1="1090.33" x2="-522.48" y2="230.14"/>
		<line class="st3" x1="938.2" y1="1107.2" x2="-551.69" y2="247"/>
		<line class="st3" x1="908.99" y1="1124.06" x2="-580.91" y2="263.87"/>
		<line class="st3" x1="879.78" y1="1140.93" x2="-610.12" y2="280.74"/>
		<line class="st3" x1="850.56" y1="1157.8" x2="-639.33" y2="297.6"/>
		<line class="st3" x1="821.35" y1="1174.66" x2="-668.55" y2="314.47"/>
		<line class="st3" x1="792.13" y1="1191.53" x2="-697.76" y2="331.34"/>
		<line class="st3" x1="762.92" y1="1208.39" x2="-726.98" y2="348.2"/>
		<line class="st3" x1="733.71" y1="1225.26" x2="-756.19" y2="365.07"/>
		<line class="st3" x1="704.49" y1="1242.13" x2="-785.4" y2="381.94"/>
		<line class="st3" x1="675.28" y1="1258.99" x2="-814.62" y2="398.8"/>
		<line class="st3" x1="646.06" y1="1275.86" x2="-843.83" y2="415.67"/>
		<line class="st3" x1="616.85" y1="1292.73" x2="-873.04" y2="432.54"/>
		<line class="st3" x1="587.64" y1="1309.59" x2="-902.26" y2="449.4"/>
		<line class="st3" x1="558.42" y1="1326.46" x2="-931.47" y2="466.27"/>
		<line class="st3" x1="529.21" y1="1343.33" x2="-960.69" y2="483.14"/>
	</g>
</g>
<g>
	<radialGradient id="SVGID_5_" cx="500" cy="517.8242" r="197.8188" gradientUnits="userSpaceOnUse">
		<stop  offset="1.198083e-07" style="stop-color:#2A2939"/>
		<stop  offset="0.8917" style="stop-color:#2A2939;stop-opacity:0.1083"/>
		<stop  offset="1" style="stop-color:#2A2939;stop-opacity:0"/>
	</radialGradient>
	<ellipse class="st4" cx="500" cy="517.82" rx="242.28" ry="139.88"/>
	<g>
		<path class="st5" d="M465.63,592.2c0.99,0.57,2.01,1.1,3.06,1.61c0.1,0.05,0.2,0.1,0.3,0.15c1,0.48,2.03,0.92,3.08,1.34
			c0.09,0.04,0.18,0.08,0.27,0.12c0.08,0.03,0.16,0.06,0.24,0.09c0.81,0.31,1.63,0.62,2.46,0.9c0.13,0.04,0.26,0.08,0.39,0.13
			c0.72,0.24,1.46,0.47,2.2,0.68c0.12,0.04,0.24,0.08,0.37,0.11c0.14,0.04,0.29,0.07,0.43,0.11c0.47,0.13,0.94,0.25,1.41,0.37
			c0.29,0.07,0.58,0.15,0.87,0.22c0.52,0.12,1.04,0.24,1.56,0.35c0.2,0.04,0.39,0.09,0.59,0.13c0.05,0.01,0.11,0.02,0.16,0.03
			c0.47,0.1,0.95,0.18,1.43,0.27c0.26,0.05,0.53,0.1,0.79,0.15c0.62,0.11,1.25,0.2,1.88,0.3c0.12,0.02,0.23,0.04,0.35,0.05
			c0.01,0,0.01,0,0.02,0c0.74,0.1,1.48,0.2,2.22,0.28c0.19,0.02,0.37,0.04,0.56,0.05c0.56,0.06,1.12,0.12,1.68,0.16
			c0.01,0,0.03,0,0.04,0c0.26,0.02,0.51,0.03,0.77,0.05c0.48,0.03,0.96,0.07,1.45,0.1c0.3,0.02,0.61,0.02,0.91,0.04
			c0.45,0.02,0.9,0.04,1.35,0.05c0.04,0,0.07,0,0.11,0c0.25,0.01,0.5,0,0.74,0.01c0.49,0.01,0.97,0.02,1.46,0.01
			c0.32,0,0.64-0.01,0.95-0.01c0.45-0.01,0.9-0.01,1.36-0.03c0.08,0,0.17,0,0.25,0c0.21-0.01,0.42-0.02,0.63-0.03
			c0.52-0.02,1.04-0.05,1.56-0.08c0.32-0.02,0.63-0.04,0.95-0.07c0.5-0.04,1-0.08,1.49-0.12c0.18-0.02,0.35-0.03,0.53-0.04
			c0.12-0.01,0.24-0.03,0.37-0.04c0.77-0.08,1.55-0.17,2.31-0.28c0.13-0.02,0.25-0.03,0.38-0.05c0.88-0.12,1.76-0.27,2.63-0.42
			c0.08-0.01,0.16-0.02,0.25-0.04c0.23-0.04,0.46-0.09,0.7-0.14c0.41-0.08,0.81-0.15,1.21-0.24c0.33-0.07,0.66-0.14,0.99-0.22
			c0.4-0.09,0.79-0.18,1.18-0.27c0.33-0.08,0.65-0.16,0.98-0.25c0.39-0.1,0.77-0.2,1.16-0.31c0.32-0.09,0.65-0.18,0.97-0.28
			c0.38-0.11,0.76-0.23,1.13-0.34c0.16-0.05,0.33-0.1,0.5-0.15c0.12-0.04,0.23-0.08,0.35-0.12c0.68-0.23,1.35-0.46,2.02-0.71
			c0.14-0.05,0.28-0.1,0.42-0.15c0.79-0.3,1.56-0.62,2.32-0.95c0.2-0.09,0.39-0.18,0.59-0.27c0.58-0.26,1.16-0.53,1.73-0.81
			c0.21-0.1,0.42-0.21,0.63-0.32c0.73-0.37,1.45-0.76,2.14-1.16l96.64-56.16c0.19-0.11,0.38-0.22,0.57-0.34
			c0.18-0.11,0.34-0.22,0.51-0.32c0.29-0.18,0.57-0.36,0.85-0.54c0.25-0.17,0.5-0.33,0.74-0.5c0.27-0.18,0.53-0.37,0.79-0.55
			c0.24-0.17,0.47-0.35,0.69-0.52c0.25-0.19,0.49-0.38,0.73-0.57c0.22-0.18,0.43-0.36,0.64-0.53c0.23-0.19,0.45-0.39,0.67-0.59
			c0.09-0.08,0.19-0.16,0.28-0.24c0.08-0.08,0.15-0.15,0.23-0.23c0.37-0.35,0.72-0.7,1.06-1.05c0.11-0.12,0.23-0.23,0.34-0.35
			c0.43-0.46,0.83-0.93,1.21-1.41c0.02-0.02,0.04-0.04,0.05-0.06c0.09-0.11,0.16-0.22,0.24-0.33c0.23-0.3,0.45-0.6,0.66-0.9
			c0.11-0.17,0.22-0.33,0.33-0.5c0.18-0.27,0.35-0.55,0.51-0.82c0.04-0.08,0.1-0.15,0.14-0.23c0.06-0.11,0.11-0.23,0.17-0.34
			c0.13-0.23,0.25-0.46,0.36-0.7c0.1-0.2,0.19-0.39,0.27-0.59c0.1-0.23,0.2-0.47,0.3-0.71c0.04-0.11,0.09-0.21,0.13-0.32
			c0.04-0.09,0.06-0.19,0.09-0.28c0.08-0.22,0.15-0.45,0.22-0.67c0.06-0.2,0.12-0.41,0.18-0.62c0.06-0.23,0.11-0.45,0.16-0.68
			c0.03-0.12,0.07-0.25,0.09-0.37c0.02-0.08,0.02-0.17,0.04-0.25c0.04-0.23,0.08-0.46,0.11-0.7c0.03-0.2,0.06-0.41,0.08-0.61
			c0.02-0.23,0.04-0.47,0.05-0.7c0.01-0.14,0.03-0.27,0.03-0.41c0-0.14,0.01-0.27,0.01-0.41l0.26-91.55c0,0.27-0.02,0.55-0.04,0.82
			c-0.01,0.24-0.03,0.47-0.05,0.71c-0.02,0.2-0.05,0.41-0.08,0.61c-0.03,0.23-0.07,0.47-0.11,0.7c-0.04,0.21-0.08,0.41-0.13,0.61
			c-0.05,0.23-0.1,0.45-0.17,0.68c-0.06,0.21-0.12,0.41-0.18,0.61c-0.07,0.22-0.14,0.45-0.22,0.67c-0.07,0.2-0.15,0.4-0.23,0.6
			c-0.09,0.24-0.19,0.47-0.3,0.71c-0.09,0.2-0.18,0.39-0.27,0.59c-0.11,0.23-0.23,0.47-0.36,0.7c-0.1,0.19-0.21,0.38-0.32,0.57
			c-0.16,0.28-0.33,0.55-0.51,0.82c-0.11,0.17-0.21,0.33-0.33,0.5c-0.21,0.3-0.43,0.6-0.65,0.9c-0.1,0.13-0.19,0.26-0.3,0.4
			c-0.38,0.47-0.78,0.94-1.21,1.41c-0.11,0.12-0.23,0.24-0.34,0.35c-0.34,0.35-0.69,0.7-1.06,1.05c-0.17,0.16-0.33,0.32-0.51,0.47
			c-0.22,0.2-0.44,0.39-0.67,0.59c-0.21,0.18-0.42,0.36-0.64,0.53c-0.24,0.19-0.48,0.38-0.73,0.57c-0.23,0.17-0.46,0.35-0.69,0.52
			c-0.26,0.19-0.52,0.37-0.79,0.55c-0.24,0.17-0.49,0.34-0.74,0.5c-0.28,0.18-0.56,0.36-0.85,0.54c-0.36,0.22-0.71,0.44-1.08,0.66
			l-96.64,56.16c-0.7,0.4-1.41,0.79-2.14,1.16c-0.21,0.11-0.42,0.21-0.63,0.32c-0.57,0.28-1.14,0.55-1.73,0.82
			c-0.2,0.09-0.39,0.18-0.59,0.26c-0.76,0.33-1.54,0.65-2.32,0.95c-0.14,0.05-0.28,0.1-0.42,0.15c-0.66,0.25-1.34,0.48-2.02,0.71
			c-0.28,0.09-0.56,0.18-0.84,0.27c-0.38,0.12-0.75,0.23-1.13,0.34c-0.32,0.09-0.64,0.19-0.97,0.28c-0.38,0.11-0.77,0.21-1.16,0.31
			c-0.33,0.08-0.65,0.17-0.98,0.25c-0.39,0.1-0.79,0.19-1.19,0.27c-0.33,0.07-0.65,0.15-0.98,0.22c-0.41,0.08-0.81,0.16-1.22,0.24
			c-0.31,0.06-0.62,0.12-0.93,0.17c-0.87,0.15-1.75,0.3-2.63,0.42c-0.13,0.02-0.25,0.03-0.38,0.05c-0.77,0.1-1.54,0.19-2.31,0.28
			c-0.3,0.03-0.59,0.06-0.89,0.09c-0.5,0.05-0.99,0.09-1.49,0.12c-0.32,0.02-0.63,0.05-0.95,0.07c-0.52,0.03-1.04,0.06-1.57,0.08
			c-0.29,0.01-0.59,0.03-0.88,0.04c-0.45,0.01-0.91,0.02-1.37,0.03c-0.32,0-0.63,0.01-0.95,0.01c-0.48,0-0.97-0.01-1.45-0.01
			c-0.29,0-0.58,0-0.87-0.01c-0.45-0.01-0.89-0.03-1.34-0.05c-0.31-0.01-0.61-0.02-0.92-0.04c-0.48-0.03-0.96-0.06-1.45-0.1
			c-0.27-0.02-0.54-0.03-0.81-0.06c-0.56-0.05-1.12-0.1-1.68-0.16c-0.19-0.02-0.37-0.03-0.56-0.05c-0.74-0.08-1.48-0.18-2.22-0.28
			c-0.12-0.02-0.24-0.04-0.37-0.06c-0.63-0.09-1.26-0.19-1.88-0.3c-0.26-0.05-0.52-0.1-0.79-0.15c-0.48-0.09-0.96-0.18-1.44-0.27
			c-0.25-0.05-0.5-0.11-0.74-0.16c-0.53-0.11-1.05-0.23-1.57-0.35c-0.29-0.07-0.57-0.14-0.86-0.22c-0.47-0.12-0.95-0.24-1.42-0.37
			c-0.27-0.07-0.53-0.15-0.79-0.23c-0.74-0.22-1.48-0.44-2.2-0.68c-0.13-0.04-0.26-0.08-0.39-0.13c-0.83-0.28-1.65-0.58-2.46-0.9
			c-0.17-0.07-0.34-0.14-0.51-0.2c-1.05-0.42-2.09-0.87-3.09-1.34c-0.1-0.05-0.2-0.1-0.3-0.15c-1.05-0.51-2.07-1.04-3.06-1.61"/>
		<path class="st6" d="M465.89,500.65l-97.27-56.16c-8.03-4.64-12.55-10.55-13.54-16.6c-0.14-0.87-0.21-1.73-0.21-2.6l-0.26,91.55
			c-0.02,6.95,4.57,13.91,13.75,19.21l97.27,56.16"/>
		<g>
			<path class="st7" d="M628.15,406.36c18.24,10.53,18.34,27.6,0.21,38.14l-96.64,56.16c-18.12,10.53-47.6,10.53-65.84,0
				l-97.27-56.16c-18.24-10.53-18.35-27.61-0.22-38.14l96.64-56.16c18.12-10.53,47.61-10.53,65.85,0L628.15,406.36z"/>
		</g>
		<g>
			<path class="st8" d="M590.38,430.69c-27.04,1.9-54.2,1.29-81.24-0.22c-51.04-2.86-102.06-9.59-153.19-10.88
				c-3.26,8.69,0.96,18.15,12.67,24.91l97.27,56.16c18.24,10.53,47.72,10.53,65.84,0l96.64-56.16c9.42-5.47,13.91-12.72,13.49-19.89
				C624.84,427.85,607.37,429.49,590.38,430.69z"/>
		</g>
		<g>
			<path class="st9" d="M579.99,406.66c11.5,6.64,11.56,17.41,0.14,24.05l-60.94,35.42c-11.43,6.64-30.02,6.64-41.52,0l-61.34-35.41
				c-11.5-6.64-11.57-17.41-0.14-24.05l60.94-35.42c11.43-6.64,30.02-6.64,41.53,0L579.99,406.66z"/>
		</g>
		<g>
			<path class="st10" d="M570.29,408.34c10.14,5.85,10.19,15.35,0.12,21.2l-53.72,31.22c-10.07,5.85-26.46,5.85-36.6,0l-54.07-31.22
				c-10.14-5.85-10.2-15.35-0.12-21.2l53.72-31.22c10.07-5.85,26.46-5.85,36.6,0L570.29,408.34z"/>
		</g>
		<g>
			<g>
				<g>
					<path class="st5" d="M511.72,387.08c2.3,1.33,2.31,3.48,0.03,4.81l-12.19,7.09c-2.29,1.33-6.01,1.33-8.31,0l-12.27-7.09
						c-2.3-1.33-2.31-3.48-0.03-4.81l12.19-7.09c2.29-1.33,6.01-1.33,8.31,0L511.72,387.08z"/>
				</g>
				<g>
					<path class="st5" d="M536.89,401.06c2.3,1.33,2.31,3.48,0.03,4.81l-12.19,7.09c-2.29,1.33-6.01,1.33-8.31,0l-12.27-7.09
						c-2.3-1.33-2.31-3.48-0.03-4.81l12.19-7.09c2.29-1.33,6.01-1.33,8.31,0L536.89,401.06z"/>
				</g>
				<g>
					<path class="st5" d="M562.07,415.05c2.3,1.33,2.31,3.48,0.03,4.81l-12.19,7.09c-2.29,1.33-6.01,1.33-8.31,0l-12.27-7.09
						c-2.3-1.33-2.31-3.48-0.03-4.81l12.19-7.09c2.29-1.33,6.01-1.33,8.31,0L562.07,415.05z"/>
				</g>
			</g>
			<g>
				<g>
					<path class="st5" d="M489.34,401.06c2.3,1.33,2.31,3.48,0.03,4.81l-12.19,7.09c-2.29,1.33-6.01,1.33-8.31,0l-12.27-7.09
						c-2.3-1.33-2.31-3.48-0.03-4.81l12.19-7.09c2.29-1.33,6.01-1.33,8.31,0L489.34,401.06z"/>
				</g>
				<g>
					<path class="st5" d="M514.51,415.05c2.3,1.33,2.31,3.48,0.03,4.81l-12.19,7.09c-2.29,1.33-6.01,1.33-8.31,0l-12.27-7.09
						c-2.3-1.33-2.31-3.48-0.03-4.81l12.19-7.09c2.29-1.33,6.01-1.33,8.31,0L514.51,415.05z"/>
				</g>
				<g>
					<path class="st5" d="M539.69,429.03c2.3,1.33,2.31,3.48,0.03,4.81l-12.19,7.09c-2.29,1.33-6.01,1.33-8.31,0l-12.27-7.09
						c-2.3-1.33-2.31-3.48-0.03-4.81l12.19-7.09c2.29-1.33,6.01-1.33,8.31,0L539.69,429.03z"/>
				</g>
			</g>
			<g>
				<g>
					<path class="st5" d="M466.96,416.45c2.3,1.33,2.31,3.48,0.03,4.81l-12.19,7.09c-2.29,1.33-6.01,1.33-8.31,0l-12.27-7.09
						c-2.3-1.33-2.31-3.48-0.03-4.81l12.19-7.09c2.29-1.33,6.01-1.33,8.31,0L466.96,416.45z"/>
				</g>
				<g>
					<path class="st5" d="M492.14,430.43c2.3,1.33,2.31,3.48,0.03,4.81l-12.19,7.09c-2.29,1.33-6.01,1.33-8.31,0l-12.27-7.09
						c-2.3-1.33-2.31-3.48-0.03-4.81l12.19-7.09c2.29-1.33,6.01-1.33,8.31,0L492.14,430.43z"/>
				</g>
				<g>
					<path class="st5" d="M517.31,444.42c2.3,1.33,2.31,3.48,0.03,4.81l-12.19,7.09c-2.29,1.33-6.01,1.33-8.31,0l-12.27-7.09
						c-2.3-1.33-2.31-3.48-0.03-4.81l12.19-7.09c2.29-1.33,6.01-1.33,8.31,0L517.31,444.42z"/>
				</g>
			</g>
		</g>
		<g>
			<g>
				<path class="st11" d="M569.84,542.67c5.9-3.41,10.73-3.02,11.03,0.79l0.03,5.86l-22.05,12.73l-0.02-5.87
					C559.13,552.02,563.94,546.07,569.84,542.67z"/>
			</g>
			<g>
				<polygon class="st12" points="580.88,548.8 580.88,550.58 558.83,563.31 558.83,561.53 				"/>
			</g>
			<path class="st13" d="M580.9,549.31l-0.03-5.86c-0.3-3.81-5.13-4.19-11.03-0.79c-5.9,3.41-10.71,9.35-11,13.51l0.02,5.34
				l-0.02,0.01l0.01,1.78l22.05-12.73l0-1.26L580.9,549.31z"/>
			<g>
				<g>
					<path class="st11" d="M599.6,527c5.9-3.41,10.73-3.02,11.03,0.79l0.03,5.86l-22.05,12.73l-0.02-5.87
						C588.89,536.35,593.7,530.41,599.6,527z"/>
				</g>
				<g>
					<polygon class="st12" points="610.64,533.14 610.64,534.92 588.6,547.65 588.59,545.87 					"/>
				</g>
				<path class="st13" d="M610.66,533.65l-0.03-5.86c-0.3-3.81-5.13-4.19-11.03-0.79c-5.9,3.41-10.71,9.35-11,13.51l0.02,5.34
					l-0.02,0.01l0.01,1.78l22.05-12.73l0-1.26L610.66,533.65z"/>
			</g>
		</g>
		<g>
			<linearGradient id="SVGID_6_" gradientUnits="userSpaceOnUse" x1="368.0653" y1="462.4901" x2="376.3185" y2="462.4901">
				<stop  offset="0" style="stop-color:#DC3333"/>
				<stop  offset="1" style="stop-color:#892020"/>
			</linearGradient>
			<path class="st14" d="M369.31,462.7c0.2-0.04,0.41-0.06,0.62-0.08c0.04,0,0.09,0,0.13-0.01c0.21-0.01,0.41-0.01,0.63,0.01
				c0.03,0,0.05,0.01,0.08,0.01c0.22,0.02,0.45,0.06,0.69,0.11c0.02,0.01,0.05,0.01,0.07,0.02c0.24,0.05,0.48,0.12,0.73,0.2
				c0.02,0.01,0.03,0.01,0.05,0.02c0.26,0.09,0.52,0.19,0.79,0.32c0.02,0.01,0.04,0.02,0.05,0.03c0.27,0.13,0.54,0.27,0.82,0.43
				l2.35-1.37c-0.09-0.05-0.18-0.1-0.26-0.15c-0.11-0.06-0.23-0.12-0.34-0.18c-0.07-0.04-0.15-0.07-0.22-0.1
				c-0.02-0.01-0.04-0.02-0.05-0.03c-0.02-0.01-0.04-0.02-0.06-0.03c-0.11-0.05-0.22-0.1-0.33-0.14c-0.11-0.04-0.22-0.09-0.33-0.13
				c-0.02-0.01-0.04-0.01-0.06-0.02c-0.02-0.01-0.03-0.01-0.05-0.02c-0.07-0.03-0.15-0.05-0.22-0.07c-0.12-0.03-0.23-0.07-0.34-0.09
				c-0.05-0.01-0.11-0.02-0.16-0.04c-0.02-0.01-0.05-0.01-0.07-0.02c-0.04-0.01-0.07-0.02-0.11-0.02c-0.12-0.02-0.24-0.04-0.36-0.06
				c-0.07-0.01-0.15-0.02-0.22-0.02c-0.03,0-0.05-0.01-0.08-0.01c-0.02,0-0.05-0.01-0.07-0.01c-0.13-0.01-0.26-0.01-0.39-0.01
				c-0.06,0-0.11,0.01-0.17,0.01c-0.04,0-0.09,0-0.13,0.01c-0.04,0-0.09,0-0.13,0.01c-0.16,0.01-0.32,0.04-0.48,0.07
				c0,0-0.01,0-0.01,0c-0.04,0.01-0.07,0.02-0.1,0.03c-0.16,0.04-0.32,0.08-0.47,0.13c-0.01,0-0.02,0.01-0.04,0.02
				c-0.22,0.08-0.43,0.18-0.64,0.29l-2.35,1.37c0.2-0.12,0.41-0.21,0.64-0.29c0.16-0.06,0.33-0.11,0.5-0.15
				C369.24,462.72,369.27,462.7,369.31,462.7z"/>
			<linearGradient id="SVGID_7_" gradientUnits="userSpaceOnUse" x1="370.4778" y1="463.5974" x2="388.7295" y2="484.5784">
				<stop  offset="0" style="stop-color:#892020"/>
				<stop  offset="0.6236" style="stop-color:#DC3333"/>
				<stop  offset="0.6479" style="stop-color:#C82F2F"/>
				<stop  offset="0.6855" style="stop-color:#B12929"/>
				<stop  offset="0.7288" style="stop-color:#9F2525"/>
				<stop  offset="0.7805" style="stop-color:#922222"/>
				<stop  offset="0.8489" style="stop-color:#8B2020"/>
				<stop  offset="1" style="stop-color:#892020"/>
			</linearGradient>
			<path class="st15" d="M384.58,476.32c0-0.13-0.01-0.27-0.02-0.4c0-0.06-0.01-0.12-0.01-0.18c0-0.03,0-0.05-0.01-0.08
				c0-0.05-0.01-0.09-0.01-0.14c-0.01-0.13-0.03-0.27-0.05-0.41c-0.02-0.14-0.04-0.28-0.06-0.42c0,0,0-0.01,0-0.01
				c0,0,0-0.01,0-0.01c-0.02-0.13-0.04-0.26-0.07-0.39c-0.03-0.14-0.06-0.29-0.09-0.43c-0.01-0.05-0.02-0.1-0.04-0.15
				c-0.01-0.03-0.01-0.06-0.02-0.09c-0.01-0.06-0.03-0.13-0.04-0.19c-0.04-0.15-0.07-0.29-0.12-0.44c-0.03-0.11-0.06-0.21-0.09-0.32
				c-0.01-0.02-0.01-0.04-0.02-0.06c-0.01-0.02-0.01-0.04-0.02-0.06c-0.04-0.14-0.09-0.29-0.14-0.43c-0.05-0.14-0.1-0.28-0.15-0.42
				c-0.01-0.03-0.02-0.05-0.03-0.08c-0.01-0.02-0.02-0.04-0.02-0.06c-0.03-0.09-0.07-0.18-0.1-0.27c-0.05-0.13-0.11-0.27-0.16-0.4
				c-0.04-0.1-0.08-0.19-0.12-0.29c-0.01-0.02-0.01-0.03-0.02-0.05c-0.01-0.02-0.02-0.04-0.02-0.06c-0.06-0.13-0.12-0.27-0.18-0.4
				c-0.07-0.15-0.14-0.29-0.21-0.44c-0.01-0.02-0.02-0.04-0.03-0.07c-0.01-0.03-0.03-0.06-0.05-0.09c-0.06-0.12-0.12-0.23-0.18-0.35
				c-0.08-0.14-0.16-0.28-0.24-0.43c-0.04-0.07-0.08-0.15-0.12-0.22c-0.02-0.03-0.03-0.06-0.05-0.09c-0.07-0.12-0.15-0.24-0.23-0.36
				c-0.11-0.18-0.22-0.36-0.33-0.53c-0.02-0.03-0.03-0.06-0.05-0.08c-0.17-0.25-0.34-0.5-0.52-0.74c0,0-0.01-0.01-0.01-0.01
				c-0.12-0.16-0.24-0.32-0.37-0.48c-0.1-0.13-0.2-0.26-0.31-0.38c0,0-0.01-0.01-0.01-0.01c0,0,0,0,0-0.01
				c-0.11-0.13-0.21-0.25-0.32-0.38c-0.11-0.12-0.21-0.24-0.32-0.36c-0.02-0.02-0.04-0.04-0.05-0.06c-0.02-0.02-0.04-0.04-0.06-0.06
				c-0.08-0.08-0.15-0.16-0.23-0.24c-0.12-0.12-0.23-0.23-0.35-0.35c-0.04-0.03-0.07-0.07-0.11-0.1c-0.03-0.03-0.05-0.05-0.08-0.08
				c-0.06-0.05-0.11-0.11-0.17-0.16c-0.12-0.11-0.24-0.22-0.37-0.32c-0.05-0.05-0.11-0.09-0.16-0.13c-0.03-0.02-0.06-0.05-0.08-0.07
				c-0.04-0.03-0.08-0.07-0.12-0.1c-0.12-0.1-0.24-0.19-0.36-0.28c-0.09-0.06-0.18-0.13-0.27-0.19c-0.02-0.01-0.03-0.02-0.05-0.04
				c-0.02-0.01-0.03-0.02-0.05-0.03c-0.12-0.08-0.23-0.16-0.35-0.23c-0.12-0.07-0.23-0.15-0.35-0.21c-0.03-0.02-0.05-0.03-0.08-0.05
				l-2.35,1.37c0.28,0.16,0.56,0.34,0.83,0.53c0.02,0.01,0.03,0.02,0.05,0.04c0.25,0.18,0.5,0.37,0.75,0.57
				c0.03,0.02,0.06,0.05,0.08,0.07c0.24,0.2,0.47,0.4,0.7,0.62c0.03,0.03,0.06,0.05,0.08,0.08c0.23,0.22,0.46,0.45,0.69,0.69
				c0.02,0.02,0.04,0.04,0.06,0.06c0.24,0.26,0.47,0.52,0.7,0.79c0,0,0.01,0.01,0.01,0.01c0.23,0.28,0.46,0.57,0.68,0.87
				c0,0,0,0,0,0c0.2,0.27,0.39,0.55,0.58,0.83c0.12,0.17,0.22,0.35,0.33,0.53c0.09,0.15,0.19,0.3,0.28,0.45
				c0.04,0.07,0.08,0.14,0.12,0.22c0.14,0.25,0.28,0.51,0.42,0.77c0.01,0.03,0.03,0.06,0.05,0.09c0.16,0.32,0.31,0.64,0.45,0.96
				c0.01,0.02,0.01,0.03,0.02,0.05c0.14,0.32,0.27,0.64,0.39,0.96c0.01,0.02,0.02,0.04,0.02,0.06c0.12,0.33,0.23,0.66,0.33,0.99
				c0.01,0.02,0.01,0.04,0.02,0.06c0.09,0.32,0.18,0.64,0.25,0.95c0.01,0.03,0.01,0.06,0.02,0.09c0.07,0.33,0.14,0.65,0.19,0.98
				c0,0,0,0.01,0,0.01c0.05,0.33,0.09,0.65,0.12,0.98c0,0.03,0,0.05,0.01,0.08c0.03,0.32,0.04,0.64,0.04,0.96
				c0,0.32-0.02,0.62-0.04,0.91c0,0.03-0.01,0.05-0.01,0.08c-0.03,0.27-0.06,0.53-0.11,0.77c-0.01,0.03-0.01,0.07-0.02,0.1
				c-0.05,0.24-0.11,0.47-0.18,0.69c-0.01,0.04-0.03,0.08-0.04,0.12c-0.07,0.21-0.15,0.4-0.23,0.59c-0.01,0.02-0.02,0.04-0.03,0.06
				c-0.1,0.21-0.21,0.42-0.33,0.6c-0.02,0.03-0.04,0.05-0.05,0.07c-0.1,0.15-0.21,0.29-0.32,0.42c-0.04,0.05-0.08,0.09-0.13,0.14
				c-0.1,0.11-0.2,0.21-0.31,0.3c-0.04,0.04-0.09,0.08-0.13,0.12c-0.15,0.12-0.31,0.24-0.48,0.33l2.35-1.37
				c0.17-0.1,0.33-0.21,0.48-0.33c0.05-0.04,0.09-0.08,0.13-0.12c0.11-0.09,0.21-0.19,0.31-0.3c0.04-0.05,0.09-0.09,0.13-0.14
				c0.11-0.13,0.22-0.27,0.32-0.42c0.02-0.02,0.04-0.05,0.05-0.07c0-0.01,0.01-0.01,0.01-0.02c0.11-0.18,0.22-0.37,0.31-0.57
				c0-0.01,0.01-0.01,0.01-0.02c0.01-0.02,0.02-0.04,0.03-0.06c0.06-0.13,0.11-0.25,0.16-0.39c0.02-0.07,0.05-0.14,0.07-0.21
				c0.01-0.04,0.03-0.08,0.04-0.12c0.01-0.04,0.03-0.07,0.04-0.11c0.04-0.14,0.08-0.28,0.11-0.42c0.01-0.05,0.02-0.1,0.03-0.16
				c0.01-0.03,0.01-0.07,0.02-0.1c0.01-0.05,0.02-0.1,0.03-0.15c0.02-0.13,0.04-0.26,0.06-0.4c0.01-0.07,0.02-0.15,0.02-0.23
				c0-0.03,0.01-0.05,0.01-0.08c0-0.03,0.01-0.06,0.01-0.09c0.01-0.13,0.02-0.26,0.02-0.39c0.01-0.13,0.01-0.27,0.01-0.4
				c0-0.01,0-0.02,0-0.02C384.59,476.57,384.59,476.45,384.58,476.32z"/>
			<g>
				<path class="st10" d="M373.96,463.74c4.58,2.64,8.28,9.06,8.27,14.32c-0.01,5.26-3.74,7.38-8.32,4.74s-8.28-9.05-8.27-14.32
					C365.66,463.22,369.38,461.1,373.96,463.74z"/>
			</g>
		</g>
		<g>
			<linearGradient id="SVGID_8_" gradientUnits="userSpaceOnUse" x1="391.9704" y1="475.0217" x2="400.2236" y2="475.0217">
				<stop  offset="0" style="stop-color:#DC3333"/>
				<stop  offset="1" style="stop-color:#892020"/>
			</linearGradient>
			<path class="st16" d="M393.21,475.23c0.2-0.04,0.41-0.06,0.62-0.08c0.04,0,0.09,0,0.13-0.01c0.21-0.01,0.41-0.01,0.63,0.01
				c0.03,0,0.05,0.01,0.08,0.01c0.22,0.02,0.45,0.06,0.69,0.11c0.02,0.01,0.05,0.01,0.07,0.02c0.24,0.05,0.48,0.12,0.73,0.2
				c0.02,0.01,0.03,0.01,0.05,0.02c0.26,0.09,0.52,0.19,0.79,0.32c0.02,0.01,0.04,0.02,0.05,0.03c0.27,0.13,0.54,0.27,0.82,0.43
				l2.35-1.37c-0.09-0.05-0.18-0.1-0.26-0.15c-0.11-0.06-0.23-0.12-0.34-0.18c-0.07-0.04-0.15-0.07-0.22-0.1
				c-0.02-0.01-0.04-0.02-0.05-0.03c-0.02-0.01-0.04-0.02-0.06-0.03c-0.11-0.05-0.22-0.1-0.33-0.14c-0.11-0.04-0.22-0.09-0.33-0.13
				c-0.02-0.01-0.04-0.01-0.06-0.02c-0.02-0.01-0.03-0.01-0.05-0.02c-0.07-0.03-0.15-0.05-0.22-0.07c-0.12-0.03-0.23-0.07-0.34-0.09
				c-0.05-0.01-0.11-0.02-0.16-0.04c-0.02-0.01-0.05-0.01-0.07-0.02c-0.04-0.01-0.07-0.02-0.11-0.02c-0.12-0.02-0.24-0.04-0.36-0.06
				c-0.07-0.01-0.15-0.02-0.22-0.02c-0.03,0-0.05-0.01-0.08-0.01c-0.02,0-0.05-0.01-0.07-0.01c-0.13-0.01-0.26-0.01-0.39-0.01
				c-0.06,0-0.11,0.01-0.17,0.01c-0.04,0-0.09,0-0.13,0.01c-0.04,0-0.09,0-0.13,0.01c-0.16,0.01-0.32,0.04-0.48,0.07
				c0,0-0.01,0-0.01,0c-0.04,0.01-0.07,0.02-0.1,0.03c-0.16,0.04-0.32,0.08-0.47,0.13c-0.01,0-0.02,0.01-0.04,0.02
				c-0.22,0.08-0.43,0.18-0.64,0.29l-2.35,1.37c0.2-0.12,0.41-0.21,0.64-0.29c0.16-0.06,0.33-0.11,0.5-0.15
				C393.15,475.25,393.18,475.24,393.21,475.23z"/>
			<linearGradient id="SVGID_9_" gradientUnits="userSpaceOnUse" x1="394.3828" y1="476.1289" x2="412.6346" y2="497.1099">
				<stop  offset="0" style="stop-color:#892020"/>
				<stop  offset="0.6236" style="stop-color:#DC3333"/>
				<stop  offset="0.6479" style="stop-color:#C82F2F"/>
				<stop  offset="0.6855" style="stop-color:#B12929"/>
				<stop  offset="0.7288" style="stop-color:#9F2525"/>
				<stop  offset="0.7805" style="stop-color:#922222"/>
				<stop  offset="0.8489" style="stop-color:#8B2020"/>
				<stop  offset="1" style="stop-color:#892020"/>
			</linearGradient>
			<path class="st17" d="M408.49,488.86c0-0.13-0.01-0.27-0.02-0.4c0-0.06-0.01-0.12-0.01-0.18c0-0.03,0-0.05-0.01-0.08
				c0-0.05-0.01-0.09-0.01-0.14c-0.01-0.13-0.03-0.27-0.05-0.41c-0.02-0.14-0.04-0.28-0.06-0.42c0,0,0-0.01,0-0.01
				c0,0,0-0.01,0-0.01c-0.02-0.13-0.04-0.26-0.07-0.39c-0.03-0.14-0.06-0.29-0.09-0.43c-0.01-0.05-0.02-0.1-0.04-0.15
				c-0.01-0.03-0.01-0.06-0.02-0.09c-0.01-0.06-0.03-0.13-0.04-0.19c-0.04-0.15-0.07-0.29-0.12-0.44c-0.03-0.11-0.06-0.21-0.09-0.32
				c-0.01-0.02-0.01-0.04-0.02-0.06c-0.01-0.02-0.01-0.04-0.02-0.06c-0.04-0.14-0.09-0.29-0.14-0.43c-0.05-0.14-0.1-0.28-0.15-0.42
				c-0.01-0.03-0.02-0.05-0.03-0.08c-0.01-0.02-0.02-0.04-0.02-0.06c-0.03-0.09-0.07-0.18-0.1-0.27c-0.05-0.13-0.11-0.27-0.16-0.4
				c-0.04-0.1-0.08-0.19-0.12-0.29c-0.01-0.02-0.01-0.03-0.02-0.05c-0.01-0.02-0.02-0.04-0.02-0.06c-0.06-0.13-0.12-0.27-0.18-0.4
				c-0.07-0.15-0.14-0.29-0.21-0.44c-0.01-0.02-0.02-0.04-0.03-0.07c-0.01-0.03-0.03-0.06-0.05-0.09c-0.06-0.12-0.12-0.23-0.18-0.35
				c-0.08-0.14-0.16-0.28-0.24-0.43c-0.04-0.07-0.08-0.15-0.12-0.22c-0.02-0.03-0.03-0.06-0.05-0.09c-0.07-0.12-0.15-0.24-0.23-0.36
				c-0.11-0.18-0.22-0.36-0.33-0.53c-0.02-0.03-0.03-0.06-0.05-0.08c-0.17-0.25-0.34-0.5-0.52-0.74c0,0-0.01-0.01-0.01-0.01
				c-0.12-0.16-0.24-0.32-0.37-0.48c-0.1-0.13-0.2-0.26-0.31-0.38c0,0-0.01-0.01-0.01-0.01c0,0,0,0,0-0.01
				c-0.11-0.13-0.21-0.25-0.32-0.38c-0.11-0.12-0.21-0.24-0.32-0.36c-0.02-0.02-0.04-0.04-0.05-0.06c-0.02-0.02-0.04-0.04-0.06-0.06
				c-0.08-0.08-0.15-0.16-0.23-0.24c-0.12-0.12-0.23-0.23-0.35-0.35c-0.04-0.03-0.07-0.07-0.11-0.1c-0.03-0.03-0.05-0.05-0.08-0.08
				c-0.06-0.05-0.11-0.11-0.17-0.16c-0.12-0.11-0.24-0.22-0.37-0.32c-0.05-0.05-0.11-0.09-0.16-0.13c-0.03-0.02-0.06-0.05-0.08-0.07
				c-0.04-0.03-0.08-0.07-0.12-0.1c-0.12-0.1-0.24-0.19-0.36-0.28c-0.09-0.06-0.18-0.13-0.27-0.19c-0.02-0.01-0.03-0.02-0.05-0.04
				c-0.02-0.01-0.03-0.02-0.05-0.03c-0.12-0.08-0.23-0.16-0.35-0.23c-0.12-0.07-0.23-0.15-0.35-0.21c-0.03-0.02-0.05-0.03-0.08-0.05
				l-2.35,1.37c0.28,0.16,0.56,0.34,0.83,0.53c0.02,0.01,0.03,0.02,0.05,0.04c0.25,0.18,0.5,0.37,0.75,0.57
				c0.03,0.02,0.06,0.05,0.08,0.07c0.24,0.2,0.47,0.4,0.7,0.62c0.03,0.03,0.06,0.05,0.08,0.08c0.23,0.22,0.46,0.45,0.69,0.69
				c0.02,0.02,0.04,0.04,0.06,0.06c0.24,0.26,0.47,0.52,0.7,0.79c0,0,0.01,0.01,0.01,0.01c0.23,0.28,0.46,0.57,0.68,0.87
				c0,0,0,0,0,0c0.2,0.27,0.39,0.55,0.58,0.83c0.12,0.17,0.22,0.35,0.33,0.53c0.09,0.15,0.19,0.3,0.28,0.45
				c0.04,0.07,0.08,0.14,0.12,0.22c0.14,0.25,0.28,0.51,0.42,0.77c0.01,0.03,0.03,0.06,0.05,0.09c0.16,0.32,0.31,0.64,0.45,0.96
				c0.01,0.02,0.01,0.03,0.02,0.05c0.14,0.32,0.27,0.64,0.39,0.96c0.01,0.02,0.02,0.04,0.02,0.06c0.12,0.33,0.23,0.66,0.33,0.99
				c0.01,0.02,0.01,0.04,0.02,0.06c0.09,0.32,0.18,0.64,0.25,0.95c0.01,0.03,0.01,0.06,0.02,0.09c0.07,0.33,0.14,0.65,0.19,0.98
				c0,0,0,0.01,0,0.01c0.05,0.33,0.09,0.65,0.12,0.98c0,0.03,0,0.05,0.01,0.08c0.03,0.32,0.04,0.64,0.04,0.96
				c0,0.32-0.02,0.62-0.04,0.91c0,0.03-0.01,0.05-0.01,0.08c-0.03,0.27-0.06,0.53-0.11,0.77c-0.01,0.03-0.01,0.07-0.02,0.1
				c-0.05,0.24-0.11,0.47-0.18,0.69c-0.01,0.04-0.03,0.08-0.04,0.12c-0.07,0.21-0.15,0.4-0.23,0.59c-0.01,0.02-0.02,0.04-0.03,0.06
				c-0.1,0.21-0.21,0.42-0.33,0.6c-0.02,0.03-0.04,0.05-0.05,0.07c-0.1,0.15-0.21,0.29-0.32,0.42c-0.04,0.05-0.08,0.09-0.13,0.14
				c-0.1,0.11-0.2,0.21-0.31,0.3c-0.04,0.04-0.09,0.08-0.13,0.12c-0.15,0.12-0.31,0.24-0.48,0.33l2.35-1.37
				c0.17-0.1,0.33-0.21,0.48-0.33c0.05-0.04,0.09-0.08,0.13-0.12c0.11-0.09,0.21-0.19,0.31-0.3c0.04-0.05,0.09-0.09,0.13-0.14
				c0.11-0.13,0.22-0.27,0.32-0.42c0.02-0.02,0.04-0.05,0.05-0.07c0-0.01,0.01-0.01,0.01-0.02c0.11-0.18,0.22-0.37,0.31-0.57
				c0-0.01,0.01-0.01,0.01-0.02c0.01-0.02,0.02-0.04,0.03-0.06c0.06-0.13,0.11-0.25,0.16-0.39c0.02-0.07,0.05-0.14,0.07-0.21
				c0.01-0.04,0.03-0.08,0.04-0.12c0.01-0.04,0.03-0.07,0.04-0.11c0.04-0.14,0.08-0.28,0.11-0.42c0.01-0.05,0.02-0.1,0.03-0.16
				c0.01-0.03,0.01-0.07,0.02-0.1c0.01-0.05,0.02-0.1,0.03-0.15c0.02-0.13,0.04-0.26,0.06-0.4c0.01-0.07,0.02-0.15,0.02-0.23
				c0-0.03,0.01-0.05,0.01-0.08c0-0.03,0.01-0.06,0.01-0.09c0.01-0.13,0.02-0.26,0.02-0.39c0.01-0.13,0.01-0.27,0.01-0.4
				c0-0.01,0-0.02,0-0.02C408.49,489.11,408.49,488.98,408.49,488.86z"/>
			<g>
				<path class="st5" d="M397.87,476.27c4.58,2.64,8.28,9.06,8.27,14.32c-0.01,5.26-3.74,7.38-8.32,4.74
					c-4.58-2.64-8.28-9.05-8.27-14.32S393.29,473.63,397.87,476.27z"/>
			</g>
		</g>
		<g>
			<linearGradient id="SVGID_10_" gradientUnits="userSpaceOnUse" x1="417.0334" y1="489.1196" x2="425.2866" y2="489.1196">
				<stop  offset="0" style="stop-color:#DC3333"/>
				<stop  offset="1" style="stop-color:#892020"/>
			</linearGradient>
			<path class="st18" d="M418.28,489.33c0.2-0.04,0.41-0.06,0.62-0.08c0.04,0,0.09,0,0.13-0.01c0.21-0.01,0.41-0.01,0.63,0.01
				c0.03,0,0.05,0.01,0.08,0.01c0.22,0.02,0.45,0.06,0.69,0.11c0.02,0.01,0.05,0.01,0.07,0.02c0.24,0.05,0.48,0.12,0.73,0.2
				c0.02,0.01,0.03,0.01,0.05,0.02c0.26,0.09,0.52,0.19,0.79,0.32c0.02,0.01,0.04,0.02,0.05,0.03c0.27,0.13,0.54,0.27,0.82,0.43
				l2.35-1.37c-0.09-0.05-0.18-0.1-0.26-0.15c-0.11-0.06-0.23-0.12-0.34-0.18c-0.07-0.04-0.15-0.07-0.22-0.1
				c-0.02-0.01-0.04-0.02-0.05-0.03c-0.02-0.01-0.04-0.02-0.06-0.03c-0.11-0.05-0.22-0.1-0.33-0.14c-0.11-0.04-0.22-0.09-0.33-0.13
				c-0.02-0.01-0.04-0.01-0.06-0.02c-0.02-0.01-0.03-0.01-0.05-0.02c-0.07-0.03-0.15-0.05-0.22-0.07c-0.12-0.03-0.23-0.07-0.34-0.09
				c-0.05-0.01-0.11-0.02-0.16-0.04c-0.02-0.01-0.05-0.01-0.07-0.02c-0.04-0.01-0.07-0.02-0.11-0.02c-0.12-0.02-0.24-0.04-0.36-0.06
				c-0.07-0.01-0.15-0.02-0.22-0.02c-0.03,0-0.05-0.01-0.08-0.01c-0.02,0-0.05-0.01-0.07-0.01c-0.13-0.01-0.26-0.01-0.39-0.01
				c-0.06,0-0.11,0.01-0.17,0.01c-0.04,0-0.09,0-0.13,0.01c-0.04,0-0.09,0-0.13,0.01c-0.16,0.01-0.32,0.04-0.48,0.07
				c0,0-0.01,0-0.01,0c-0.04,0.01-0.07,0.02-0.1,0.03c-0.16,0.04-0.32,0.08-0.47,0.13c-0.01,0-0.02,0.01-0.04,0.02
				c-0.22,0.08-0.43,0.18-0.64,0.29l-2.35,1.37c0.2-0.12,0.41-0.21,0.64-0.29c0.16-0.06,0.33-0.11,0.5-0.15
				C418.21,489.35,418.24,489.33,418.28,489.33z"/>
			<linearGradient id="SVGID_11_" gradientUnits="userSpaceOnUse" x1="419.4459" y1="490.2269" x2="437.6976" y2="511.2079">
				<stop  offset="0" style="stop-color:#892020"/>
				<stop  offset="0.6236" style="stop-color:#DC3333"/>
				<stop  offset="0.6479" style="stop-color:#C82F2F"/>
				<stop  offset="0.6855" style="stop-color:#B12929"/>
				<stop  offset="0.7288" style="stop-color:#9F2525"/>
				<stop  offset="0.7805" style="stop-color:#922222"/>
				<stop  offset="0.8489" style="stop-color:#8B2020"/>
				<stop  offset="1" style="stop-color:#892020"/>
			</linearGradient>
			<path class="st19" d="M433.55,502.95c0-0.13-0.01-0.27-0.02-0.4c0-0.06-0.01-0.12-0.01-0.18c0-0.03,0-0.05-0.01-0.08
				c0-0.05-0.01-0.09-0.01-0.14c-0.01-0.13-0.03-0.27-0.05-0.41c-0.02-0.14-0.04-0.28-0.06-0.42c0,0,0-0.01,0-0.01
				c0,0,0-0.01,0-0.01c-0.02-0.13-0.04-0.26-0.07-0.39c-0.03-0.14-0.06-0.29-0.09-0.43c-0.01-0.05-0.02-0.1-0.04-0.15
				c-0.01-0.03-0.01-0.06-0.02-0.09c-0.01-0.06-0.03-0.13-0.04-0.19c-0.04-0.15-0.07-0.29-0.12-0.44c-0.03-0.11-0.06-0.21-0.09-0.32
				c-0.01-0.02-0.01-0.04-0.02-0.06c-0.01-0.02-0.01-0.04-0.02-0.06c-0.04-0.14-0.09-0.29-0.14-0.43c-0.05-0.14-0.1-0.28-0.15-0.42
				c-0.01-0.03-0.02-0.05-0.03-0.08c-0.01-0.02-0.02-0.04-0.02-0.06c-0.03-0.09-0.07-0.18-0.1-0.27c-0.05-0.13-0.11-0.27-0.16-0.4
				c-0.04-0.1-0.08-0.19-0.12-0.29c-0.01-0.02-0.01-0.03-0.02-0.05c-0.01-0.02-0.02-0.04-0.02-0.06c-0.06-0.13-0.12-0.27-0.18-0.4
				c-0.07-0.15-0.14-0.29-0.21-0.44c-0.01-0.02-0.02-0.04-0.03-0.07c-0.01-0.03-0.03-0.06-0.05-0.09c-0.06-0.12-0.12-0.23-0.18-0.35
				c-0.08-0.14-0.16-0.28-0.24-0.43c-0.04-0.07-0.08-0.15-0.12-0.22c-0.02-0.03-0.03-0.06-0.05-0.09c-0.07-0.12-0.15-0.24-0.23-0.36
				c-0.11-0.18-0.22-0.36-0.33-0.53c-0.02-0.03-0.03-0.06-0.05-0.08c-0.17-0.25-0.34-0.5-0.52-0.74c0,0-0.01-0.01-0.01-0.01
				c-0.12-0.16-0.24-0.32-0.37-0.48c-0.1-0.13-0.2-0.26-0.31-0.38c0,0-0.01-0.01-0.01-0.01c0,0,0,0,0-0.01
				c-0.11-0.13-0.21-0.25-0.32-0.38c-0.11-0.12-0.21-0.24-0.32-0.36c-0.02-0.02-0.04-0.04-0.05-0.06c-0.02-0.02-0.04-0.04-0.06-0.06
				c-0.08-0.08-0.15-0.16-0.23-0.24c-0.12-0.12-0.23-0.23-0.35-0.35c-0.04-0.03-0.07-0.07-0.11-0.1c-0.03-0.03-0.05-0.05-0.08-0.08
				c-0.06-0.05-0.11-0.11-0.17-0.16c-0.12-0.11-0.24-0.22-0.37-0.32c-0.05-0.05-0.11-0.09-0.16-0.13c-0.03-0.02-0.06-0.05-0.08-0.07
				c-0.04-0.03-0.08-0.07-0.12-0.1c-0.12-0.1-0.24-0.19-0.36-0.28c-0.09-0.06-0.18-0.13-0.27-0.19c-0.02-0.01-0.03-0.02-0.05-0.04
				c-0.02-0.01-0.03-0.02-0.05-0.03c-0.12-0.08-0.23-0.16-0.35-0.23c-0.12-0.07-0.23-0.15-0.35-0.21c-0.03-0.02-0.05-0.03-0.08-0.05
				l-2.35,1.37c0.28,0.16,0.56,0.34,0.83,0.53c0.02,0.01,0.03,0.02,0.05,0.04c0.25,0.18,0.5,0.37,0.75,0.57
				c0.03,0.02,0.06,0.05,0.08,0.07c0.24,0.2,0.47,0.4,0.7,0.62c0.03,0.03,0.06,0.05,0.08,0.08c0.23,0.22,0.46,0.45,0.69,0.69
				c0.02,0.02,0.04,0.04,0.06,0.06c0.24,0.26,0.47,0.52,0.7,0.79c0,0,0.01,0.01,0.01,0.01c0.23,0.28,0.46,0.57,0.68,0.87
				c0,0,0,0,0,0c0.2,0.27,0.39,0.55,0.58,0.83c0.12,0.17,0.22,0.35,0.33,0.53c0.09,0.15,0.19,0.3,0.28,0.45
				c0.04,0.07,0.08,0.14,0.12,0.22c0.14,0.25,0.28,0.51,0.42,0.77c0.01,0.03,0.03,0.06,0.05,0.09c0.16,0.32,0.31,0.64,0.45,0.96
				c0.01,0.02,0.01,0.03,0.02,0.05c0.14,0.32,0.27,0.64,0.39,0.96c0.01,0.02,0.02,0.04,0.02,0.06c0.12,0.33,0.23,0.66,0.33,0.99
				c0.01,0.02,0.01,0.04,0.02,0.06c0.09,0.32,0.18,0.64,0.25,0.95c0.01,0.03,0.01,0.06,0.02,0.09c0.07,0.33,0.14,0.65,0.19,0.98
				c0,0,0,0.01,0,0.01c0.05,0.33,0.09,0.65,0.12,0.98c0,0.03,0,0.05,0.01,0.08c0.03,0.32,0.04,0.64,0.04,0.96
				c0,0.32-0.02,0.62-0.04,0.91c0,0.03-0.01,0.05-0.01,0.08c-0.03,0.27-0.06,0.53-0.11,0.77c-0.01,0.03-0.01,0.07-0.02,0.1
				c-0.05,0.24-0.11,0.47-0.18,0.69c-0.01,0.04-0.03,0.08-0.04,0.12c-0.07,0.21-0.15,0.4-0.23,0.59c-0.01,0.02-0.02,0.04-0.03,0.06
				c-0.1,0.21-0.21,0.42-0.33,0.6c-0.02,0.03-0.04,0.05-0.05,0.07c-0.1,0.15-0.21,0.29-0.32,0.42c-0.04,0.05-0.08,0.09-0.13,0.14
				c-0.1,0.11-0.2,0.21-0.31,0.3c-0.04,0.04-0.09,0.08-0.13,0.12c-0.15,0.12-0.31,0.24-0.48,0.33l2.35-1.37
				c0.17-0.1,0.33-0.21,0.48-0.33c0.05-0.04,0.09-0.08,0.13-0.12c0.11-0.09,0.21-0.19,0.31-0.3c0.04-0.05,0.09-0.09,0.13-0.14
				c0.11-0.13,0.22-0.27,0.32-0.42c0.02-0.02,0.04-0.05,0.05-0.07c0-0.01,0.01-0.01,0.01-0.02c0.11-0.18,0.22-0.37,0.31-0.57
				c0-0.01,0.01-0.01,0.01-0.02c0.01-0.02,0.02-0.04,0.03-0.06c0.06-0.13,0.11-0.25,0.16-0.39c0.02-0.07,0.05-0.14,0.07-0.21
				c0.01-0.04,0.03-0.08,0.04-0.12c0.01-0.04,0.03-0.07,0.04-0.11c0.04-0.14,0.08-0.28,0.11-0.42c0.01-0.05,0.02-0.1,0.03-0.16
				c0.01-0.03,0.01-0.07,0.02-0.1c0.01-0.05,0.02-0.1,0.03-0.15c0.02-0.13,0.04-0.26,0.06-0.4c0.01-0.07,0.02-0.15,0.02-0.23
				c0-0.03,0.01-0.05,0.01-0.08c0-0.03,0.01-0.06,0.01-0.09c0.01-0.13,0.02-0.26,0.02-0.39c0.01-0.13,0.01-0.27,0.01-0.4
				c0-0.01,0-0.02,0-0.02C433.56,503.2,433.55,503.08,433.55,502.95z"/>
			<g>
				<path class="st7" d="M422.93,490.37c4.58,2.64,8.28,9.06,8.27,14.32s-3.74,7.38-8.32,4.74c-4.58-2.64-8.28-9.05-8.27-14.32
					C414.63,489.85,418.35,487.73,422.93,490.37z"/>
			</g>
		</g>
	</g>
</g>
</svg>
