<?xml version="1.0" encoding="utf-8"?>
<!-- Generator: Adobe Illustrator 23.0.0, SVG Export Plug-In . SVG Version: 6.00 Build 0)  -->
<svg version="1.1" id="Layer_1" xmlns="http://www.w3.org/2000/svg" xmlns:xlink="http://www.w3.org/1999/xlink" x="0px" y="0px"
	 viewBox="0 0 1000 1000" style="enable-background:new 0 0 1000 1000;" xml:space="preserve">
<style type="text/css">
	.st0{clip-path:url(#SVGID_2_);fill:#2A2939;}
	.st1{opacity:0.15;}
	.st2{clip-path:url(#SVGID_4_);}
	.st3{fill:none;stroke:#77DFF7;stroke-width:0.5;stroke-miterlimit:10;}
	.st4{fill:url(#SVGID_5_);}
	.st5{fill:#BFE8E8;}
	.st6{fill:#1B6D8D;}
	.st7{fill:#D4FBFC;}
	.st8{opacity:0.59;fill:#D4FBFC;}
	.st9{fill:#B52828;}
	.st10{fill:#134C62;}
	.st11{fill:#DC3333;}
</style>
<g>
	<defs>
		<rect id="SVGID_1_" width="1000" height="1000"/>
	</defs>
	<clipPath id="SVGID_2_">
		<use xlink:href="#SVGID_1_"  style="overflow:visible;"/>
	</clipPath>
	<rect x="-80" y="-84" class="st0" width="1196" height="1196"/>
</g>
<g class="st1">
	<defs>
		<rect id="SVGID_3_" class="st1" width="1000" height="1000"/>
	</defs>
	<clipPath id="SVGID_4_">
		<use xlink:href="#SVGID_3_"  style="overflow:visible;"/>
	</clipPath>
	<g class="st2">
		<polygon class="st3" points="500,1360.19 1989.9,500 500,-360.19 -989.9,500 		"/>
		<line class="st3" x1="-960.69" y1="516.87" x2="529.22" y2="-343.33"/>
		<line class="st3" x1="-931.47" y1="533.74" x2="558.43" y2="-326.46"/>
		<line class="st3" x1="-902.26" y1="550.6" x2="587.65" y2="-309.59"/>
		<line class="st3" x1="-873.05" y1="567.47" x2="616.86" y2="-292.73"/>
		<line class="st3" x1="-843.83" y1="584.34" x2="646.07" y2="-275.86"/>
		<line class="st3" x1="-814.62" y1="601.2" x2="675.29" y2="-259"/>
		<line class="st3" x1="-785.4" y1="618.07" x2="704.5" y2="-242.13"/>
		<line class="st3" x1="-756.19" y1="634.93" x2="733.71" y2="-225.26"/>
		<line class="st3" x1="-726.98" y1="651.8" x2="762.93" y2="-208.4"/>
		<line class="st3" x1="-697.76" y1="668.67" x2="792.14" y2="-191.53"/>
		<line class="st3" x1="-668.55" y1="685.53" x2="821.35" y2="-174.66"/>
		<line class="st3" x1="-639.34" y1="702.4" x2="850.57" y2="-157.8"/>
		<line class="st3" x1="-610.12" y1="719.27" x2="879.78" y2="-140.93"/>
		<line class="st3" x1="-580.91" y1="736.13" x2="909" y2="-124.06"/>
		<line class="st3" x1="-551.7" y1="753" x2="938.21" y2="-107.2"/>
		<line class="st3" x1="-522.48" y1="769.87" x2="967.42" y2="-90.33"/>
		<line class="st3" x1="-493.27" y1="786.73" x2="996.64" y2="-73.46"/>
		<line class="st3" x1="-464.05" y1="803.6" x2="1025.85" y2="-56.6"/>
		<line class="st3" x1="-434.84" y1="820.47" x2="1055.06" y2="-39.73"/>
		<line class="st3" x1="-405.63" y1="837.33" x2="1084.28" y2="-22.86"/>
		<line class="st3" x1="-376.41" y1="854.2" x2="1113.49" y2="-6"/>
		<line class="st3" x1="-347.2" y1="871.07" x2="1142.7" y2="10.87"/>
		<line class="st3" x1="-317.99" y1="887.93" x2="1171.92" y2="27.74"/>
		<line class="st3" x1="-288.77" y1="904.8" x2="1201.13" y2="44.6"/>
		<line class="st3" x1="-259.56" y1="921.67" x2="1230.35" y2="61.47"/>
		<line class="st3" x1="-230.35" y1="938.53" x2="1259.56" y2="78.33"/>
		<line class="st3" x1="-201.13" y1="955.4" x2="1288.77" y2="95.2"/>
		<line class="st3" x1="-171.92" y1="972.26" x2="1317.99" y2="112.07"/>
		<line class="st3" x1="-142.7" y1="989.13" x2="1347.2" y2="128.93"/>
		<line class="st3" x1="-113.49" y1="1006" x2="1376.41" y2="145.8"/>
		<line class="st3" x1="-84.28" y1="1022.86" x2="1405.63" y2="162.67"/>
		<line class="st3" x1="-55.06" y1="1039.73" x2="1434.84" y2="179.53"/>
		<line class="st3" x1="-25.85" y1="1056.6" x2="1464.05" y2="196.4"/>
		<line class="st3" x1="3.36" y1="1073.46" x2="1493.27" y2="213.27"/>
		<line class="st3" x1="32.58" y1="1090.33" x2="1522.48" y2="230.13"/>
		<line class="st3" x1="61.79" y1="1107.2" x2="1551.7" y2="247"/>
		<line class="st3" x1="91" y1="1124.06" x2="1580.91" y2="263.87"/>
		<line class="st3" x1="120.22" y1="1140.93" x2="1610.12" y2="280.73"/>
		<line class="st3" x1="149.43" y1="1157.8" x2="1639.34" y2="297.6"/>
		<line class="st3" x1="178.65" y1="1174.66" x2="1668.55" y2="314.47"/>
		<line class="st3" x1="207.86" y1="1191.53" x2="1697.76" y2="331.33"/>
		<line class="st3" x1="237.07" y1="1208.4" x2="1726.98" y2="348.2"/>
		<line class="st3" x1="266.29" y1="1225.26" x2="1756.19" y2="365.07"/>
		<line class="st3" x1="295.5" y1="1242.13" x2="1785.4" y2="381.93"/>
		<line class="st3" x1="324.71" y1="1259" x2="1814.62" y2="398.8"/>
		<line class="st3" x1="353.93" y1="1275.86" x2="1843.83" y2="415.66"/>
		<line class="st3" x1="383.14" y1="1292.73" x2="1873.05" y2="432.53"/>
		<line class="st3" x1="412.35" y1="1309.59" x2="1902.26" y2="449.4"/>
		<line class="st3" x1="441.57" y1="1326.46" x2="1931.47" y2="466.26"/>
		<line class="st3" x1="470.78" y1="1343.33" x2="1960.69" y2="483.13"/>
		<line class="st3" x1="1960.69" y1="516.86" x2="470.79" y2="-343.33"/>
		<line class="st3" x1="1931.47" y1="533.73" x2="441.58" y2="-326.46"/>
		<line class="st3" x1="1902.26" y1="550.6" x2="412.36" y2="-309.59"/>
		<line class="st3" x1="1873.04" y1="567.46" x2="383.15" y2="-292.73"/>
		<line class="st3" x1="1843.83" y1="584.33" x2="353.94" y2="-275.86"/>
		<line class="st3" x1="1814.62" y1="601.2" x2="324.72" y2="-258.99"/>
		<line class="st3" x1="1785.4" y1="618.06" x2="295.51" y2="-242.13"/>
		<line class="st3" x1="1756.19" y1="634.93" x2="266.29" y2="-225.26"/>
		<line class="st3" x1="1726.98" y1="651.8" x2="237.08" y2="-208.39"/>
		<line class="st3" x1="1697.76" y1="668.66" x2="207.87" y2="-191.53"/>
		<line class="st3" x1="1668.55" y1="685.53" x2="178.65" y2="-174.66"/>
		<line class="st3" x1="1639.33" y1="702.4" x2="149.44" y2="-157.8"/>
		<line class="st3" x1="1610.12" y1="719.26" x2="120.22" y2="-140.93"/>
		<line class="st3" x1="1580.91" y1="736.13" x2="91.01" y2="-124.06"/>
		<line class="st3" x1="1551.69" y1="753" x2="61.8" y2="-107.2"/>
		<line class="st3" x1="1522.48" y1="769.86" x2="32.58" y2="-90.33"/>
		<line class="st3" x1="1493.27" y1="786.73" x2="3.37" y2="-73.46"/>
		<line class="st3" x1="1464.05" y1="803.6" x2="-25.84" y2="-56.6"/>
		<line class="st3" x1="1434.84" y1="820.46" x2="-55.06" y2="-39.73"/>
		<line class="st3" x1="1405.62" y1="837.33" x2="-84.27" y2="-22.86"/>
		<line class="st3" x1="1376.41" y1="854.2" x2="-113.49" y2="-6"/>
		<line class="st3" x1="1347.2" y1="871.06" x2="-142.7" y2="10.87"/>
		<line class="st3" x1="1317.98" y1="887.93" x2="-171.91" y2="27.74"/>
		<line class="st3" x1="1288.77" y1="904.8" x2="-201.13" y2="44.6"/>
		<line class="st3" x1="1259.55" y1="921.66" x2="-230.34" y2="61.47"/>
		<line class="st3" x1="1230.34" y1="938.53" x2="-259.55" y2="78.34"/>
		<line class="st3" x1="1201.13" y1="955.4" x2="-288.77" y2="95.2"/>
		<line class="st3" x1="1171.91" y1="972.26" x2="-317.98" y2="112.07"/>
		<line class="st3" x1="1142.7" y1="989.13" x2="-347.2" y2="128.94"/>
		<polyline class="st3" points="1113.49,1006 237.08,500 -376.41,145.8 		"/>
		<line class="st3" x1="1084.27" y1="1022.86" x2="-405.62" y2="162.67"/>
		<line class="st3" x1="1055.06" y1="1039.73" x2="-434.84" y2="179.54"/>
		<line class="st3" x1="1025.84" y1="1056.6" x2="-464.05" y2="196.4"/>
		<line class="st3" x1="996.63" y1="1073.46" x2="-493.27" y2="213.27"/>
		<line class="st3" x1="967.42" y1="1090.33" x2="-522.48" y2="230.14"/>
		<line class="st3" x1="938.2" y1="1107.2" x2="-551.69" y2="247"/>
		<line class="st3" x1="908.99" y1="1124.06" x2="-580.91" y2="263.87"/>
		<line class="st3" x1="879.78" y1="1140.93" x2="-610.12" y2="280.74"/>
		<line class="st3" x1="850.56" y1="1157.8" x2="-639.33" y2="297.6"/>
		<line class="st3" x1="821.35" y1="1174.66" x2="-668.55" y2="314.47"/>
		<line class="st3" x1="792.13" y1="1191.53" x2="-697.76" y2="331.34"/>
		<line class="st3" x1="762.92" y1="1208.39" x2="-726.98" y2="348.2"/>
		<line class="st3" x1="733.71" y1="1225.26" x2="-756.19" y2="365.07"/>
		<line class="st3" x1="704.49" y1="1242.13" x2="-785.4" y2="381.94"/>
		<line class="st3" x1="675.28" y1="1258.99" x2="-814.62" y2="398.8"/>
		<line class="st3" x1="646.06" y1="1275.86" x2="-843.83" y2="415.67"/>
		<line class="st3" x1="616.85" y1="1292.73" x2="-873.04" y2="432.54"/>
		<line class="st3" x1="587.64" y1="1309.59" x2="-902.26" y2="449.4"/>
		<line class="st3" x1="558.42" y1="1326.46" x2="-931.47" y2="466.27"/>
		<line class="st3" x1="529.21" y1="1343.33" x2="-960.69" y2="483.14"/>
	</g>
</g>
<g>
	<radialGradient id="SVGID_5_" cx="500" cy="549.0748" r="197.8188" gradientUnits="userSpaceOnUse">
		<stop  offset="1.198083e-07" style="stop-color:#2A2939"/>
		<stop  offset="0.8917" style="stop-color:#2A2939;stop-opacity:0.1083"/>
		<stop  offset="1" style="stop-color:#2A2939;stop-opacity:0"/>
	</radialGradient>
	<ellipse class="st4" cx="500" cy="549.07" rx="242.28" ry="139.88"/>
	<g>
		<polygon class="st5" points="321.47,543.1 373.24,311.05 614.21,452.06 561.55,681.43 		"/>
		<polygon class="st6" points="339.98,535.1 384.39,337.82 591.11,457 545.93,653.77 		"/>
		<g>
			<polygon class="st7" points="384.61,404.61 390.49,378.49 417.86,394.27 411.88,420.32 			"/>
			<polygon class="st7" points="375.68,442.09 381.56,415.97 408.94,431.75 402.96,457.81 			"/>
			<polygon class="st7" points="364.97,479.58 370.85,453.46 398.23,469.24 392.25,495.29 			"/>
			<polygon class="st7" points="356.05,517.06 361.93,490.94 389.3,506.72 383.32,532.78 			"/>
		</g>
		<g>
			<polygon class="st7" points="423.88,426.03 429.76,399.91 457.13,415.69 451.15,441.74 			"/>
			<polygon class="st8" points="414.95,463.51 420.83,437.39 448.21,453.17 442.23,479.23 			"/>
			<polygon class="st7" points="404.24,501 410.12,474.88 437.5,490.66 431.52,516.71 			"/>
			<polygon class="st7" points="395.32,538.48 401.2,512.36 428.57,528.14 422.59,554.2 			"/>
		</g>
		<g>
			<polygon class="st7" points="463.15,447.45 469.03,421.33 496.4,437.11 490.42,463.16 			"/>
			<polygon class="st7" points="454.22,484.93 460.1,458.81 487.48,474.59 481.5,500.65 			"/>
			<polygon class="st7" points="443.51,522.42 449.39,496.3 476.77,512.08 470.79,538.13 			"/>
			<polygon class="st7" points="434.59,559.9 440.47,533.78 467.84,549.56 461.86,575.62 			"/>
		</g>
		<g>
			<polygon class="st7" points="502.42,468.87 508.3,442.75 535.67,458.53 529.69,484.58 			"/>
			<polygon class="st7" points="493.49,506.35 499.37,480.23 526.75,496.01 520.77,522.07 			"/>
			<polygon class="st7" points="482.78,543.84 488.66,517.72 516.04,533.5 510.06,559.55 			"/>
			<polygon class="st8" points="473.86,581.32 479.74,555.2 507.11,570.98 501.13,597.04 			"/>
		</g>
		<g>
			<polygon class="st7" points="541.69,490.29 547.57,464.17 574.94,479.95 568.96,506 			"/>
			<polygon class="st7" points="532.76,527.77 538.64,501.65 566.02,517.43 560.04,543.49 			"/>
			<polygon class="st7" points="522.05,565.26 527.93,539.14 555.31,554.92 549.33,580.97 			"/>
			<polygon class="st7" points="513.13,602.74 519.01,576.62 546.38,592.4 540.4,618.46 			"/>
		</g>
		<g>
			<ellipse class="st9" cx="409.83" cy="365.49" rx="1.79" ry="5.36"/>
			<ellipse class="st9" cx="461.59" cy="395.83" rx="1.79" ry="5.36"/>
			<ellipse class="st9" cx="515.14" cy="426.18" rx="1.79" ry="5.36"/>
			<ellipse class="st9" cx="570.48" cy="458.31" rx="1.79" ry="5.36"/>
		</g>
		<polygon class="st6" points="615.1,451.17 665.08,622.53 561.55,681.43 		"/>
		<path class="st10" d="M662.06,613.94L615.1,452.95l-31.17,134.04C610.64,596.65,633.85,603.79,662.06,613.94z"/>
		<g>
			<path class="st7" d="M613.65,463.01l46.11,158.09l-95.51,54.34L613.65,463.01 M613.32,451.17l-53.55,230.27l103.53-58.91
				L613.32,451.17L613.32,451.17z"/>
		</g>
		<g>
			<path class="st11" d="M410.53,364.98c-10.78-6.75-11.4-22.53-4.58-32.35c10.19-14.67,25.27-4.06,26.62,10.3
				c0.32,3.4,5.68,3.43,5.36,0c-1.49-15.83-16.54-30.7-31.75-18.36c-13.68,11.11-13.59,35.5,1.64,45.03
				C410.76,371.44,413.45,366.81,410.53,364.98L410.53,364.98z"/>
		</g>
		<g>
			<path class="st11" d="M462.3,395.33c-10.78-6.75-11.4-22.53-4.58-32.35c10.19-14.67,25.27-4.06,26.62,10.3
				c0.32,3.4,5.68,3.43,5.36,0c-1.49-15.83-16.54-30.7-31.75-18.36c-13.68,11.11-13.59,35.5,1.64,45.03
				C462.52,401.79,465.21,397.16,462.3,395.33L462.3,395.33z"/>
		</g>
		<g>
			<path class="st11" d="M515.85,425.68c-10.78-6.75-11.4-22.53-4.58-32.35c10.19-14.67,25.27-4.06,26.62,10.3
				c0.32,3.4,5.68,3.43,5.36,0c-1.49-15.83-16.54-30.7-31.75-18.36c-13.68,11.11-13.59,35.5,1.64,45.03
				C516.07,432.13,518.76,427.5,515.85,425.68L515.85,425.68z"/>
		</g>
		<g>
			<path class="st11" d="M571.18,457.81c-10.78-6.75-11.4-22.53-4.58-32.35c10.19-14.67,25.27-4.06,26.62,10.3
				c0.32,3.4,5.68,3.43,5.35,0c-1.49-15.83-16.54-30.7-31.75-18.36c-13.68,11.11-13.59,35.5,1.64,45.03
				C571.41,464.26,574.1,459.63,571.18,457.81L571.18,457.81z"/>
		</g>
		<g>
			<g>
				<path class="st11" d="M419.09,456.92c1.11,2.85,2.23,5.71,3.34,8.56c0.35,0.89,1.29,1.42,2.2,0.9
					c10.19-5.83,20.38-11.66,30.58-17.49c1.68-0.96,0.17-3.55-1.51-2.59c-10.19,5.83-20.38,11.66-30.58,17.49
					c0.73,0.3,1.47,0.6,2.2,0.9c-1.11-2.85-2.23-5.71-3.34-8.56C421.29,454.35,418.39,455.12,419.09,456.92L419.09,456.92z"/>
			</g>
		</g>
		<g>
			<g>
				<path class="st11" d="M478,576.52c1.11,2.85,2.23,5.71,3.34,8.56c0.35,0.89,1.29,1.42,2.2,0.9
					c10.19-5.83,20.38-11.66,30.58-17.49c1.68-0.96,0.17-3.55-1.51-2.59c-10.19,5.83-20.38,11.66-30.58,17.49
					c0.73,0.3,1.47,0.6,2.2,0.9c-1.11-2.85-2.23-5.71-3.34-8.56C480.2,573.94,477.29,574.72,478,576.52L478,576.52z"/>
			</g>
		</g>
	</g>
</g>
</svg>
