<?xml version="1.0" encoding="utf-8"?>
<!-- Generator: Adobe Illustrator 23.0.0, SVG Export Plug-In . SVG Version: 6.00 Build 0)  -->
<svg version="1.1" id="Layer_1" xmlns="http://www.w3.org/2000/svg" xmlns:xlink="http://www.w3.org/1999/xlink" x="0px" y="0px"
	 viewBox="0 0 1000 1000" style="enable-background:new 0 0 1000 1000;" xml:space="preserve">
<style type="text/css">
	.st0{clip-path:url(#SVGID_2_);fill:#2A2939;}
	.st1{opacity:0.15;}
	.st2{clip-path:url(#SVGID_4_);}
	.st3{fill:none;stroke:#77DFF7;stroke-width:0.5;stroke-miterlimit:10;}
	.st4{fill:url(#SVGID_5_);}
	.st5{fill:#302E2E;}
	.st6{fill:#1A7591;}
	.st7{fill:url(#SVGID_6_);}
	.st8{fill:#134C62;}
	.st9{fill:url(#SVGID_7_);}
	.st10{fill:url(#SVGID_8_);}
	.st11{fill:url(#SVGID_9_);}
	.st12{fill:#FFFFFF;}
	.st13{fill:#262628;}
	.st14{opacity:0.94;fill:#134C62;}
	.st15{opacity:0.09;fill:url(#SVGID_10_);}
	.st16{fill:#DC3333;}
	.st17{opacity:0.25;fill:#262628;}
	.st18{opacity:0.75;fill:#DC3333;}
	.st19{opacity:0.6;fill:#C4C4CC;}
	.st20{fill:#333333;}
</style>
<g>
	<defs>
		<rect id="SVGID_1_" width="1000" height="1000"/>
	</defs>
	<clipPath id="SVGID_2_">
		<use xlink:href="#SVGID_1_"  style="overflow:visible;"/>
	</clipPath>
	<rect x="-80" y="-84" class="st0" width="1196" height="1196"/>
</g>
<g class="st1">
	<defs>
		<rect id="SVGID_3_" class="st1" width="1000" height="1000"/>
	</defs>
	<clipPath id="SVGID_4_">
		<use xlink:href="#SVGID_3_"  style="overflow:visible;"/>
	</clipPath>
	<g class="st2">
		<polygon class="st3" points="500,1360.19 1989.9,500 500,-360.19 -989.9,500 		"/>
		<line class="st3" x1="-960.69" y1="516.87" x2="529.22" y2="-343.33"/>
		<line class="st3" x1="-931.47" y1="533.74" x2="558.43" y2="-326.46"/>
		<line class="st3" x1="-902.26" y1="550.6" x2="587.65" y2="-309.59"/>
		<line class="st3" x1="-873.05" y1="567.47" x2="616.86" y2="-292.73"/>
		<line class="st3" x1="-843.83" y1="584.34" x2="646.07" y2="-275.86"/>
		<line class="st3" x1="-814.62" y1="601.2" x2="675.29" y2="-259"/>
		<line class="st3" x1="-785.4" y1="618.07" x2="704.5" y2="-242.13"/>
		<line class="st3" x1="-756.19" y1="634.93" x2="733.71" y2="-225.26"/>
		<line class="st3" x1="-726.98" y1="651.8" x2="762.93" y2="-208.4"/>
		<line class="st3" x1="-697.76" y1="668.67" x2="792.14" y2="-191.53"/>
		<line class="st3" x1="-668.55" y1="685.53" x2="821.35" y2="-174.66"/>
		<line class="st3" x1="-639.34" y1="702.4" x2="850.57" y2="-157.8"/>
		<line class="st3" x1="-610.12" y1="719.27" x2="879.78" y2="-140.93"/>
		<line class="st3" x1="-580.91" y1="736.13" x2="909" y2="-124.06"/>
		<line class="st3" x1="-551.7" y1="753" x2="938.21" y2="-107.2"/>
		<line class="st3" x1="-522.48" y1="769.87" x2="967.42" y2="-90.33"/>
		<line class="st3" x1="-493.27" y1="786.73" x2="996.64" y2="-73.46"/>
		<line class="st3" x1="-464.05" y1="803.6" x2="1025.85" y2="-56.6"/>
		<line class="st3" x1="-434.84" y1="820.47" x2="1055.06" y2="-39.73"/>
		<line class="st3" x1="-405.63" y1="837.33" x2="1084.28" y2="-22.86"/>
		<line class="st3" x1="-376.41" y1="854.2" x2="1113.49" y2="-6"/>
		<line class="st3" x1="-347.2" y1="871.07" x2="1142.7" y2="10.87"/>
		<line class="st3" x1="-317.99" y1="887.93" x2="1171.92" y2="27.74"/>
		<line class="st3" x1="-288.77" y1="904.8" x2="1201.13" y2="44.6"/>
		<line class="st3" x1="-259.56" y1="921.67" x2="1230.35" y2="61.47"/>
		<line class="st3" x1="-230.35" y1="938.53" x2="1259.56" y2="78.33"/>
		<line class="st3" x1="-201.13" y1="955.4" x2="1288.77" y2="95.2"/>
		<line class="st3" x1="-171.92" y1="972.26" x2="1317.99" y2="112.07"/>
		<line class="st3" x1="-142.7" y1="989.13" x2="1347.2" y2="128.93"/>
		<line class="st3" x1="-113.49" y1="1006" x2="1376.41" y2="145.8"/>
		<line class="st3" x1="-84.28" y1="1022.86" x2="1405.63" y2="162.67"/>
		<line class="st3" x1="-55.06" y1="1039.73" x2="1434.84" y2="179.53"/>
		<line class="st3" x1="-25.85" y1="1056.6" x2="1464.05" y2="196.4"/>
		<line class="st3" x1="3.36" y1="1073.46" x2="1493.27" y2="213.27"/>
		<line class="st3" x1="32.58" y1="1090.33" x2="1522.48" y2="230.13"/>
		<line class="st3" x1="61.79" y1="1107.2" x2="1551.7" y2="247"/>
		<line class="st3" x1="91" y1="1124.06" x2="1580.91" y2="263.87"/>
		<line class="st3" x1="120.22" y1="1140.93" x2="1610.12" y2="280.73"/>
		<line class="st3" x1="149.43" y1="1157.8" x2="1639.34" y2="297.6"/>
		<line class="st3" x1="178.65" y1="1174.66" x2="1668.55" y2="314.47"/>
		<line class="st3" x1="207.86" y1="1191.53" x2="1697.76" y2="331.33"/>
		<line class="st3" x1="237.07" y1="1208.4" x2="1726.98" y2="348.2"/>
		<line class="st3" x1="266.29" y1="1225.26" x2="1756.19" y2="365.07"/>
		<line class="st3" x1="295.5" y1="1242.13" x2="1785.4" y2="381.93"/>
		<line class="st3" x1="324.71" y1="1259" x2="1814.62" y2="398.8"/>
		<line class="st3" x1="353.93" y1="1275.86" x2="1843.83" y2="415.66"/>
		<line class="st3" x1="383.14" y1="1292.73" x2="1873.05" y2="432.53"/>
		<line class="st3" x1="412.35" y1="1309.59" x2="1902.26" y2="449.4"/>
		<line class="st3" x1="441.57" y1="1326.46" x2="1931.47" y2="466.26"/>
		<line class="st3" x1="470.78" y1="1343.33" x2="1960.69" y2="483.13"/>
		<line class="st3" x1="1960.69" y1="516.86" x2="470.79" y2="-343.33"/>
		<line class="st3" x1="1931.47" y1="533.73" x2="441.58" y2="-326.46"/>
		<line class="st3" x1="1902.26" y1="550.6" x2="412.36" y2="-309.59"/>
		<line class="st3" x1="1873.04" y1="567.46" x2="383.15" y2="-292.73"/>
		<line class="st3" x1="1843.83" y1="584.33" x2="353.94" y2="-275.86"/>
		<line class="st3" x1="1814.62" y1="601.2" x2="324.72" y2="-258.99"/>
		<line class="st3" x1="1785.4" y1="618.06" x2="295.51" y2="-242.13"/>
		<line class="st3" x1="1756.19" y1="634.93" x2="266.29" y2="-225.26"/>
		<line class="st3" x1="1726.98" y1="651.8" x2="237.08" y2="-208.39"/>
		<line class="st3" x1="1697.76" y1="668.66" x2="207.87" y2="-191.53"/>
		<line class="st3" x1="1668.55" y1="685.53" x2="178.65" y2="-174.66"/>
		<line class="st3" x1="1639.33" y1="702.4" x2="149.44" y2="-157.8"/>
		<line class="st3" x1="1610.12" y1="719.26" x2="120.22" y2="-140.93"/>
		<line class="st3" x1="1580.91" y1="736.13" x2="91.01" y2="-124.06"/>
		<line class="st3" x1="1551.69" y1="753" x2="61.8" y2="-107.2"/>
		<line class="st3" x1="1522.48" y1="769.86" x2="32.58" y2="-90.33"/>
		<line class="st3" x1="1493.27" y1="786.73" x2="3.37" y2="-73.46"/>
		<line class="st3" x1="1464.05" y1="803.6" x2="-25.84" y2="-56.6"/>
		<line class="st3" x1="1434.84" y1="820.46" x2="-55.06" y2="-39.73"/>
		<line class="st3" x1="1405.62" y1="837.33" x2="-84.27" y2="-22.86"/>
		<line class="st3" x1="1376.41" y1="854.2" x2="-113.49" y2="-6"/>
		<line class="st3" x1="1347.2" y1="871.06" x2="-142.7" y2="10.87"/>
		<line class="st3" x1="1317.98" y1="887.93" x2="-171.91" y2="27.74"/>
		<line class="st3" x1="1288.77" y1="904.8" x2="-201.13" y2="44.6"/>
		<line class="st3" x1="1259.55" y1="921.66" x2="-230.34" y2="61.47"/>
		<line class="st3" x1="1230.34" y1="938.53" x2="-259.55" y2="78.34"/>
		<line class="st3" x1="1201.13" y1="955.4" x2="-288.77" y2="95.2"/>
		<line class="st3" x1="1171.91" y1="972.26" x2="-317.98" y2="112.07"/>
		<line class="st3" x1="1142.7" y1="989.13" x2="-347.2" y2="128.94"/>
		<polyline class="st3" points="1113.49,1006 237.08,500 -376.41,145.8 		"/>
		<line class="st3" x1="1084.27" y1="1022.86" x2="-405.62" y2="162.67"/>
		<line class="st3" x1="1055.06" y1="1039.73" x2="-434.84" y2="179.54"/>
		<line class="st3" x1="1025.84" y1="1056.6" x2="-464.05" y2="196.4"/>
		<line class="st3" x1="996.63" y1="1073.46" x2="-493.27" y2="213.27"/>
		<line class="st3" x1="967.42" y1="1090.33" x2="-522.48" y2="230.14"/>
		<line class="st3" x1="938.2" y1="1107.2" x2="-551.69" y2="247"/>
		<line class="st3" x1="908.99" y1="1124.06" x2="-580.91" y2="263.87"/>
		<line class="st3" x1="879.78" y1="1140.93" x2="-610.12" y2="280.74"/>
		<line class="st3" x1="850.56" y1="1157.8" x2="-639.33" y2="297.6"/>
		<line class="st3" x1="821.35" y1="1174.66" x2="-668.55" y2="314.47"/>
		<line class="st3" x1="792.13" y1="1191.53" x2="-697.76" y2="331.34"/>
		<line class="st3" x1="762.92" y1="1208.39" x2="-726.98" y2="348.2"/>
		<line class="st3" x1="733.71" y1="1225.26" x2="-756.19" y2="365.07"/>
		<line class="st3" x1="704.49" y1="1242.13" x2="-785.4" y2="381.94"/>
		<line class="st3" x1="675.28" y1="1258.99" x2="-814.62" y2="398.8"/>
		<line class="st3" x1="646.06" y1="1275.86" x2="-843.83" y2="415.67"/>
		<line class="st3" x1="616.85" y1="1292.73" x2="-873.04" y2="432.54"/>
		<line class="st3" x1="587.64" y1="1309.59" x2="-902.26" y2="449.4"/>
		<line class="st3" x1="558.42" y1="1326.46" x2="-931.47" y2="466.27"/>
		<line class="st3" x1="529.21" y1="1343.33" x2="-960.69" y2="483.14"/>
	</g>
</g>
<g>
	<radialGradient id="SVGID_5_" cx="500" cy="559.3636" r="197.8188" gradientUnits="userSpaceOnUse">
		<stop  offset="1.198083e-07" style="stop-color:#2A2939"/>
		<stop  offset="0.8917" style="stop-color:#2A2939;stop-opacity:0.1083"/>
		<stop  offset="1" style="stop-color:#2A2939;stop-opacity:0"/>
	</radialGradient>
	<ellipse class="st4" cx="500" cy="559.36" rx="242.28" ry="139.88"/>
	<g>
		<path class="st5" d="M507.78,586.85c-7.66-4.58-20.26-4.71-28.14-0.28c-4.3,2.42-6.31,5.69-6,8.91
			c2.08,15.31,20.35,18.56,31.17,12.58c5.15-3.1,7.79-6.95,8.57-12.47C513.7,592.47,511.84,589.28,507.78,586.85z"/>
		<path class="st6" d="M520.81,590.51c-15.48,8.68-40.22,8.43-55.27-0.56c-7.4-4.42-11.07-10.14-11.06-15.83
			c0.16,4.36,0.65,17.61,16.27,27.18c3.52,2.16,22.24,12.33,44.72,0.56l0.01,0c16.3-9.42,16.96-23.04,17.17-27.52
			C532.64,580.22,528.68,586.09,520.81,590.51z"/>
		<linearGradient id="SVGID_6_" gradientUnits="userSpaceOnUse" x1="478.7886" y1="543.1368" x2="508.3844" y2="594.3982">
			<stop  offset="0" style="stop-color:#7E7E82"/>
			<stop  offset="0.1812" style="stop-color:#87878B"/>
			<stop  offset="0.4765" style="stop-color:#9F9FA3"/>
			<stop  offset="0.8471" style="stop-color:#C5C5CB"/>
			<stop  offset="1" style="stop-color:#D7D7DD"/>
		</linearGradient>
		<path class="st7" d="M523.5,551.98c-16.06-9.6-42.47-9.87-58.99-0.6c-16.52,9.27-16.9,24.57-0.84,34.17
			c16.06,9.6,42.47,9.87,58.99,0.6C539.19,576.88,539.56,561.58,523.5,551.98z M520.83,585.05c-15.48,8.68-40.22,8.43-55.26-0.56
			c-15.04-8.99-14.69-23.32,0.78-32.01c15.48-8.68,40.22-8.43,55.27,0.56C536.66,562.04,536.3,576.37,520.83,585.05z"/>
		<path class="st8" d="M523.93,551.96c-21.96-13.65-66.1-8.1-72.67,13.88c-7.9,26.45,38.4,43.09,71.8,25.79
			c0.08-0.04,0.17-0.1,0.1-0.06C543.24,579.3,539.19,561.45,523.93,551.96z M522.66,586.15c-16.52,9.27-42.93,9-58.99-0.6
			c-16.06-9.6-15.68-24.9,0.84-34.17c16.52-9.27,42.93-9,58.99,0.6C539.56,561.58,539.19,576.88,522.66,586.15z"/>
		<path class="st6" d="M520.86,579.89c-15.49,8.69-40.25,8.44-55.31-0.56c-7.37-4.41-11.05-10.09-11.07-15.77l0.01,5.17
			c0.02,5.67,3.69,11.36,11.06,15.76c15.04,8.99,39.79,9.24,55.26,0.56c7.83-4.4,11.79-10.24,11.84-16.1l0.04-5.17
			C532.66,569.65,528.7,575.49,520.86,579.89z"/>
		<linearGradient id="SVGID_7_" gradientUnits="userSpaceOnUse" x1="478.8187" y1="532.5094" x2="508.4144" y2="583.7707">
			<stop  offset="0" style="stop-color:#7E7E82"/>
			<stop  offset="0.1812" style="stop-color:#87878B"/>
			<stop  offset="0.4765" style="stop-color:#9F9FA3"/>
			<stop  offset="0.8471" style="stop-color:#C5C5CB"/>
			<stop  offset="1" style="stop-color:#D7D7DD"/>
		</linearGradient>
		<path class="st9" d="M523.53,541.35c-16.06-9.6-42.47-9.87-58.99-0.6c-16.52,9.27-16.9,24.57-0.84,34.17
			c16.06,9.6,42.47,9.87,58.99,0.6C539.22,566.25,539.59,550.95,523.53,541.35z M520.9,574.45c-15.5,8.7-40.28,8.45-55.35-0.56
			c-15.07-9.01-14.72-23.36,0.79-32.06c15.5-8.7,40.28-8.45,55.35,0.56C536.75,551.4,536.4,565.75,520.9,574.45z"/>
		<path class="st8" d="M523.96,541.34L523.96,541.34c-21.96-13.65-66.1-8.1-72.67,13.88c-7.9,26.45,38.4,43.09,71.8,25.79
			c0.04-0.02,0.15-0.08,0.1-0.06C543.27,568.67,539.22,550.83,523.96,541.34z M522.69,575.52c-16.52,9.27-42.93,9-58.99-0.6
			c-16.06-9.6-15.68-24.9,0.84-34.17c16.52-9.27,42.93-9,58.99,0.6C539.59,550.95,539.22,566.25,522.69,575.52z"/>
		<path class="st6" d="M465.68,545.84c-8.46-4.6-12.67-10.55-12.68-16.48l0.01,7.76c0.01,5.93,4.22,11.87,12.67,16.47
			c17.24,9.38,45.59,9.64,63.32,0.58l0.05-7.75C511.3,555.49,482.93,555.23,465.68,545.84z"/>
		<path class="st6" d="M520.91,569.28c-15.5,8.7-40.28,8.45-55.35-0.56c-7.41-4.43-11.09-10.15-11.07-15.86l-0.01,5.17
			c-0.02,5.71,3.66,11.43,11.07,15.86c15.07,9.01,39.85,9.26,55.35,0.56c7.88-4.42,11.84-10.3,11.86-16.2l0.01-5.17
			C532.75,558.97,528.79,564.86,520.91,569.28z"/>
		<linearGradient id="SVGID_8_" gradientUnits="userSpaceOnUse" x1="478.8489" y1="521.8821" x2="508.4446" y2="573.1435">
			<stop  offset="0" style="stop-color:#7E7E82"/>
			<stop  offset="0.1812" style="stop-color:#87878B"/>
			<stop  offset="0.4765" style="stop-color:#9F9FA3"/>
			<stop  offset="0.8471" style="stop-color:#C5C5CB"/>
			<stop  offset="1" style="stop-color:#D7D7DD"/>
		</linearGradient>
		<path class="st10" d="M523.56,530.73c-16.06-9.6-42.47-9.87-58.99-0.6c-16.52,9.27-16.9,24.57-0.84,34.17
			c16.06,9.6,42.47,9.87,58.99,0.6C539.25,555.62,539.62,540.33,523.56,530.73z M520.95,563.83c-15.51,8.7-40.31,8.45-55.39-0.56
			c-15.08-9.01-14.73-23.38,0.79-32.08c15.51-8.7,40.31-8.45,55.39,0.56C536.81,540.77,536.46,555.13,520.95,563.83z"/>
		<path class="st8" d="M523.99,530.71c-21.96-13.65-66.1-8.1-72.67,13.88c-7.9,26.45,38.4,43.09,71.8,25.79
			c0.07-0.04,0.15-0.08,0.1-0.06C543.3,558.04,539.25,540.2,523.99,530.71z M522.72,564.9c-16.52,9.27-42.93,9-58.99-0.6
			c-16.06-9.6-15.68-24.9,0.84-34.17c16.52-9.27,42.93-9,58.99,0.6C539.62,540.33,539.25,555.62,522.72,564.9z"/>
		<path class="st6" d="M520.98,558.67c-15.52,8.71-40.34,8.46-55.43-0.56c-7.39-4.42-11.07-10.12-11.09-15.81l0.01,5.17
			c0.02,5.69,3.7,11.38,11.08,15.8c15.08,9.01,39.88,9.26,55.39,0.56c7.85-4.41,11.82-10.26,11.87-16.14l0.04-5.17
			C532.81,548.41,528.84,554.26,520.98,558.67z"/>
		<path class="st8" d="M524.02,520.08c-21.96-13.65-66.1-8.1-72.67,13.88c-7.9,26.45,38.4,43.09,71.8,25.79
			c0.09-0.05,0.18-0.17,0.28-0.29c-0.05,0.1-0.11,0.2-0.18,0.24C543.33,547.42,539.28,529.57,524.02,520.08z M522.75,554.27
			c-16.52,9.27-42.93,9-58.99-0.6c-16.06-9.6-15.68-24.9,0.84-34.17c16.52-9.27,42.93-9,58.99,0.6
			C539.65,529.7,539.28,545,522.75,554.27z"/>
		<linearGradient id="SVGID_9_" gradientUnits="userSpaceOnUse" x1="478.8791" y1="511.2549" x2="508.4748" y2="562.5161">
			<stop  offset="0" style="stop-color:#7E7E82"/>
			<stop  offset="0.1812" style="stop-color:#87878B"/>
			<stop  offset="0.4765" style="stop-color:#9F9FA3"/>
			<stop  offset="0.8471" style="stop-color:#C5C5CB"/>
			<stop  offset="1" style="stop-color:#D7D7DD"/>
		</linearGradient>
		<path class="st11" d="M523.59,520.1c-16.06-9.6-42.47-9.87-58.99-0.6c-16.52,9.27-16.9,24.57-0.84,34.17
			c16.06,9.6,42.47,9.87,58.99,0.6C539.28,545,539.65,529.7,523.59,520.1z M521,553.22c-15.52,8.71-40.34,8.46-55.43-0.56
			c-15.09-9.02-14.74-23.39,0.79-32.1c15.52-8.71,40.34-8.46,55.43,0.56C536.87,530.13,536.52,544.51,521,553.22z"/>
		
			<ellipse transform="matrix(2.832890e-03 -1 1 2.832890e-03 -13.9117 998.6061)" class="st12" cx="493.76" cy="506.28" rx="31.21" ry="53.89"/>
		
			<ellipse transform="matrix(2.834197e-03 -1 1 2.834197e-03 -13.9124 998.6053)" class="st13" cx="493.76" cy="506.28" rx="26.23" ry="45.28"/>
		<path class="st8" d="M531.32,528.73c-21.34,11.97-55.46,11.63-76.2-0.77c-10.2-6.1-15.27-13.98-15.25-21.83l-0.05,18.18
			c-0.02,7.86,5.04,15.73,15.25,21.83c20.74,12.4,54.86,12.74,76.2,0.77c10.85-6.09,16.3-14.18,16.33-22.3l0.05-18.18
			C547.63,514.55,542.17,522.65,531.32,528.73z"/>
		<path class="st14" d="M516.09,303.57c-77.41-19.03-139.56,62.21-99.7,131.04c4.44,7.41,8.34,13.58,11.72,19.31
			c-3.37-5.73-7.27-11.89-11.71-19.29c21.95,36.34,23.75,39.31,24.77,69.87c0.57,26.5,56.05,40.32,89.33,21.65
			c6.04-3.39,10.37-7.42,12.98-11.73c1.88-3.11,2.87-6.36,2.97-9.85c1.26-31.34,3.42-33.61,25.25-69.65
			C603.4,380.62,571.77,317.26,516.09,303.57z"/>
		<radialGradient id="SVGID_10_" cx="537.7048" cy="319.7173" r="121.7442" gradientUnits="userSpaceOnUse">
			<stop  offset="0" style="stop-color:#FFFFFF"/>
			<stop  offset="0.0237" style="stop-color:#F8FBFC"/>
			<stop  offset="0.2985" style="stop-color:#AACCD6"/>
			<stop  offset="0.543" style="stop-color:#6CA7B8"/>
			<stop  offset="0.7487" style="stop-color:#408CA3"/>
			<stop  offset="0.9074" style="stop-color:#247B96"/>
			<stop  offset="1" style="stop-color:#1A7591"/>
		</radialGradient>
		<path class="st15" d="M539.92,322.35c26.78,16.42,37.67,47.37,24.32,69.12c-13.34,21.76-45.86,26.09-72.64,9.67
			c-26.78-16.42-37.67-47.37-24.32-69.12C480.63,310.26,513.15,305.93,539.92,322.35z"/>
		<g>
			<path class="st16" d="M475.21,436.99c-0.17,0-0.31-0.13-0.41-0.35c-0.1-0.24-0.19-0.51-0.27-0.78c-0.1-0.33-0.2-0.65-0.33-0.9
				c-0.03-0.07-0.06-0.09-0.12-0.09c-0.09,0.01-0.22,0.13-0.3,0.39c-0.02,0.05-0.08,0.08-0.13,0.06c-0.05-0.02-0.08-0.08-0.06-0.13
				c0.1-0.31,0.29-0.52,0.48-0.53c0.07-0.01,0.21,0.01,0.31,0.2c0.14,0.27,0.24,0.61,0.35,0.93c0.08,0.26,0.16,0.52,0.26,0.76
				c0.06,0.14,0.14,0.22,0.22,0.22c0,0,0,0,0,0c0.07,0,0.15-0.07,0.2-0.2c0.17-0.43,0.29-0.95,0.41-1.49
				c0.06-0.26,0.12-0.53,0.19-0.81c0.14-0.53,0.39-1.11,0.61-1.19c0.05-0.02,0.11-0.01,0.15,0.01c0.21,0.14,0.37,0.63,0.56,1.2
				c0.14,0.42,0.35,1.05,0.48,1.08c0-0.01,0.02-0.01,0.04-0.03c0.24-0.27,0.43-1.15,0.6-1.92c0.25-1.17,0.41-1.84,0.74-1.85
				c0,0,0.01,0,0.01,0c0.22,0,0.41,0.3,0.65,1.01c0.05,0.14,0.09,0.28,0.13,0.41c0.12,0.41,0.23,0.79,0.4,0.87
				c0.09-0.06,0.31-0.49,0.49-1.21c0.06-0.24,0.11-0.47,0.16-0.7c0.13-0.58,0.25-1.12,0.45-1.56c0.07-0.15,0.19-0.25,0.33-0.24
				c0.18,0,0.36,0.17,0.47,0.45c0.09,0.22,0.16,0.46,0.23,0.69c0.11,0.36,0.22,0.71,0.37,0.96c0.03,0.05,0.06,0.05,0.07,0.05
				c0.08-0.01,0.25-0.18,0.36-0.52c0.12-0.39,0.22-0.82,0.31-1.22c0.09-0.38,0.18-0.78,0.29-1.16c0.13-0.43,0.34-0.72,0.55-0.75
				c0.1-0.01,0.18,0.03,0.24,0.11c0.23,0.35,0.43,0.79,0.6,1.19c0.14,0.31,0.33,0.74,0.42,0.8c0-0.01,0.01-0.02,0.02-0.03
				c0.31-0.63,0.5-1.49,0.65-2.17c0.2-0.92,0.33-1.51,0.67-1.47c0.46,0.08,0.58,0.75,0.69,1.41c0.07,0.41,0.15,0.87,0.3,0.94
				c0.01,0.01,0.06,0.03,0.16-0.03c0.36-0.21,0.46-0.89,0.56-1.61c0.1-0.72,0.22-1.53,0.62-2.07c0.08-0.11,0.18-0.16,0.27-0.14
				c0.2,0.04,0.3,0.34,0.47,0.92c0.14,0.49,0.32,1.09,0.6,1.36c0.11-0.14,0.31-0.82,0.49-1.42c0.17-0.59,0.37-1.26,0.59-1.86
				c0.09-0.24,0.25-0.38,0.42-0.39c0,0,0.01,0,0.01,0c0.15,0,0.28,0.11,0.37,0.29c0.11,0.25,0.21,0.55,0.3,0.83
				c0.09,0.3,0.19,0.61,0.31,0.85c0.02,0.05,0.07,0.13,0.15,0.13c0,0,0,0,0,0c0.08,0,0.19-0.11,0.27-0.32
				c0.15-0.43,0.26-0.9,0.37-1.4c0.07-0.31,0.14-0.63,0.23-0.95c0.12-0.44,0.36-0.94,0.6-1c0.07-0.02,0.13,0,0.18,0.05
				c0.21,0.22,0.34,0.64,0.47,1.08c0.05,0.17,0.1,0.34,0.16,0.5c0.14,0.39,0.31,0.58,0.39,0.59c0.01,0,0.02,0,0.04-0.03
				c0.21-0.32,0.39-1.09,0.55-1.83c0.25-1.11,0.42-1.79,0.71-1.9c0.07-0.03,0.14-0.02,0.21,0.01c0.24,0.12,0.37,0.61,0.53,1.18
				c0.12,0.45,0.31,1.12,0.5,1.12c0,0,0,0,0,0c0.17-0.01,0.45-1.18,0.6-1.81c0.17-0.73,0.34-1.42,0.53-1.77
				c0.08-0.15,0.2-0.17,0.26-0.16c0.2,0.01,0.4,0.24,0.53,0.59c0.07,0.19,0.13,0.39,0.19,0.59c0.12,0.4,0.24,0.77,0.4,1
				c0.09,0,0.3-0.22,0.43-0.69c0.1-0.35,0.19-0.72,0.27-1.08c0.1-0.44,0.21-0.89,0.34-1.31c0.11-0.34,0.3-0.56,0.5-0.58
				c0.06,0,0.2,0.01,0.29,0.18c0.15,0.27,0.25,0.61,0.36,0.96c0.08,0.24,0.16,0.5,0.25,0.72c0.08,0.19,0.18,0.26,0.25,0.26l0,0
				c0.07,0,0.13-0.06,0.17-0.16c0.27-0.64,0.48-1.44,0.65-2.09c0.24-0.92,0.36-1.36,0.55-1.44c0.05-0.02,0.1-0.02,0.15,0.01
				c0.39,0.22,0.54,0.9,0.68,1.5c0.08,0.34,0.18,0.81,0.3,0.84c0.03,0,0.07-0.02,0.11-0.07c0.39-0.39,0.49-1.12,0.58-1.82
				c0.09-0.74,0.19-1.5,0.64-1.91c0.11-0.1,0.22-0.14,0.32-0.11c0.23,0.07,0.32,0.49,0.43,1.01c0.12,0.53,0.26,1.2,0.57,1.35
				c0.1-0.05,0.27-0.74,0.42-1.3c0.17-0.66,0.38-1.48,0.66-2.14c0.07-0.17,0.2-0.27,0.35-0.27c0,0,0,0,0,0
				c0.18,0,0.34,0.15,0.45,0.41c0.09,0.23,0.17,0.48,0.25,0.72c0.11,0.35,0.22,0.69,0.36,0.94c0.04,0.07,0.08,0.06,0.08,0.06
				c0.09-0.01,0.24-0.18,0.34-0.47c0.13-0.41,0.23-0.83,0.33-1.28c0.08-0.36,0.17-0.74,0.28-1.11c0.02-0.05,0.07-0.08,0.13-0.07
				c0.05,0.02,0.09,0.07,0.07,0.13c-0.1,0.36-0.19,0.73-0.27,1.09c-0.1,0.43-0.2,0.88-0.34,1.29c-0.11,0.36-0.31,0.59-0.51,0.61
				c-0.07,0-0.19-0.01-0.28-0.17c-0.15-0.27-0.26-0.61-0.37-0.98c-0.07-0.24-0.15-0.48-0.24-0.7c-0.08-0.2-0.19-0.28-0.26-0.28h0
				c-0.06,0-0.12,0.05-0.16,0.15c-0.28,0.65-0.49,1.46-0.65,2.11c-0.23,0.9-0.35,1.34-0.54,1.43c-0.05,0.02-0.11,0.02-0.16,0
				c-0.4-0.2-0.55-0.88-0.68-1.49c-0.08-0.36-0.18-0.82-0.3-0.86c-0.03-0.01-0.07,0.02-0.12,0.06c-0.39,0.36-0.49,1.08-0.58,1.78
				c-0.09,0.74-0.19,1.5-0.64,1.94c-0.11,0.11-0.22,0.15-0.31,0.12c-0.23-0.07-0.32-0.45-0.44-0.99c-0.12-0.53-0.27-1.19-0.58-1.37
				c-0.09,0.06-0.27,0.75-0.41,1.31c-0.17,0.65-0.38,1.46-0.66,2.12c-0.08,0.18-0.21,0.29-0.36,0.29l0,0
				c-0.18,0-0.33-0.14-0.43-0.38c-0.1-0.23-0.18-0.49-0.26-0.74c-0.11-0.35-0.21-0.67-0.35-0.92c-0.04-0.08-0.08-0.08-0.1-0.07
				c-0.09,0.01-0.24,0.16-0.33,0.44c-0.13,0.41-0.23,0.84-0.34,1.29c-0.08,0.36-0.17,0.73-0.27,1.09c-0.11,0.39-0.33,0.8-0.57,0.85
				c-0.08,0.02-0.16-0.02-0.22-0.09c-0.19-0.25-0.31-0.64-0.43-1.06c-0.06-0.19-0.12-0.39-0.19-0.58c-0.11-0.29-0.26-0.45-0.35-0.46
				c-0.01,0-0.04,0-0.07,0.06c-0.17,0.32-0.34,1.03-0.51,1.72c-0.3,1.25-0.48,1.95-0.79,1.97c0,0-0.01,0-0.01,0
				c-0.34,0-0.5-0.59-0.69-1.27c-0.12-0.43-0.27-0.98-0.43-1.06c-0.02-0.01-0.03-0.01-0.05,0c-0.21,0.08-0.42,1.01-0.59,1.76
				c-0.17,0.76-0.35,1.54-0.58,1.89c-0.08,0.12-0.17,0.12-0.23,0.12c-0.23-0.03-0.44-0.4-0.55-0.73c-0.06-0.17-0.11-0.34-0.16-0.51
				c-0.12-0.42-0.24-0.81-0.42-1c-0.06,0.02-0.29,0.33-0.44,0.86c-0.09,0.31-0.16,0.63-0.23,0.94c-0.12,0.51-0.23,0.98-0.38,1.43
				c-0.1,0.28-0.27,0.45-0.45,0.46c-0.01,0-0.01,0-0.02,0c-0.13,0-0.25-0.09-0.33-0.25c-0.13-0.26-0.22-0.58-0.32-0.88
				c-0.09-0.28-0.18-0.57-0.29-0.81c-0.05-0.11-0.12-0.17-0.18-0.17c0,0,0,0,0,0c-0.09,0-0.18,0.1-0.23,0.26
				c-0.22,0.59-0.42,1.26-0.59,1.85c-0.33,1.12-0.46,1.52-0.64,1.58c-0.05,0.01-0.1,0-0.15-0.03c-0.34-0.3-0.52-0.93-0.69-1.49
				c-0.09-0.3-0.22-0.76-0.31-0.78c0,0-0.02,0.01-0.07,0.06c-0.37,0.49-0.49,1.28-0.59,1.98c-0.11,0.81-0.21,1.5-0.66,1.76
				c-0.13,0.07-0.24,0.09-0.35,0.04c-0.25-0.12-0.33-0.57-0.42-1.09c-0.09-0.56-0.2-1.19-0.52-1.24c0,0,0,0-0.01,0
				c-0.15,0-0.31,0.76-0.44,1.31c-0.15,0.7-0.34,1.57-0.66,2.22c-0.06,0.12-0.14,0.16-0.2,0.15c-0.19,0-0.33-0.3-0.61-0.93
				c-0.17-0.39-0.37-0.82-0.59-1.16c-0.02-0.03-0.03-0.03-0.04-0.02c-0.09,0.01-0.27,0.22-0.39,0.61c-0.11,0.37-0.2,0.77-0.29,1.15
				c-0.1,0.41-0.19,0.84-0.32,1.24c-0.12,0.38-0.32,0.64-0.53,0.67c-0.07,0.01-0.18,0-0.26-0.14c-0.16-0.27-0.27-0.62-0.39-1
				c-0.07-0.23-0.14-0.46-0.23-0.67c-0.09-0.22-0.2-0.32-0.28-0.32c0,0,0,0,0,0c-0.07,0-0.11,0.07-0.13,0.12
				c-0.19,0.42-0.31,0.96-0.44,1.53c-0.05,0.23-0.1,0.46-0.16,0.7c-0.11,0.44-0.36,1.21-0.6,1.34c-0.06,0.03-0.11,0.02-0.14,0.01
				c-0.28-0.1-0.4-0.53-0.55-1.02c-0.04-0.13-0.08-0.27-0.12-0.41c-0.28-0.84-0.43-0.87-0.45-0.87c0,0,0,0,0,0
				c-0.19,0.01-0.41,1.02-0.55,1.69c-0.18,0.84-0.36,1.7-0.64,2.01c-0.09,0.1-0.18,0.1-0.23,0.09c-0.24-0.05-0.4-0.5-0.64-1.22
				c-0.14-0.42-0.31-0.95-0.46-1.08c-0.09,0.06-0.31,0.44-0.47,1.05c-0.07,0.27-0.13,0.54-0.19,0.8c-0.12,0.55-0.24,1.07-0.42,1.52
				C475.52,436.87,475.38,436.99,475.21,436.99C475.22,436.99,475.22,436.99,475.21,436.99z"/>
		</g>
		
			<ellipse transform="matrix(2.834197e-03 -1 1 2.834197e-03 -13.1817 996.1077)" class="st17" cx="492.88" cy="504.66" rx="17.3" ry="29.86"/>
		<path class="st18" d="M501.21,465.29c0,0.04-0.01,0.09-0.01,0.13c0.02-0.33-0.02-0.67-0.13-1l-3.45-10.23
			c0.26,0.78-0.14,1.61-1.19,2.2c-1.65,0.93-4.3,0.9-5.9-0.06c-0.99-0.59-1.36-1.41-1.1-2.16l-3.5,10.21
			c-0.11,0.32-0.15,0.65-0.14,0.98c0-0.04-0.01-0.08-0.01-0.11l0.04,42.98c0,1.13,0.72,2.25,2.18,3.13
			c2.97,1.78,7.86,1.83,10.91,0.11c1.55-0.87,2.33-2.03,2.34-3.19L501.21,465.29z"/>
		<path class="st19" d="M496.52,452.97c-1.61-0.96-4.25-0.99-5.9-0.06c-1.65,0.93-1.69,2.46-0.08,3.42c1.61,0.96,4.25,0.99,5.9,0.06
			C498.09,455.46,498.13,453.93,496.52,452.97z"/>
		<g>
			<g>
				<path class="st20" d="M491.75,456.06c-0.33,0-0.6-0.27-0.6-0.6v-8.8l-15.94-0.73c-0.28-0.01-0.51-0.21-0.56-0.49l-2.01-10.96
					c-0.06-0.32,0.15-0.63,0.48-0.69c0.32-0.06,0.63,0.15,0.69,0.48l1.92,10.5l16.04,0.74c0.32,0.01,0.57,0.28,0.57,0.59v9.37
					C492.34,455.8,492.08,456.06,491.75,456.06z"/>
			</g>
			<g>
				<path class="st20" d="M495.02,454.17c-0.33,0-0.6-0.27-0.6-0.6v-9.37c0-0.14,0.05-0.27,0.14-0.38l16.41-19.69l1.98-13.12
					c0.05-0.33,0.36-0.55,0.68-0.5c0.33,0.05,0.55,0.35,0.5,0.68l-2.01,13.28c-0.02,0.11-0.06,0.21-0.13,0.29l-16.37,19.66v9.16
					C495.62,453.91,495.35,454.17,495.02,454.17z"/>
			</g>
		</g>
	</g>
</g>
</svg>
