<?xml version="1.0" encoding="utf-8"?>
<!-- Generator: Adobe Illustrator 23.0.0, SVG Export Plug-In . SVG Version: 6.00 Build 0)  -->
<svg version="1.1" id="Layer_1" xmlns="http://www.w3.org/2000/svg" xmlns:xlink="http://www.w3.org/1999/xlink" x="0px" y="0px"
	 viewBox="0 0 1000 1000" style="enable-background:new 0 0 1000 1000;" xml:space="preserve">
<style type="text/css">
	.st0{clip-path:url(#SVGID_2_);fill:#2A2939;}
	.st1{opacity:0.15;}
	.st2{clip-path:url(#SVGID_4_);}
	.st3{fill:none;stroke:#77DFF7;stroke-width:0.5;stroke-miterlimit:10;}
	.st4{fill:url(#SVGID_5_);}
	.st5{fill:#A9D8D8;}
	.st6{fill:#88BAB9;}
	.st7{fill:#D4FBFC;}
	.st8{fill:#95C1BF;}
	.st9{fill:#9ACCCA;}
	.st10{fill:#E84242;}
	.st11{fill:#A03535;}
	.st12{fill:#DC3333;}
</style>
<g>
	<defs>
		<rect id="SVGID_1_" width="1000" height="1000"/>
	</defs>
	<clipPath id="SVGID_2_">
		<use xlink:href="#SVGID_1_"  style="overflow:visible;"/>
	</clipPath>
	<rect x="-80" y="-84" class="st0" width="1196" height="1196"/>
</g>
<g class="st1">
	<defs>
		<rect id="SVGID_3_" class="st1" width="1000" height="1000"/>
	</defs>
	<clipPath id="SVGID_4_">
		<use xlink:href="#SVGID_3_"  style="overflow:visible;"/>
	</clipPath>
	<g class="st2">
		<polygon class="st3" points="500,1360.19 1989.9,500 500,-360.19 -989.9,500 		"/>
		<line class="st3" x1="-960.69" y1="516.87" x2="529.22" y2="-343.33"/>
		<line class="st3" x1="-931.47" y1="533.74" x2="558.43" y2="-326.46"/>
		<line class="st3" x1="-902.26" y1="550.6" x2="587.65" y2="-309.59"/>
		<line class="st3" x1="-873.05" y1="567.47" x2="616.86" y2="-292.73"/>
		<line class="st3" x1="-843.83" y1="584.34" x2="646.07" y2="-275.86"/>
		<line class="st3" x1="-814.62" y1="601.2" x2="675.29" y2="-259"/>
		<line class="st3" x1="-785.4" y1="618.07" x2="704.5" y2="-242.13"/>
		<line class="st3" x1="-756.19" y1="634.93" x2="733.71" y2="-225.26"/>
		<line class="st3" x1="-726.98" y1="651.8" x2="762.93" y2="-208.4"/>
		<line class="st3" x1="-697.76" y1="668.67" x2="792.14" y2="-191.53"/>
		<line class="st3" x1="-668.55" y1="685.53" x2="821.35" y2="-174.66"/>
		<line class="st3" x1="-639.34" y1="702.4" x2="850.57" y2="-157.8"/>
		<line class="st3" x1="-610.12" y1="719.27" x2="879.78" y2="-140.93"/>
		<line class="st3" x1="-580.91" y1="736.13" x2="909" y2="-124.06"/>
		<line class="st3" x1="-551.7" y1="753" x2="938.21" y2="-107.2"/>
		<line class="st3" x1="-522.48" y1="769.87" x2="967.42" y2="-90.33"/>
		<line class="st3" x1="-493.27" y1="786.73" x2="996.64" y2="-73.46"/>
		<line class="st3" x1="-464.05" y1="803.6" x2="1025.85" y2="-56.6"/>
		<line class="st3" x1="-434.84" y1="820.47" x2="1055.06" y2="-39.73"/>
		<line class="st3" x1="-405.63" y1="837.33" x2="1084.28" y2="-22.86"/>
		<line class="st3" x1="-376.41" y1="854.2" x2="1113.49" y2="-6"/>
		<line class="st3" x1="-347.2" y1="871.07" x2="1142.7" y2="10.87"/>
		<line class="st3" x1="-317.99" y1="887.93" x2="1171.92" y2="27.74"/>
		<line class="st3" x1="-288.77" y1="904.8" x2="1201.13" y2="44.6"/>
		<line class="st3" x1="-259.56" y1="921.67" x2="1230.35" y2="61.47"/>
		<line class="st3" x1="-230.35" y1="938.53" x2="1259.56" y2="78.33"/>
		<line class="st3" x1="-201.13" y1="955.4" x2="1288.77" y2="95.2"/>
		<line class="st3" x1="-171.92" y1="972.26" x2="1317.99" y2="112.07"/>
		<line class="st3" x1="-142.7" y1="989.13" x2="1347.2" y2="128.93"/>
		<line class="st3" x1="-113.49" y1="1006" x2="1376.41" y2="145.8"/>
		<line class="st3" x1="-84.28" y1="1022.86" x2="1405.63" y2="162.67"/>
		<line class="st3" x1="-55.06" y1="1039.73" x2="1434.84" y2="179.53"/>
		<line class="st3" x1="-25.85" y1="1056.6" x2="1464.05" y2="196.4"/>
		<line class="st3" x1="3.36" y1="1073.46" x2="1493.27" y2="213.27"/>
		<line class="st3" x1="32.58" y1="1090.33" x2="1522.48" y2="230.13"/>
		<line class="st3" x1="61.79" y1="1107.2" x2="1551.7" y2="247"/>
		<line class="st3" x1="91" y1="1124.06" x2="1580.91" y2="263.87"/>
		<line class="st3" x1="120.22" y1="1140.93" x2="1610.12" y2="280.73"/>
		<line class="st3" x1="149.43" y1="1157.8" x2="1639.34" y2="297.6"/>
		<line class="st3" x1="178.65" y1="1174.66" x2="1668.55" y2="314.47"/>
		<line class="st3" x1="207.86" y1="1191.53" x2="1697.76" y2="331.33"/>
		<line class="st3" x1="237.07" y1="1208.4" x2="1726.98" y2="348.2"/>
		<line class="st3" x1="266.29" y1="1225.26" x2="1756.19" y2="365.07"/>
		<line class="st3" x1="295.5" y1="1242.13" x2="1785.4" y2="381.93"/>
		<line class="st3" x1="324.71" y1="1259" x2="1814.62" y2="398.8"/>
		<line class="st3" x1="353.93" y1="1275.86" x2="1843.83" y2="415.66"/>
		<line class="st3" x1="383.14" y1="1292.73" x2="1873.05" y2="432.53"/>
		<line class="st3" x1="412.35" y1="1309.59" x2="1902.26" y2="449.4"/>
		<line class="st3" x1="441.57" y1="1326.46" x2="1931.47" y2="466.26"/>
		<line class="st3" x1="470.78" y1="1343.33" x2="1960.69" y2="483.13"/>
		<line class="st3" x1="1960.69" y1="516.86" x2="470.79" y2="-343.33"/>
		<line class="st3" x1="1931.47" y1="533.73" x2="441.58" y2="-326.46"/>
		<line class="st3" x1="1902.26" y1="550.6" x2="412.36" y2="-309.59"/>
		<line class="st3" x1="1873.04" y1="567.46" x2="383.15" y2="-292.73"/>
		<line class="st3" x1="1843.83" y1="584.33" x2="353.94" y2="-275.86"/>
		<line class="st3" x1="1814.62" y1="601.2" x2="324.72" y2="-258.99"/>
		<line class="st3" x1="1785.4" y1="618.06" x2="295.51" y2="-242.13"/>
		<line class="st3" x1="1756.19" y1="634.93" x2="266.29" y2="-225.26"/>
		<line class="st3" x1="1726.98" y1="651.8" x2="237.08" y2="-208.39"/>
		<line class="st3" x1="1697.76" y1="668.66" x2="207.87" y2="-191.53"/>
		<line class="st3" x1="1668.55" y1="685.53" x2="178.65" y2="-174.66"/>
		<line class="st3" x1="1639.33" y1="702.4" x2="149.44" y2="-157.8"/>
		<line class="st3" x1="1610.12" y1="719.26" x2="120.22" y2="-140.93"/>
		<line class="st3" x1="1580.91" y1="736.13" x2="91.01" y2="-124.06"/>
		<line class="st3" x1="1551.69" y1="753" x2="61.8" y2="-107.2"/>
		<line class="st3" x1="1522.48" y1="769.86" x2="32.58" y2="-90.33"/>
		<line class="st3" x1="1493.27" y1="786.73" x2="3.37" y2="-73.46"/>
		<line class="st3" x1="1464.05" y1="803.6" x2="-25.84" y2="-56.6"/>
		<line class="st3" x1="1434.84" y1="820.46" x2="-55.06" y2="-39.73"/>
		<line class="st3" x1="1405.62" y1="837.33" x2="-84.27" y2="-22.86"/>
		<line class="st3" x1="1376.41" y1="854.2" x2="-113.49" y2="-6"/>
		<line class="st3" x1="1347.2" y1="871.06" x2="-142.7" y2="10.87"/>
		<line class="st3" x1="1317.98" y1="887.93" x2="-171.91" y2="27.74"/>
		<line class="st3" x1="1288.77" y1="904.8" x2="-201.13" y2="44.6"/>
		<line class="st3" x1="1259.55" y1="921.66" x2="-230.34" y2="61.47"/>
		<line class="st3" x1="1230.34" y1="938.53" x2="-259.55" y2="78.34"/>
		<line class="st3" x1="1201.13" y1="955.4" x2="-288.77" y2="95.2"/>
		<line class="st3" x1="1171.91" y1="972.26" x2="-317.98" y2="112.07"/>
		<line class="st3" x1="1142.7" y1="989.13" x2="-347.2" y2="128.94"/>
		<polyline class="st3" points="1113.49,1006 237.08,500 -376.41,145.8 		"/>
		<line class="st3" x1="1084.27" y1="1022.86" x2="-405.62" y2="162.67"/>
		<line class="st3" x1="1055.06" y1="1039.73" x2="-434.84" y2="179.54"/>
		<line class="st3" x1="1025.84" y1="1056.6" x2="-464.05" y2="196.4"/>
		<line class="st3" x1="996.63" y1="1073.46" x2="-493.27" y2="213.27"/>
		<line class="st3" x1="967.42" y1="1090.33" x2="-522.48" y2="230.14"/>
		<line class="st3" x1="938.2" y1="1107.2" x2="-551.69" y2="247"/>
		<line class="st3" x1="908.99" y1="1124.06" x2="-580.91" y2="263.87"/>
		<line class="st3" x1="879.78" y1="1140.93" x2="-610.12" y2="280.74"/>
		<line class="st3" x1="850.56" y1="1157.8" x2="-639.33" y2="297.6"/>
		<line class="st3" x1="821.35" y1="1174.66" x2="-668.55" y2="314.47"/>
		<line class="st3" x1="792.13" y1="1191.53" x2="-697.76" y2="331.34"/>
		<line class="st3" x1="762.92" y1="1208.39" x2="-726.98" y2="348.2"/>
		<line class="st3" x1="733.71" y1="1225.26" x2="-756.19" y2="365.07"/>
		<line class="st3" x1="704.49" y1="1242.13" x2="-785.4" y2="381.94"/>
		<line class="st3" x1="675.28" y1="1258.99" x2="-814.62" y2="398.8"/>
		<line class="st3" x1="646.06" y1="1275.86" x2="-843.83" y2="415.67"/>
		<line class="st3" x1="616.85" y1="1292.73" x2="-873.04" y2="432.54"/>
		<line class="st3" x1="587.64" y1="1309.59" x2="-902.26" y2="449.4"/>
		<line class="st3" x1="558.42" y1="1326.46" x2="-931.47" y2="466.27"/>
		<line class="st3" x1="529.21" y1="1343.33" x2="-960.69" y2="483.14"/>
	</g>
</g>
<g>
	<radialGradient id="SVGID_5_" cx="500" cy="586.866" r="197.8188" gradientUnits="userSpaceOnUse">
		<stop  offset="1.198083e-07" style="stop-color:#2A2939"/>
		<stop  offset="0.8917" style="stop-color:#2A2939;stop-opacity:0.1083"/>
		<stop  offset="1" style="stop-color:#2A2939;stop-opacity:0"/>
	</radialGradient>
	<ellipse class="st4" cx="500" cy="586.87" rx="242.28" ry="139.88"/>
	<g>
		<g>
			<polygon class="st5" points="364.89,456.76 365.41,578.57 504.01,659.12 503.5,537.31 			"/>
		</g>
		<g>
			<polygon class="st6" points="503.5,537.31 504.01,659.12 596.73,605.59 596.22,483.78 			"/>
		</g>
		<g>
			<polygon class="st7" points="364.89,456.76 503.5,537.31 596.22,483.78 457.61,403.23 			"/>
		</g>
		<polygon class="st5" points="364.89,326.79 365.41,448.6 504.01,529.15 503.5,407.34 		"/>
		<g>
			<polygon class="st8" points="489.16,411.1 489.57,459.55 379.77,395.74 379.36,347.29 			"/>
		</g>
		<g>
			<polygon class="st6" points="503.5,407.34 504.01,529.15 596.73,475.62 596.22,353.8 			"/>
		</g>
		<g>
			<polygon class="st7" points="364.89,326.79 503.5,407.34 596.22,353.8 457.61,273.26 			"/>
		</g>
		<g>
			<g>
				<polygon class="st7" points="379.36,400.72 379.77,449.17 489.57,512.98 489.16,464.53 				"/>
			</g>
			<g>
				<g>
					<path class="st6" d="M446.59,456.07c-10.12-5.88-20.25-11.77-30.37-17.65c-1.67-0.97-3.18,1.62-1.51,2.59
						c10.12,5.88,20.25,11.77,30.37,17.65C446.75,459.63,448.26,457.04,446.59,456.07L446.59,456.07z"/>
				</g>
			</g>
		</g>
		<g>
			<g>
				<polygon class="st7" points="375.03,474.37 375.44,522.82 485.24,586.63 484.83,538.18 				"/>
			</g>
			<g>
				<g>
					<path class="st6" d="M446.59,529.72c-10.12-5.88-20.25-11.77-30.37-17.65c-1.67-0.97-3.18,1.62-1.51,2.59
						c10.12,5.88,20.25,11.77,30.37,17.65C446.75,533.28,448.26,530.69,446.59,529.72L446.59,529.72z"/>
				</g>
			</g>
		</g>
		<g>
			<g>
				<polygon class="st7" points="375.03,527.81 375.44,576.26 485.24,640.06 484.83,591.61 				"/>
			</g>
			<g>
				<g>
					<path class="st6" d="M442.26,583.15c-10.12-5.88-20.25-11.77-30.37-17.65c-1.67-0.97-3.18,1.62-1.51,2.59
						c10.12,5.88,20.25,11.77,30.37,17.65C442.42,586.72,443.93,584.12,442.26,583.15L442.26,583.15z"/>
				</g>
			</g>
		</g>
		<polygon class="st9" points="379.41,347.56 379.82,396 297.05,444.4 297.05,396.74 		"/>
		<g>
			<polygon class="st5" points="490.7,460.2 406.47,508.83 297.05,444.4 379.36,395.3 			"/>
		</g>
		<g>
			<g>
				<polygon class="st8" points="459.26,405.45 459.54,438.77 384.02,394.88 383.73,361.56 				"/>
			</g>
			<g>
				<polygon class="st10" points="459.33,405.45 434.91,419.41 359.89,374.71 382.74,360.81 				"/>
			</g>
			<polygon class="st11" points="459.26,405.45 459.54,439.76 434.91,454.18 434.91,419.41 			"/>
			<g>
				<polygon class="st12" points="435.9,419.41 435.7,453.67 360.18,408.79 359.89,374.47 				"/>
			</g>
		</g>
		<g>
			<g>
				<polygon class="st8" points="443.37,432.89 443.65,466.21 368.13,422.32 367.85,389 				"/>
			</g>
			<g>
				<polygon class="st10" points="443.44,432.89 419.02,446.85 344.01,402.15 366.85,388.25 				"/>
			</g>
			<polygon class="st11" points="443.37,432.89 443.65,467.2 419.02,481.62 419.02,446.85 			"/>
			<g>
				<polygon class="st12" points="420.02,446.85 419.81,481.11 344.29,436.23 344.01,401.91 				"/>
			</g>
		</g>
		<polygon class="st9" points="489.16,411.1 489.57,459.55 406.8,507.94 406.8,460.29 		"/>
		<g>
			<g>
				<polygon class="st7" points="297.05,396.39 297.46,444.84 407.26,508.65 406.85,460.2 				"/>
			</g>
			<g>
				<g>
					<path class="st6" d="M368.61,451.74c-10.12-5.88-20.25-11.77-30.37-17.65c-1.67-0.97-3.18,1.62-1.51,2.59
						c10.12,5.88,20.25,11.77,30.37,17.65C368.77,455.3,370.28,452.71,368.61,451.74L368.61,451.74z"/>
				</g>
			</g>
		</g>
	</g>
</g>
</svg>
