<?xml version="1.0" standalone="no"?>
<!DOCTYPE svg PUBLIC "-//W3C//DTD SVG 20010904//EN"
 "http://www.w3.org/TR/2001/REC-SVG-20010904/DTD/svg10.dtd">
<svg version="1.0" xmlns="http://www.w3.org/2000/svg"
 width="430.000000pt" height="231.000000pt" viewBox="0 0 430.000000 231.000000"
 preserveAspectRatio="xMidYMid meet">

<g transform="translate(0.000000,231.000000) scale(0.100000,-0.100000)"
fill="#000000" stroke="none">
<path d="M193 2035 c-45 -105 -42 -164 14 -226 34 -38 34 -38 11 -43 -13 -3
-35 -7 -50 -10 -15 -4 -37 -16 -48 -28 -19 -20 -20 -35 -20 -234 0 -117 3
-219 6 -228 8 -21 60 -21 68 0 3 9 6 90 6 180 0 103 4 164 10 164 10 0 11 -90
10 -653 0 -164 3 -264 10 -277 15 -27 75 -28 90 -1 6 12 10 123 10 290 0 210
3 271 13 271 9 0 11 -59 9 -270 -2 -180 1 -276 8 -290 15 -27 75 -28 90 -1 6
13 10 169 10 440 0 396 -1 420 -18 425 -31 10 -101 87 -127 140 -35 71 -64
196 -73 307 l-7 94 -22 -50z"/>
<path d="M1130 1533 c-18 -76 -35 -144 -37 -150 -3 -8 3 -13 15 -13 14 0 21 9
26 30 4 24 11 30 31 30 20 0 29 -7 36 -30 9 -24 17 -30 40 -30 17 0 29 5 29
13 -1 6 -16 73 -34 147 -28 115 -36 135 -53 138 -19 3 -24 -10 -53 -135z m50
-44 c0 -11 -7 -19 -16 -19 -11 0 -14 5 -10 16 3 9 6 20 6 25 0 6 5 7 10 4 6
-3 10 -15 10 -26z"/>
<path d="M1320 1650 c-35 -35 -26 -81 26 -142 60 -70 69 -87 50 -94 -25 -10
-51 0 -61 24 -5 12 -18 22 -28 22 -16 0 -18 -5 -13 -27 14 -60 80 -81 130 -42
44 34 36 75 -29 155 -43 52 -53 70 -44 80 19 23 40 16 52 -16 12 -32 15 -34
36 -21 15 10 8 43 -15 66 -22 22 -80 19 -104 -5z"/>
<path d="M1505 1650 c-35 -39 -25 -82 34 -150 55 -63 60 -90 18 -90 -16 0 -28
9 -35 25 -13 29 -42 34 -42 6 0 -10 9 -30 21 -45 28 -35 80 -36 114 -1 42 41
33 74 -42 160 -47 54 -52 69 -27 79 19 7 41 -8 49 -34 9 -27 44 -15 37 13 -13
58 -89 79 -127 37z"/>
<path d="M1670 1520 l0 -150 65 0 c58 0 65 2 65 20 0 16 -7 20 -35 20 l-36 0
3 73 c2 48 7 72 16 73 6 1 17 2 22 3 23 3 9 31 -15 31 -20 0 -25 5 -25 26 0
20 5 25 23 24 38 -3 47 -1 47 15 0 12 -14 15 -65 15 l-65 0 0 -150z"/>
<path d="M1850 1650 c-36 -36 -27 -80 30 -148 28 -33 50 -67 50 -77 0 -25 -53
-16 -65 13 -5 12 -18 22 -28 22 -16 0 -18 -5 -13 -27 15 -62 87 -83 131 -38
40 39 33 73 -30 151 -43 52 -53 70 -44 80 18 22 39 16 52 -14 11 -26 47 -35
47 -11 0 15 -21 53 -34 61 -22 15 -76 8 -96 -12z"/>
<path d="M2035 1650 c-34 -38 -23 -84 35 -151 54 -62 59 -89 17 -89 -16 0 -28
9 -35 25 -13 29 -42 34 -42 6 0 -10 9 -30 21 -45 38 -48 120 -28 134 33 8 36
-4 59 -62 127 -47 56 -51 69 -27 78 19 7 41 -8 49 -34 9 -27 44 -15 37 13 -13
58 -89 79 -127 37z"/>
<path d="M2220 1650 c-18 -18 -20 -33 -20 -128 0 -125 7 -141 65 -149 31 -4
46 0 68 17 26 21 27 23 27 131 0 128 -11 149 -80 149 -27 0 -47 -7 -60 -20z
m78 -129 c-3 -91 -5 -106 -20 -109 -16 -3 -18 7 -18 106 0 60 3 111 6 115 3 3
12 3 20 0 12 -4 14 -27 12 -112z"/>
<path d="M2400 1663 c-1 -5 -2 -72 -3 -150 l-2 -143 32 0 33 0 0 70 c0 39 4
70 8 70 21 0 32 -29 32 -82 0 -58 0 -58 30 -58 30 0 30 0 30 58 0 33 -6 66
-14 78 -12 17 -12 22 0 39 8 10 14 33 14 51 0 48 -38 74 -106 74 -30 0 -54 -3
-54 -7z m98 -66 c3 -28 -12 -57 -29 -57 -5 0 -9 21 -9 46 0 38 3 45 18 42 10
-2 18 -14 20 -31z"/>
<path d="M2590 1520 l0 -150 30 0 30 0 0 150 0 150 -30 0 -30 0 0 -150z"/>
<path d="M2732 1623 c-6 -27 -22 -94 -35 -150 -23 -97 -24 -103 -7 -103 12 0
21 10 25 30 5 25 12 30 35 30 23 0 29 -5 34 -30 5 -25 10 -30 36 -30 17 0 30
5 30 13 0 6 -15 74 -32 150 -29 122 -35 137 -54 137 -16 0 -23 -10 -32 -47z
m28 -128 c0 -14 -6 -25 -14 -25 -9 0 -12 8 -8 25 2 14 8 25 13 25 5 0 9 -11 9
-25z"/>
<path d="M462 1386 c2 -108 6 -139 18 -146 10 -7 11 -10 3 -10 -18 0 -19 -540
-1 -558 14 -14 52 -16 43 -2 -3 5 0 7 9 4 31 -12 36 31 36 300 0 230 2 266 15
266 13 0 15 -33 15 -241 0 -205 2 -240 14 -230 11 9 14 8 12 -6 -1 -13 5 -17
19 -15 15 3 17 1 9 -8 -9 -9 -17 -9 -33 -1 -18 10 -21 9 -21 -9 0 -12 6 -20
13 -19 6 1 19 1 27 0 12 -1 12 -4 -3 -12 -9 -5 -23 -7 -30 -3 -8 5 -9 4 -2 -4
13 -13 67 -3 58 11 -3 6 -1 7 5 3 15 -9 4 -36 -13 -30 -7 3 -15 1 -19 -4 -3
-5 4 -8 16 -7 31 2 42 32 43 113 1 74 -2 81 -23 60 -20 -20 -13 2 8 24 19 21
20 36 20 330 0 188 -4 307 -9 303 -5 -3 -12 -1 -15 3 -3 5 -34 10 -68 11 -35
0 -82 4 -106 7 l-44 7 4 -137z m208 104 c0 -5 -2 -10 -4 -10 -3 0 -8 5 -11 10
-3 6 -1 10 4 10 6 0 11 -4 11 -10z m-23 -30 c-1 -20 -27 -38 -27 -19 0 8 20
37 27 39 1 0 1 -9 0 -20z m-62 -58 c-3 -4 -10 0 -15 7 -6 11 -9 10 -13 -5 -2
-10 -5 1 -6 26 l-1 45 21 -34 c11 -18 17 -36 14 -39z m8 -26 c-10 -13 -20 -22
-22 -20 -4 4 29 44 36 44 2 0 -4 -11 -14 -24z m87 -566 c0 -5 -4 -10 -10 -10
-5 0 -10 5 -10 10 0 6 5 10 10 10 6 0 10 -4 10 -10z"/>
<path d="M729 1488 c-5 -54 5 -225 13 -235 14 -17 33 -16 52 3 12 12 16 37 16
110 l0 94 -40 20 c-29 15 -40 17 -41 8z"/>
<path d="M2080 1195 c-61 -19 -128 -78 -156 -138 -30 -66 -25 -75 36 -67 32 4
51 2 53 -4 2 -6 10 9 18 34 19 64 82 126 137 135 65 11 137 -11 183 -55 l39
-37 0 70 c0 57 -2 67 -13 58 -11 -8 -26 -7 -63 4 -61 18 -174 18 -234 0z"/>
<path d="M3402 1108 c-39 -101 -44 -141 -16 -117 7 6 17 8 23 5 5 -3 16 13 26
36 l17 42 17 -39 c17 -39 18 -39 73 -40 l56 -1 -25 65 c-14 36 -32 85 -41 109
-15 39 -19 42 -53 42 l-38 0 -39 -102z"/>
<path d="M1058 1190 c21 -9 22 -15 22 -105 l0 -95 60 0 60 0 0 70 c0 82 14 96
85 85 60 -9 118 -53 141 -108 l19 -45 55 2 c54 3 55 4 53 31 -5 65 -84 138
-176 162 -59 15 -358 18 -319 3z"/>
<path d="M1648 1190 c21 -9 22 -15 22 -105 l0 -95 60 0 60 0 0 95 c0 90 1 96
23 105 15 6 -10 9 -83 9 -73 0 -98 -3 -82 -9z"/>
<path d="M2518 1193 c20 -4 22 -10 22 -72 0 -38 3 -83 6 -100 6 -30 8 -31 60
-31 l54 0 0 88 c0 90 4 105 30 115 8 3 -32 5 -90 5 -58 0 -95 -3 -82 -5z"/>
<path d="M2760 1133 c1 -66 1 -67 14 -37 17 38 59 56 117 52 l44 -3 3 -77 3
-78 53 0 c62 0 66 6 66 103 l0 57 44 0 c63 0 95 -15 111 -52 14 -33 14 -33 15
35 l0 67 -235 0 -235 0 0 -67z"/>
<path d="M3838 1190 c21 -9 22 -15 22 -102 l0 -94 60 -2 59 -2 3 97 c3 94 4
97 28 104 14 4 -24 7 -85 7 -75 1 -103 -2 -87 -8z"/>
<path d="M1080 791 c0 -122 -1 -129 -22 -145 -22 -15 -14 -16 132 -12 178 4
235 18 297 70 40 35 75 100 86 163 6 28 3 34 -17 39 -12 3 -42 4 -67 2 l-44
-3 -7 -48 c-3 -26 -15 -62 -25 -80 -37 -62 -127 -100 -186 -78 -27 10 -27 11
-27 116 l0 105 -60 0 -60 0 0 -129z"/>
<path d="M3860 789 c0 -122 -1 -131 -20 -136 -59 -16 2 -23 189 -23 l209 0 7
43 c16 107 17 113 3 93 -47 -70 -50 -71 -153 -75 -74 -2 -100 0 -106 10 -5 8
-9 60 -9 117 l0 102 -60 0 -60 0 0 -131z"/>
<path d="M3311 888 c-61 -158 -87 -216 -102 -230 -11 -9 -19 -19 -19 -22 0 -3
35 -6 78 -6 75 0 76 1 55 18 l-21 17 22 60 23 60 105 3 105 3 21 -57 c27 -68
27 -73 5 -90 -15 -11 -3 -13 86 -14 l104 0 -20 23 c-11 12 -28 42 -37 67 -10
25 -31 78 -48 118 l-30 72 -64 0 c-61 0 -64 -1 -54 -19 19 -37 12 -41 -70 -41
l-80 0 10 26 c14 35 14 34 -25 34 -28 0 -37 -5 -44 -22z"/>
<path d="M1670 779 c0 -112 -1 -121 -20 -126 -49 -13 -11 -23 86 -23 67 0 103
4 99 10 -3 6 -12 10 -19 10 -20 0 -26 33 -26 148 l0 102 -60 0 -60 0 0 -121z"/>
<path d="M1893 855 c13 -92 66 -161 157 -204 47 -22 68 -26 150 -26 61 1 116
7 153 18 l57 18 0 117 0 117 -60 -3 -60 -4 0 -94 c0 -92 -1 -95 -26 -104 -103
-39 -211 30 -235 150 l-12 60 -65 0 -65 0 6 -45z"/>
<path d="M2540 780 c0 -113 -1 -122 -20 -127 -50 -13 -11 -23 88 -22 83 0 102
3 85 11 -21 10 -23 18 -25 132 l-3 121 -62 3 -63 3 0 -121z"/>
<path d="M2930 776 c0 -119 -1 -124 -22 -132 -18 -6 -12 -8 29 -11 80 -6 173
1 146 11 -22 8 -23 13 -23 132 l0 124 -65 0 -65 0 0 -124z"/>
<path d="M1080 517 l0 -43 57 1 c50 0 58 3 62 20 5 27 19 35 62 35 47 0 98
-17 127 -43 12 -11 22 -16 22 -11 0 5 5 2 10 -6 6 -9 10 -10 10 -3 0 8 14 10
41 8 40 -4 40 -3 26 18 -8 12 -29 32 -47 45 -31 21 -43 22 -201 22 l-169 0 0
-43z m383 -22 c-3 -9 -8 -14 -10 -11 -3 3 -2 9 2 15 9 16 15 13 8 -4z m-23 -1
c0 -8 -19 -13 -24 -6 -3 5 1 9 9 9 8 0 15 -2 15 -3z"/>
<path d="M1672 518 l3 -42 55 -1 55 0 3 43 3 42 -61 0 -61 0 3 -42z"/>
</g>
</svg>
