<svg xmlns="http://www.w3.org/2000/svg" xmlns:xlink="http://www.w3.org/1999/xlink" width="500" zoomAndPan="magnify" viewBox="0 0 375 374.999991" height="500" preserveAspectRatio="xMidYMid meet" version="1.0"><defs><clipPath id="15859f28d0"><path d="M 19 27.667969 L 356.886719 27.667969 L 356.886719 363.667969 L 19 363.667969 Z M 19 27.667969 " clip-rule="nonzero"/></clipPath><clipPath id="6488f00dd7"><path d="M 172 344 L 192 344 L 192 363.667969 L 172 363.667969 Z M 172 344 " clip-rule="nonzero"/></clipPath><clipPath id="9633ae2079"><path d="M 134.585938 11.078125 L 240.335938 11.078125 L 240.335938 87.578125 L 134.585938 87.578125 Z M 134.585938 11.078125 " clip-rule="nonzero"/></clipPath><clipPath id="66cdf990dc"><path d="M 178 11.078125 L 240.335938 11.078125 L 240.335938 87.578125 L 178 87.578125 Z M 178 11.078125 " clip-rule="nonzero"/></clipPath></defs><g clip-path="url(#15859f28d0)"><path fill="#1ba553" d="M 187.269531 27.976562 C 93.160156 28.292969 17.945312 104.808594 19.171875 198.902344 C 19.230469 203.628906 19.484375 208.347656 19.9375 213.054688 C 20.390625 217.757812 21.042969 222.4375 21.894531 227.089844 C 22.742188 231.738281 23.785156 236.347656 25.023438 240.910156 C 26.261719 245.472656 27.691406 249.972656 29.308594 254.417969 C 30.929688 258.859375 32.730469 263.222656 34.71875 267.515625 C 36.707031 271.804688 38.871094 276.003906 41.210938 280.109375 C 43.554688 284.21875 46.0625 288.21875 48.742188 292.113281 C 51.421875 296.007812 54.261719 299.785156 57.261719 303.441406 C 57.730469 304.015625 58.15625 304.625 58.539062 305.265625 C 58.917969 305.90625 59.246094 306.574219 59.527344 307.261719 C 59.808594 307.953125 60.035156 308.660156 60.210938 309.382812 C 60.386719 310.109375 60.503906 310.839844 60.570312 311.582031 C 60.636719 312.324219 60.644531 313.070312 60.597656 313.8125 C 60.550781 314.554688 60.449219 315.292969 60.292969 316.019531 C 60.136719 316.75 59.929688 317.460938 59.664062 318.15625 C 59.402344 318.855469 59.089844 319.527344 58.726562 320.179688 L 44.195312 346.214844 C 40.164062 353.4375 46.730469 361.972656 54.742188 359.929688 L 103.957031 347.402344 C 105.675781 346.964844 107.414062 346.835938 109.175781 347.019531 C 110.9375 347.199219 112.613281 347.675781 114.207031 348.453125 C 124.148438 353.285156 134.464844 357.09375 145.160156 359.882812 C 145.820312 360.054688 146.492188 360.160156 147.175781 360.199219 C 147.855469 360.238281 148.535156 360.210938 149.210938 360.117188 C 149.886719 360.023438 150.546875 359.867188 151.191406 359.640625 C 151.835938 359.417969 152.453125 359.132812 153.042969 358.785156 C 153.632812 358.441406 154.179688 358.042969 154.691406 357.589844 C 155.199219 357.132812 155.660156 356.636719 156.074219 356.089844 C 156.484375 355.546875 156.839844 354.96875 157.136719 354.351562 C 157.433594 353.738281 157.667969 353.101562 157.839844 352.441406 C 158.011719 351.78125 158.117188 351.109375 158.15625 350.425781 C 158.199219 349.746094 158.171875 349.066406 158.078125 348.390625 C 157.984375 347.714844 157.824219 347.054688 157.597656 346.410156 C 157.375 345.765625 157.089844 345.148438 156.746094 344.558594 C 156.398438 343.972656 156 343.421875 155.546875 342.914062 C 155.09375 342.402344 154.59375 341.941406 154.046875 341.53125 C 153.503906 341.117188 152.925781 340.765625 152.308594 340.46875 C 151.695312 340.167969 151.058594 339.933594 150.398438 339.761719 C 147.808594 339.089844 145.246094 338.347656 142.714844 337.535156 C 139.03125 336.351562 135.402344 335.027344 131.824219 333.558594 C 128.242188 332.09375 124.726562 330.488281 121.273438 328.746094 C 117.820312 327.003906 114.441406 325.128906 111.136719 323.121094 C 107.828125 321.113281 104.605469 318.980469 101.46875 316.71875 C 98.328125 314.460938 95.28125 312.082031 92.332031 309.582031 C 89.378906 307.082031 86.527344 304.472656 83.78125 301.75 C 81.03125 299.027344 78.394531 296.203125 75.871094 293.273438 C 73.34375 290.34375 70.9375 287.320312 68.648438 284.203125 C 66.359375 281.085938 64.195312 277.882812 62.15625 274.597656 C 60.117188 271.308594 58.210938 267.945312 56.4375 264.511719 C 54.664062 261.074219 53.027344 257.574219 51.527344 254.007812 C 50.027344 250.441406 48.667969 246.824219 47.453125 243.152344 C 46.234375 239.480469 45.164062 235.769531 44.238281 232.011719 C 43.316406 228.257812 42.539062 224.472656 41.910156 220.65625 C 41.28125 216.839844 40.804688 213.003906 40.476562 209.148438 C 40.148438 205.296875 39.972656 201.433594 39.945312 197.566406 C 39.453125 115.863281 104.882812 49.441406 186.59375 48.765625 C 268.539062 48.085938 335.238281 114.042969 335.75 195.703125 C 336.210938 268.648438 282.695312 330.234375 213.015625 342.375 C 212.417969 342.480469 211.832031 342.636719 211.261719 342.84375 C 210.691406 343.050781 210.140625 343.308594 209.613281 343.613281 C 209.089844 343.914062 208.59375 344.261719 208.125 344.652344 C 207.660156 345.042969 207.234375 345.472656 206.84375 345.9375 C 206.453125 346.402344 206.105469 346.898438 205.800781 347.425781 C 205.496094 347.953125 205.242188 348.5 205.035156 349.070312 C 204.824219 349.640625 204.667969 350.226562 204.5625 350.824219 C 204.460938 351.425781 204.40625 352.027344 204.40625 352.636719 C 204.40625 353.011719 204.425781 353.390625 204.46875 353.765625 C 204.507812 354.140625 204.570312 354.511719 204.652344 354.882812 C 204.730469 355.25 204.832031 355.613281 204.953125 355.972656 C 205.074219 356.328125 205.214844 356.679688 205.375 357.023438 C 205.53125 357.367188 205.710938 357.699219 205.90625 358.023438 C 206.101562 358.34375 206.3125 358.65625 206.542969 358.957031 C 206.769531 359.257812 207.015625 359.542969 207.277344 359.820312 C 207.535156 360.09375 207.808594 360.351562 208.097656 360.59375 C 208.386719 360.839844 208.6875 361.066406 209 361.277344 C 209.316406 361.488281 209.636719 361.683594 209.972656 361.859375 C 210.308594 362.035156 210.648438 362.191406 211 362.328125 C 211.351562 362.46875 211.710938 362.585938 212.074219 362.6875 C 212.441406 362.785156 212.808594 362.867188 213.179688 362.925781 C 213.554688 362.984375 213.929688 363.023438 214.308594 363.042969 C 214.683594 363.0625 215.0625 363.058594 215.4375 363.039062 C 215.816406 363.015625 216.191406 362.972656 216.5625 362.910156 C 295.789062 349.371094 356.28125 280.691406 356.539062 197.191406 C 356.832031 103.59375 280.878906 27.660156 187.269531 27.976562 Z M 187.269531 27.976562 " fill-opacity="1" fill-rule="nonzero"/></g><path fill="#1ba553" d="M 161.414062 124.753906 L 161.484375 124.890625 L 170.304688 142.382812 C 170.777344 143.324219 171.175781 144.296875 171.492188 145.300781 C 171.808594 146.304688 172.042969 147.328125 172.195312 148.371094 C 172.347656 149.414062 172.417969 150.460938 172.398438 151.515625 C 172.382812 152.570312 172.28125 153.613281 172.097656 154.652344 C 171.910156 155.6875 171.644531 156.703125 171.292969 157.699219 C 170.945312 158.691406 170.515625 159.652344 170.011719 160.578125 C 169.507812 161.503906 168.933594 162.382812 168.285156 163.214844 C 167.640625 164.046875 166.933594 164.820312 166.160156 165.539062 C 165.394531 166.253906 164.6875 167.019531 164.042969 167.847656 C 163.398438 168.671875 162.824219 169.546875 162.320312 170.464844 C 161.816406 171.382812 161.386719 172.335938 161.039062 173.320312 C 160.6875 174.308594 160.417969 175.316406 160.226562 176.347656 C 160.039062 177.378906 159.933594 178.417969 159.914062 179.464844 C 159.890625 180.511719 159.953125 181.554688 160.097656 182.589844 C 160.242188 183.628906 160.472656 184.648438 160.78125 185.648438 C 161.089844 186.648438 161.476562 187.617188 161.945312 188.558594 C 167.238281 199.191406 176.414062 213.847656 190.414062 224.421875 C 191.195312 225.015625 192.015625 225.546875 192.875 226.015625 C 193.734375 226.484375 194.625 226.886719 195.542969 227.222656 C 196.464844 227.5625 197.402344 227.828125 198.363281 228.023438 C 199.324219 228.21875 200.292969 228.34375 201.269531 228.394531 C 202.25 228.445312 203.226562 228.425781 204.199219 228.328125 C 205.175781 228.234375 206.136719 228.066406 207.089844 227.828125 C 208.039062 227.589844 208.964844 227.28125 209.871094 226.902344 C 210.773438 226.527344 211.644531 226.085938 212.480469 225.578125 L 218.164062 222.121094 C 219.4375 221.34375 220.78125 220.722656 222.199219 220.253906 C 223.613281 219.785156 225.066406 219.484375 226.550781 219.347656 C 228.035156 219.210938 229.515625 219.242188 230.992188 219.445312 C 232.472656 219.644531 233.90625 220.011719 235.300781 220.539062 L 257.882812 229.125 C 258.484375 229.355469 259.070312 229.609375 259.644531 229.894531 C 260.21875 230.183594 260.777344 230.496094 261.320312 230.835938 C 261.867188 231.175781 262.390625 231.542969 262.898438 231.933594 C 263.40625 232.328125 263.894531 232.742188 264.359375 233.183594 C 264.828125 233.625 265.273438 234.085938 265.691406 234.570312 C 266.113281 235.054688 266.511719 235.554688 266.882812 236.078125 C 267.253906 236.601562 267.601562 237.140625 267.917969 237.699219 C 268.238281 238.253906 268.53125 238.824219 268.792969 239.410156 C 269.054688 239.996094 269.289062 240.59375 269.492188 241.203125 C 269.695312 241.808594 269.871094 242.425781 270.015625 243.050781 C 270.160156 243.675781 270.269531 244.308594 270.351562 244.945312 C 270.433594 245.582031 270.484375 246.21875 270.503906 246.859375 C 270.523438 247.5 270.507812 248.140625 270.464844 248.78125 C 270.421875 249.421875 270.347656 250.058594 270.238281 250.691406 C 270.132812 251.324219 269.996094 251.949219 269.828125 252.570312 C 269.660156 253.1875 269.460938 253.796875 269.234375 254.398438 C 268.96875 255.085938 268.667969 255.761719 268.328125 256.417969 L 262.074219 268.542969 C 261.566406 269.523438 260.980469 270.457031 260.316406 271.339844 C 259.652344 272.21875 258.917969 273.039062 258.117188 273.796875 C 257.316406 274.554688 256.453125 275.242188 255.535156 275.855469 C 254.617188 276.46875 253.65625 277 252.644531 277.449219 C 251.636719 277.898438 250.597656 278.261719 249.53125 278.535156 C 248.460938 278.808594 247.375 278.992188 246.277344 279.082031 C 245.175781 279.175781 244.074219 279.171875 242.976562 279.078125 C 241.875 278.984375 240.792969 278.796875 239.722656 278.519531 C 204.257812 269.34375 119.734375 237.453125 112.925781 141.019531 C 112.859375 140.066406 112.859375 139.113281 112.933594 138.164062 C 113.003906 137.210938 113.144531 136.269531 113.355469 135.339844 C 113.5625 134.40625 113.839844 133.496094 114.179688 132.605469 C 114.523438 131.714844 114.929688 130.855469 115.394531 130.023438 C 115.863281 129.191406 116.390625 128.398438 116.972656 127.644531 C 117.558594 126.886719 118.191406 126.179688 118.878906 125.515625 C 119.566406 124.855469 120.300781 124.246094 121.074219 123.691406 C 121.851562 123.136719 122.664062 122.640625 123.511719 122.203125 L 135.03125 116.289062 C 135.601562 115.996094 136.183594 115.730469 136.78125 115.496094 C 137.378906 115.257812 137.984375 115.050781 138.601562 114.875 C 139.21875 114.699219 139.84375 114.554688 140.472656 114.4375 C 141.105469 114.324219 141.742188 114.238281 142.378906 114.1875 C 143.019531 114.132812 143.660156 114.113281 144.300781 114.121094 C 144.945312 114.132812 145.582031 114.175781 146.222656 114.246094 C 146.859375 114.320312 147.492188 114.425781 148.117188 114.558594 C 148.746094 114.695312 149.363281 114.859375 149.976562 115.058594 C 150.585938 115.253906 151.1875 115.476562 151.777344 115.734375 C 152.363281 115.988281 152.941406 116.269531 153.5 116.582031 C 154.0625 116.894531 154.605469 117.234375 155.132812 117.597656 C 155.660156 117.960938 156.171875 118.351562 156.660156 118.765625 C 157.148438 119.183594 157.617188 119.621094 158.0625 120.082031 C 158.511719 120.542969 158.933594 121.023438 159.332031 121.527344 C 159.730469 122.027344 160.105469 122.550781 160.453125 123.089844 C 160.800781 123.628906 161.121094 124.183594 161.414062 124.753906 Z M 161.414062 124.753906 " fill-opacity="1" fill-rule="nonzero"/><g clip-path="url(#6488f00dd7)"><path fill="#1ba553" d="M 191.597656 354.101562 C 191.597656 354.726562 191.539062 355.347656 191.414062 355.964844 C 191.292969 356.578125 191.113281 357.175781 190.871094 357.753906 C 190.632812 358.335938 190.335938 358.886719 189.988281 359.40625 C 189.640625 359.929688 189.246094 360.410156 188.800781 360.855469 C 188.359375 361.296875 187.875 361.695312 187.351562 362.042969 C 186.832031 362.390625 186.28125 362.6875 185.703125 362.925781 C 185.121094 363.164062 184.523438 363.347656 183.910156 363.46875 C 183.292969 363.589844 182.671875 363.652344 182.046875 363.652344 C 181.417969 363.652344 180.796875 363.589844 180.183594 363.46875 C 179.566406 363.347656 178.96875 363.164062 178.390625 362.925781 C 177.808594 362.6875 177.261719 362.390625 176.738281 362.042969 C 176.214844 361.695312 175.734375 361.296875 175.289062 360.855469 C 174.847656 360.410156 174.449219 359.929688 174.101562 359.40625 C 173.753906 358.886719 173.460938 358.335938 173.21875 357.753906 C 172.980469 357.175781 172.796875 356.578125 172.675781 355.964844 C 172.554688 355.347656 172.492188 354.726562 172.492188 354.101562 C 172.492188 353.472656 172.554688 352.851562 172.675781 352.238281 C 172.796875 351.621094 172.980469 351.023438 173.21875 350.445312 C 173.460938 349.863281 173.753906 349.316406 174.101562 348.792969 C 174.449219 348.273438 174.847656 347.789062 175.289062 347.34375 C 175.734375 346.902344 176.214844 346.507812 176.738281 346.15625 C 177.261719 345.808594 177.808594 345.515625 178.390625 345.273438 C 178.96875 345.035156 179.566406 344.855469 180.183594 344.730469 C 180.796875 344.609375 181.417969 344.546875 182.046875 344.546875 C 182.671875 344.546875 183.292969 344.609375 183.910156 344.730469 C 184.523438 344.851562 185.121094 345.035156 185.703125 345.273438 C 186.28125 345.515625 186.832031 345.808594 187.351562 346.15625 C 187.875 346.507812 188.359375 346.902344 188.800781 347.34375 C 189.246094 347.789062 189.640625 348.273438 189.988281 348.792969 C 190.335938 349.316406 190.632812 349.863281 190.871094 350.445312 C 191.113281 351.023438 191.292969 351.621094 191.414062 352.238281 C 191.539062 352.851562 191.597656 353.472656 191.597656 354.101562 Z M 191.597656 354.101562 " fill-opacity="1" fill-rule="nonzero"/></g><g clip-path="url(#9633ae2079)"><path fill="#006600" d="M 240.308594 75.808594 C 240.308594 82.308594 235.046875 87.578125 228.5625 87.578125 L 146.359375 87.578125 C 139.875 87.578125 134.617188 82.308594 134.617188 75.808594 L 134.617188 22.847656 C 134.617188 16.347656 139.875 11.078125 146.359375 11.078125 L 228.5625 11.078125 C 235.046875 11.078125 240.308594 16.347656 240.308594 22.847656 Z M 240.308594 75.808594 " fill-opacity="1" fill-rule="nonzero"/></g><g clip-path="url(#66cdf990dc)"><path fill="#d52b1e" d="M 228.5625 11.078125 L 178.652344 11.078125 L 178.652344 87.578125 L 228.5625 87.578125 C 235.046875 87.578125 240.308594 82.308594 240.308594 75.808594 L 240.308594 22.847656 C 240.308594 16.347656 235.046875 11.078125 228.5625 11.078125 Z M 228.5625 11.078125 " fill-opacity="1" fill-rule="nonzero"/></g><path fill="#ffcc4d" d="M 178.652344 25.789062 C 165.683594 25.789062 155.167969 36.328125 155.167969 49.328125 C 155.167969 62.324219 165.683594 72.867188 178.652344 72.867188 C 191.625 72.867188 202.140625 62.324219 202.140625 49.328125 C 202.140625 36.328125 191.625 25.789062 178.652344 25.789062 Z M 190.378906 43.257812 L 196.511719 39.160156 C 197.953125 41.699219 198.871094 44.570312 199.121094 47.636719 Z M 181.589844 66.980469 L 189.199219 66.980469 C 186.914062 68.355469 184.339844 69.292969 181.589844 69.6875 Z M 158.1875 47.636719 C 158.433594 44.632812 159.3125 41.804688 160.707031 39.304688 L 165.410156 44.019531 Z M 158.1875 51.011719 L 169.1875 56.527344 L 170.5 53.894531 L 161.386719 49.328125 L 167.597656 46.214844 L 171.742188 50.367188 L 173.820312 48.289062 L 170.367188 44.828125 L 170.5 44.761719 L 169.1875 42.125 L 168.179688 42.632812 L 165.316406 39.765625 L 169.605469 40.480469 L 170.085938 37.582031 L 162.707031 36.347656 C 165.890625 32.425781 170.488281 29.71875 175.71875 28.96875 L 175.71875 64.039062 L 166.621094 64.039062 L 173.59375 59.378906 L 171.964844 56.929688 L 163.160156 62.8125 L 163.199219 62.875 C 160.382812 59.648438 158.554688 55.542969 158.1875 51.011719 Z M 175.71875 69.6875 C 172.96875 69.289062 170.394531 68.355469 168.109375 66.980469 L 175.71875 66.980469 Z M 194.175781 62.800781 L 185.566406 54.171875 L 183.488281 56.253906 L 184.871094 57.640625 L 183.710938 59.378906 L 190.6875 64.039062 L 181.589844 64.039062 L 181.589844 28.964844 C 185.46875 29.523438 189 31.144531 191.863281 33.558594 L 184.0625 36.164062 L 184.988281 38.957031 L 193.796875 36.011719 L 193.496094 35.105469 C 193.984375 35.617188 194.441406 36.15625 194.878906 36.71875 L 186.644531 42.21875 L 187.460938 43.441406 L 186.804688 44.757812 L 195.921875 49.328125 L 186.808594 53.894531 L 188.121094 56.53125 L 199.121094 51.015625 C 198.753906 55.507812 196.957031 59.585938 194.175781 62.800781 Z M 194.175781 62.800781 " fill-opacity="1" fill-rule="nonzero"/><path fill="#d52b1e" d="M 166.910156 34.617188 L 166.910156 55.210938 C 166.910156 61.710938 172.167969 66.980469 178.652344 66.980469 C 185.140625 66.980469 190.398438 61.710938 190.398438 55.210938 L 190.398438 34.617188 Z M 166.910156 34.617188 " fill-opacity="1" fill-rule="nonzero"/><path fill="#ffffff" d="M 169.847656 37.558594 L 169.847656 55.210938 C 169.847656 60.082031 173.789062 64.039062 178.652344 64.039062 C 183.519531 64.039062 187.460938 60.082031 187.460938 55.210938 L 187.460938 37.558594 Z M 169.847656 37.558594 " fill-opacity="1" fill-rule="nonzero"/><path fill="#829acd" d="M 172.78125 46.382812 L 184.527344 46.382812 L 184.527344 52.269531 L 172.78125 52.269531 Z M 172.78125 46.382812 " fill-opacity="1" fill-rule="nonzero"/><path fill="#829acd" d="M 175.71875 43.441406 L 181.589844 43.441406 L 181.589844 55.210938 L 175.71875 55.210938 Z M 175.71875 43.441406 " fill-opacity="1" fill-rule="nonzero"/><path fill="#003399" d="M 169.847656 46.382812 L 172.78125 46.382812 L 172.78125 52.269531 L 169.847656 52.269531 Z M 175.71875 46.382812 L 181.589844 46.382812 L 181.589844 52.269531 L 175.71875 52.269531 Z M 184.527344 46.382812 L 187.460938 46.382812 L 187.460938 52.269531 L 184.527344 52.269531 Z M 175.71875 55.210938 L 181.589844 55.210938 L 181.589844 61.097656 L 175.71875 61.097656 Z M 175.71875 37.558594 L 181.589844 37.558594 L 181.589844 43.441406 L 175.71875 43.441406 Z M 175.71875 37.558594 " fill-opacity="1" fill-rule="nonzero"/></svg>