<?xml version="1.0" encoding="utf-8"?>
<!-- Generator: Adobe Illustrator 23.0.0, SVG Export Plug-In . SVG Version: 6.00 Build 0)  -->
<svg version="1.1" id="Layer_1" xmlns="http://www.w3.org/2000/svg" xmlns:xlink="http://www.w3.org/1999/xlink" x="0px" y="0px"
	 viewBox="0 0 1000 1000" style="enable-background:new 0 0 1000 1000;" xml:space="preserve">
<style type="text/css">
	.st0{clip-path:url(#SVGID_2_);fill:#2A2939;}
	.st1{opacity:0.15;}
	.st2{clip-path:url(#SVGID_4_);}
	.st3{fill:none;stroke:#77DFF7;stroke-width:0.5;stroke-miterlimit:10;}
	.st4{fill:url(#SVGID_5_);}
	.st5{fill:#1B6D8D;}
	.st6{fill:#D4FBFC;}
	.st7{fill:#B5E2E2;}
	.st8{fill:#134C62;}
</style>
<g>
	<defs>
		<rect id="SVGID_1_" width="1000" height="1000"/>
	</defs>
	<clipPath id="SVGID_2_">
		<use xlink:href="#SVGID_1_"  style="overflow:visible;"/>
	</clipPath>
	<rect x="-80" y="-84" class="st0" width="1196" height="1196"/>
</g>
<g class="st1">
	<defs>
		<rect id="SVGID_3_" class="st1" width="1000" height="1000"/>
	</defs>
	<clipPath id="SVGID_4_">
		<use xlink:href="#SVGID_3_"  style="overflow:visible;"/>
	</clipPath>
	<g class="st2">
		<polygon class="st3" points="500,1360.19 1989.9,500 500,-360.19 -989.9,500 		"/>
		<line class="st3" x1="-960.69" y1="516.87" x2="529.22" y2="-343.33"/>
		<line class="st3" x1="-931.47" y1="533.74" x2="558.43" y2="-326.46"/>
		<line class="st3" x1="-902.26" y1="550.6" x2="587.65" y2="-309.59"/>
		<line class="st3" x1="-873.05" y1="567.47" x2="616.86" y2="-292.73"/>
		<line class="st3" x1="-843.83" y1="584.34" x2="646.07" y2="-275.86"/>
		<line class="st3" x1="-814.62" y1="601.2" x2="675.29" y2="-259"/>
		<line class="st3" x1="-785.4" y1="618.07" x2="704.5" y2="-242.13"/>
		<line class="st3" x1="-756.19" y1="634.93" x2="733.71" y2="-225.26"/>
		<line class="st3" x1="-726.98" y1="651.8" x2="762.93" y2="-208.4"/>
		<line class="st3" x1="-697.76" y1="668.67" x2="792.14" y2="-191.53"/>
		<line class="st3" x1="-668.55" y1="685.53" x2="821.35" y2="-174.66"/>
		<line class="st3" x1="-639.34" y1="702.4" x2="850.57" y2="-157.8"/>
		<line class="st3" x1="-610.12" y1="719.27" x2="879.78" y2="-140.93"/>
		<line class="st3" x1="-580.91" y1="736.13" x2="909" y2="-124.06"/>
		<line class="st3" x1="-551.7" y1="753" x2="938.21" y2="-107.2"/>
		<line class="st3" x1="-522.48" y1="769.87" x2="967.42" y2="-90.33"/>
		<line class="st3" x1="-493.27" y1="786.73" x2="996.64" y2="-73.46"/>
		<line class="st3" x1="-464.05" y1="803.6" x2="1025.85" y2="-56.6"/>
		<line class="st3" x1="-434.84" y1="820.47" x2="1055.06" y2="-39.73"/>
		<line class="st3" x1="-405.63" y1="837.33" x2="1084.28" y2="-22.86"/>
		<line class="st3" x1="-376.41" y1="854.2" x2="1113.49" y2="-6"/>
		<line class="st3" x1="-347.2" y1="871.07" x2="1142.7" y2="10.87"/>
		<line class="st3" x1="-317.99" y1="887.93" x2="1171.92" y2="27.74"/>
		<line class="st3" x1="-288.77" y1="904.8" x2="1201.13" y2="44.6"/>
		<line class="st3" x1="-259.56" y1="921.67" x2="1230.35" y2="61.47"/>
		<line class="st3" x1="-230.35" y1="938.53" x2="1259.56" y2="78.33"/>
		<line class="st3" x1="-201.13" y1="955.4" x2="1288.77" y2="95.2"/>
		<line class="st3" x1="-171.92" y1="972.26" x2="1317.99" y2="112.07"/>
		<line class="st3" x1="-142.7" y1="989.13" x2="1347.2" y2="128.93"/>
		<line class="st3" x1="-113.49" y1="1006" x2="1376.41" y2="145.8"/>
		<line class="st3" x1="-84.28" y1="1022.86" x2="1405.63" y2="162.67"/>
		<line class="st3" x1="-55.06" y1="1039.73" x2="1434.84" y2="179.53"/>
		<line class="st3" x1="-25.85" y1="1056.6" x2="1464.05" y2="196.4"/>
		<line class="st3" x1="3.36" y1="1073.46" x2="1493.27" y2="213.27"/>
		<line class="st3" x1="32.58" y1="1090.33" x2="1522.48" y2="230.13"/>
		<line class="st3" x1="61.79" y1="1107.2" x2="1551.7" y2="247"/>
		<line class="st3" x1="91" y1="1124.06" x2="1580.91" y2="263.87"/>
		<line class="st3" x1="120.22" y1="1140.93" x2="1610.12" y2="280.73"/>
		<line class="st3" x1="149.43" y1="1157.8" x2="1639.34" y2="297.6"/>
		<line class="st3" x1="178.65" y1="1174.66" x2="1668.55" y2="314.47"/>
		<line class="st3" x1="207.86" y1="1191.53" x2="1697.76" y2="331.33"/>
		<line class="st3" x1="237.07" y1="1208.4" x2="1726.98" y2="348.2"/>
		<line class="st3" x1="266.29" y1="1225.26" x2="1756.19" y2="365.07"/>
		<line class="st3" x1="295.5" y1="1242.13" x2="1785.4" y2="381.93"/>
		<line class="st3" x1="324.71" y1="1259" x2="1814.62" y2="398.8"/>
		<line class="st3" x1="353.93" y1="1275.86" x2="1843.83" y2="415.66"/>
		<line class="st3" x1="383.14" y1="1292.73" x2="1873.05" y2="432.53"/>
		<line class="st3" x1="412.35" y1="1309.59" x2="1902.26" y2="449.4"/>
		<line class="st3" x1="441.57" y1="1326.46" x2="1931.47" y2="466.26"/>
		<line class="st3" x1="470.78" y1="1343.33" x2="1960.69" y2="483.13"/>
		<line class="st3" x1="1960.69" y1="516.86" x2="470.79" y2="-343.33"/>
		<line class="st3" x1="1931.47" y1="533.73" x2="441.58" y2="-326.46"/>
		<line class="st3" x1="1902.26" y1="550.6" x2="412.36" y2="-309.59"/>
		<line class="st3" x1="1873.04" y1="567.46" x2="383.15" y2="-292.73"/>
		<line class="st3" x1="1843.83" y1="584.33" x2="353.94" y2="-275.86"/>
		<line class="st3" x1="1814.62" y1="601.2" x2="324.72" y2="-258.99"/>
		<line class="st3" x1="1785.4" y1="618.06" x2="295.51" y2="-242.13"/>
		<line class="st3" x1="1756.19" y1="634.93" x2="266.29" y2="-225.26"/>
		<line class="st3" x1="1726.98" y1="651.8" x2="237.08" y2="-208.39"/>
		<line class="st3" x1="1697.76" y1="668.66" x2="207.87" y2="-191.53"/>
		<line class="st3" x1="1668.55" y1="685.53" x2="178.65" y2="-174.66"/>
		<line class="st3" x1="1639.33" y1="702.4" x2="149.44" y2="-157.8"/>
		<line class="st3" x1="1610.12" y1="719.26" x2="120.22" y2="-140.93"/>
		<line class="st3" x1="1580.91" y1="736.13" x2="91.01" y2="-124.06"/>
		<line class="st3" x1="1551.69" y1="753" x2="61.8" y2="-107.2"/>
		<line class="st3" x1="1522.48" y1="769.86" x2="32.58" y2="-90.33"/>
		<line class="st3" x1="1493.27" y1="786.73" x2="3.37" y2="-73.46"/>
		<line class="st3" x1="1464.05" y1="803.6" x2="-25.84" y2="-56.6"/>
		<line class="st3" x1="1434.84" y1="820.46" x2="-55.06" y2="-39.73"/>
		<line class="st3" x1="1405.62" y1="837.33" x2="-84.27" y2="-22.86"/>
		<line class="st3" x1="1376.41" y1="854.2" x2="-113.49" y2="-6"/>
		<line class="st3" x1="1347.2" y1="871.06" x2="-142.7" y2="10.87"/>
		<line class="st3" x1="1317.98" y1="887.93" x2="-171.91" y2="27.74"/>
		<line class="st3" x1="1288.77" y1="904.8" x2="-201.13" y2="44.6"/>
		<line class="st3" x1="1259.55" y1="921.66" x2="-230.34" y2="61.47"/>
		<line class="st3" x1="1230.34" y1="938.53" x2="-259.55" y2="78.34"/>
		<line class="st3" x1="1201.13" y1="955.4" x2="-288.77" y2="95.2"/>
		<line class="st3" x1="1171.91" y1="972.26" x2="-317.98" y2="112.07"/>
		<line class="st3" x1="1142.7" y1="989.13" x2="-347.2" y2="128.94"/>
		<polyline class="st3" points="1113.49,1006 237.08,500 -376.41,145.8 		"/>
		<line class="st3" x1="1084.27" y1="1022.86" x2="-405.62" y2="162.67"/>
		<line class="st3" x1="1055.06" y1="1039.73" x2="-434.84" y2="179.54"/>
		<line class="st3" x1="1025.84" y1="1056.6" x2="-464.05" y2="196.4"/>
		<line class="st3" x1="996.63" y1="1073.46" x2="-493.27" y2="213.27"/>
		<line class="st3" x1="967.42" y1="1090.33" x2="-522.48" y2="230.14"/>
		<line class="st3" x1="938.2" y1="1107.2" x2="-551.69" y2="247"/>
		<line class="st3" x1="908.99" y1="1124.06" x2="-580.91" y2="263.87"/>
		<line class="st3" x1="879.78" y1="1140.93" x2="-610.12" y2="280.74"/>
		<line class="st3" x1="850.56" y1="1157.8" x2="-639.33" y2="297.6"/>
		<line class="st3" x1="821.35" y1="1174.66" x2="-668.55" y2="314.47"/>
		<line class="st3" x1="792.13" y1="1191.53" x2="-697.76" y2="331.34"/>
		<line class="st3" x1="762.92" y1="1208.39" x2="-726.98" y2="348.2"/>
		<line class="st3" x1="733.71" y1="1225.26" x2="-756.19" y2="365.07"/>
		<line class="st3" x1="704.49" y1="1242.13" x2="-785.4" y2="381.94"/>
		<line class="st3" x1="675.28" y1="1258.99" x2="-814.62" y2="398.8"/>
		<line class="st3" x1="646.06" y1="1275.86" x2="-843.83" y2="415.67"/>
		<line class="st3" x1="616.85" y1="1292.73" x2="-873.04" y2="432.54"/>
		<line class="st3" x1="587.64" y1="1309.59" x2="-902.26" y2="449.4"/>
		<line class="st3" x1="558.42" y1="1326.46" x2="-931.47" y2="466.27"/>
		<line class="st3" x1="529.21" y1="1343.33" x2="-960.69" y2="483.14"/>
	</g>
</g>
<g>
	<radialGradient id="SVGID_5_" cx="500" cy="533.3628" r="197.8188" gradientUnits="userSpaceOnUse">
		<stop  offset="1.198083e-07" style="stop-color:#2A2939"/>
		<stop  offset="0.8917" style="stop-color:#2A2939;stop-opacity:0.1083"/>
		<stop  offset="1" style="stop-color:#2A2939;stop-opacity:0"/>
	</radialGradient>
	<ellipse class="st4" cx="500" cy="533.36" rx="242.28" ry="139.88"/>
	<g>
		<path class="st5" d="M616.19,526c-0.01-0.31-0.03-0.63-0.04-0.94c-0.02-0.67-0.06-1.33-0.09-2c-0.04-0.79-0.06-1.57-0.11-2.36
			c-0.04-0.6-0.1-1.21-0.14-1.81c-0.05-0.71-0.11-1.41-0.17-2.12c-0.04-0.47-0.07-0.93-0.11-1.4c-0.1-1-0.22-2.02-0.34-3.02
			c-0.07-0.59-0.12-1.17-0.2-1.76c-0.02-0.19-0.04-0.39-0.06-0.58c-0.23-1.83-0.49-3.66-0.78-5.5c-0.01-0.04-0.01-0.08-0.02-0.12
			c-0.04-0.26-0.09-0.52-0.13-0.77c-0.25-1.55-0.51-3.09-0.8-4.64c-0.05-0.28-0.11-0.55-0.17-0.83c-0.14-0.73-0.3-1.47-0.45-2.2
			c-0.18-0.9-0.35-1.79-0.55-2.69c-0.11-0.5-0.24-0.99-0.35-1.49c-0.18-0.8-0.37-1.6-0.56-2.4c-0.15-0.62-0.28-1.23-0.43-1.85
			c-0.18-0.74-0.39-1.48-0.58-2.21c-0.21-0.8-0.42-1.61-0.63-2.41c-0.11-0.4-0.2-0.79-0.31-1.19c-0.29-1.05-0.61-2.11-0.92-3.16
			c-0.2-0.68-0.39-1.36-0.6-2.05c-0.06-0.19-0.11-0.39-0.17-0.58c-0.58-1.89-1.18-3.78-1.82-5.66c-0.01-0.02-0.02-0.04-0.02-0.07
			c-0.06-0.17-0.12-0.33-0.17-0.5c-0.57-1.67-1.14-3.35-1.75-5.02c-0.09-0.26-0.2-0.52-0.29-0.78c-0.23-0.63-0.47-1.26-0.71-1.89
			c-0.34-0.9-0.66-1.79-1.01-2.69c-0.22-0.57-0.46-1.14-0.69-1.71c-0.28-0.7-0.56-1.39-0.84-2.09c-0.21-0.51-0.4-1.02-0.61-1.52
			c-0.42-1.01-0.86-2.02-1.3-3.03c-0.23-0.54-0.46-1.08-0.69-1.62c-0.08-0.19-0.16-0.38-0.25-0.57c-0.78-1.77-1.58-3.53-2.41-5.29
			c-0.04-0.08-0.07-0.15-0.11-0.23c-0.24-0.5-0.49-1-0.72-1.5c-0.65-1.36-1.29-2.71-1.96-4.06c-0.11-0.21-0.22-0.42-0.33-0.63
			c-0.55-1.1-1.13-2.2-1.7-3.3c-0.46-0.88-0.9-1.77-1.37-2.65c-0.13-0.25-0.27-0.49-0.4-0.74c-0.29-0.53-0.58-1.06-0.87-1.58
			c-0.8-1.47-1.62-2.93-2.45-4.38c-0.33-0.59-0.67-1.17-1.01-1.75c-0.23-0.39-0.45-0.78-0.67-1.17c-0.42-0.71-0.86-1.4-1.28-2.11
			c-0.68-1.14-1.37-2.28-2.07-3.4c-0.63-1.01-1.27-2.01-1.91-3.01c-0.71-1.11-1.43-2.23-2.15-3.33c-0.24-0.36-0.47-0.74-0.71-1.1
			c-0.58-0.87-1.18-1.72-1.77-2.58c-0.41-0.59-0.81-1.19-1.22-1.78c-1.3-1.86-2.61-3.7-3.95-5.52c-0.03-0.04-0.06-0.08-0.09-0.12
			c-1.5-2.03-3.03-4.03-4.58-6.01c-0.07-0.09-0.14-0.18-0.2-0.27c-1.16-1.47-2.34-2.92-3.53-4.36c-0.22-0.27-0.43-0.54-0.65-0.8
			c-0.01-0.02-0.03-0.04-0.04-0.05c-1.39-1.68-2.8-3.33-4.23-4.95c-0.07-0.08-0.15-0.16-0.22-0.24c-0.43-0.49-0.87-0.96-1.31-1.45
			c-0.91-1.02-1.81-2.04-2.74-3.03c-0.17-0.19-0.35-0.37-0.53-0.55c-0.62-0.66-1.25-1.31-1.87-1.96c-0.69-0.73-1.38-1.46-2.08-2.18
			c-0.26-0.26-0.53-0.52-0.79-0.78c-0.68-0.69-1.37-1.36-2.06-2.03c-0.59-0.58-1.17-1.18-1.77-1.75c-0.34-0.33-0.69-0.63-1.03-0.96
			c-0.74-0.7-1.49-1.39-2.24-2.08c-0.52-0.48-1.03-0.97-1.55-1.44c-0.41-0.37-0.83-0.72-1.25-1.09c-0.75-0.66-1.5-1.32-2.25-1.97
			c-0.46-0.4-0.91-0.81-1.37-1.2c-0.5-0.42-1.01-0.82-1.51-1.23c-0.74-0.61-1.48-1.22-2.22-1.81c-0.38-0.31-0.76-0.63-1.15-0.94
			c-0.63-0.5-1.27-0.96-1.9-1.45c-0.69-0.53-1.37-1.06-2.07-1.58c-0.28-0.21-0.56-0.43-0.84-0.64c-0.85-0.63-1.72-1.22-2.57-1.83
			c-0.58-0.41-1.15-0.83-1.74-1.23c-0.15-0.1-0.3-0.22-0.45-0.32c-1.54-1.06-3.09-2.08-4.66-3.08c-0.01-0.01-0.03-0.02-0.04-0.03
			c-0.11-0.07-0.22-0.13-0.33-0.2c-1.42-0.9-2.84-1.77-4.27-2.61c-0.36-0.21-0.72-0.42-1.08-0.63c-1.07-0.62-2.14-1.21-3.2-1.79
			c-0.09-0.05-0.19-0.11-0.28-0.16c-0.16-0.09-0.32-0.16-0.48-0.25c-1.2-0.64-2.39-1.26-3.57-1.85c-0.15-0.07-0.3-0.16-0.44-0.23
			c-0.06-0.03-0.13-0.06-0.19-0.09c-1.3-0.64-2.58-1.24-3.87-1.82c-0.13-0.06-0.25-0.12-0.38-0.18c-0.16-0.07-0.32-0.13-0.48-0.2
			c-1.31-0.58-2.61-1.14-3.91-1.66c0,0,0,0,0,0c0,0,0,0,0,0c-1.33-0.53-2.64-1.02-3.96-1.49c-0.15-0.05-0.31-0.12-0.46-0.17
			c-0.11-0.04-0.22-0.07-0.34-0.11c-1.28-0.44-2.55-0.86-3.81-1.24c-0.08-0.02-0.16-0.06-0.25-0.08c-0.14-0.04-0.28-0.07-0.41-0.11
			c-1.35-0.4-2.7-0.78-4.03-1.11c-0.03-0.01-0.05-0.02-0.08-0.02c-0.01,0-0.01,0-0.02,0c-1.37-0.34-2.72-0.63-4.06-0.9
			c-0.13-0.03-0.27-0.06-0.41-0.09c-0.08-0.02-0.15-0.02-0.23-0.04c-1.41-0.27-2.82-0.5-4.2-0.69c-0.12-0.02-0.24-0.04-0.36-0.06
			c-0.1-0.01-0.19-0.02-0.28-0.03c-1.44-0.19-2.86-0.33-4.26-0.43c-0.11-0.01-0.22-0.03-0.33-0.03c-0.17-0.01-0.34-0.02-0.52-0.03
			c-0.46-0.03-0.92-0.05-1.38-0.07c-0.38-0.02-0.76-0.03-1.14-0.04c-0.46-0.01-0.91-0.02-1.36-0.02c-0.25,0-0.5-0.01-0.75-0.01
			c-0.11,0-0.22,0.01-0.33,0.01c-0.67,0.01-1.33,0.03-1.98,0.05c-0.22,0.01-0.45,0.01-0.67,0.02c-0.87,0.04-1.74,0.1-2.59,0.18
			c-0.03,0-0.07,0-0.1,0.01c-0.12,0.01-0.23,0.03-0.35,0.04c-0.82,0.08-1.63,0.18-2.44,0.29c-0.27,0.04-0.54,0.08-0.81,0.12
			c-0.8,0.12-1.6,0.26-2.38,0.41c-0.11,0.02-0.23,0.04-0.34,0.06c-0.03,0.01-0.05,0.01-0.08,0.02c-1.18,0.24-2.34,0.52-3.49,0.83
			c-0.18,0.05-0.36,0.09-0.53,0.14c-1.11,0.31-2.2,0.65-3.27,1.03c-0.09,0.03-0.19,0.06-0.29,0.09c-0.16,0.06-0.31,0.12-0.46,0.18
			c-0.44,0.16-0.87,0.32-1.3,0.49c-0.3,0.12-0.59,0.23-0.89,0.36c-0.44,0.18-0.87,0.37-1.3,0.57c-0.28,0.12-0.55,0.24-0.82,0.37
			c-0.47,0.22-0.93,0.45-1.39,0.68c-0.23,0.11-0.45,0.22-0.68,0.34c-0.68,0.36-1.36,0.73-2.02,1.11l-20.73,12.05
			c0.66-0.39,1.34-0.76,2.02-1.11c0.22-0.12,0.45-0.23,0.68-0.34c0.46-0.23,0.93-0.46,1.39-0.68c0.27-0.13,0.55-0.25,0.82-0.37
			c0.43-0.19,0.87-0.38,1.3-0.57c0.29-0.12,0.59-0.24,0.88-0.36c0.43-0.17,0.86-0.34,1.3-0.49c0.25-0.09,0.5-0.18,0.75-0.27
			c1.07-0.37,2.16-0.72,3.27-1.03c0.18-0.05,0.36-0.09,0.53-0.14c1.15-0.31,2.31-0.59,3.49-0.83c0.14-0.03,0.28-0.05,0.42-0.08
			c0.79-0.15,1.58-0.29,2.38-0.41c0.27-0.04,0.54-0.08,0.81-0.12c0.81-0.11,1.62-0.21,2.44-0.29c0.15-0.01,0.3-0.03,0.45-0.05
			c0.86-0.08,1.72-0.14,2.59-0.18c0.22-0.01,0.45-0.01,0.67-0.02c0.66-0.03,1.32-0.04,1.98-0.05c0.36,0,0.72,0,1.08,0
			c0.45,0,0.91,0.01,1.36,0.02c0.38,0.01,0.76,0.03,1.14,0.04c0.46,0.02,0.92,0.04,1.38,0.07c0.28,0.02,0.56,0.04,0.85,0.06
			c1.41,0.1,2.83,0.25,4.26,0.43c0.21,0.03,0.43,0.06,0.64,0.09c1.39,0.19,2.79,0.42,4.21,0.69c0.21,0.04,0.42,0.09,0.63,0.13
			c1.34,0.27,2.7,0.56,4.06,0.9c0.03,0.01,0.07,0.02,0.1,0.03c1.33,0.33,2.68,0.71,4.04,1.11c0.22,0.07,0.44,0.13,0.66,0.19
			c1.26,0.38,2.53,0.8,3.81,1.24c0.27,0.09,0.53,0.19,0.8,0.28c1.31,0.47,2.63,0.96,3.96,1.49c1.3,0.52,2.6,1.08,3.91,1.66
			c0.28,0.13,0.57,0.25,0.85,0.38c1.28,0.58,2.57,1.18,3.87,1.82c0.21,0.1,0.42,0.21,0.63,0.32c1.19,0.59,2.38,1.21,3.57,1.85
			c0.25,0.14,0.5,0.27,0.75,0.4c1.07,0.58,2.13,1.17,3.2,1.79c1.79,1.03,3.57,2.12,5.34,3.24c0.11,0.07,0.22,0.13,0.33,0.2
			c1.73,1.1,3.44,2.25,5.15,3.42c0.58,0.4,1.16,0.83,1.74,1.24c1.14,0.81,2.28,1.63,3.41,2.47c0.69,0.52,1.38,1.05,2.07,1.58
			c1.02,0.78,2.04,1.58,3.05,2.39c0.74,0.6,1.48,1.2,2.22,1.81c0.96,0.8,1.92,1.61,2.88,2.43c0.76,0.65,1.51,1.31,2.26,1.97
			c0.94,0.83,1.87,1.67,2.79,2.53c0.75,0.69,1.5,1.38,2.24,2.08c0.94,0.89,1.87,1.8,2.8,2.71c0.69,0.68,1.38,1.35,2.06,2.03
			c0.96,0.97,1.91,1.96,2.86,2.95c0.63,0.66,1.26,1.3,1.88,1.97c1.1,1.18,2.18,2.38,3.26,3.58c0.43,0.49,0.88,0.96,1.31,1.45
			c1.52,1.72,3.02,3.47,4.5,5.25c0.22,0.26,0.43,0.53,0.65,0.8c1.26,1.53,2.51,3.07,3.74,4.64c1.56,1.99,3.1,4,4.6,6.04
			c0.02,0.03,0.04,0.05,0.06,0.08c0.01,0.01,0.01,0.02,0.02,0.02c1.33,1.81,2.64,3.64,3.93,5.49c0.41,0.59,0.81,1.19,1.22,1.78
			c0.84,1.22,1.67,2.45,2.48,3.69c0.73,1.1,1.44,2.21,2.15,3.32c0.64,1,1.28,2,1.91,3.01c0.7,1.12,1.38,2.26,2.06,3.39
			c0.66,1.09,1.32,2.19,1.96,3.29c0.34,0.58,0.67,1.16,1,1.75c0.83,1.45,1.65,2.91,2.45,4.38c0.29,0.53,0.58,1.05,0.87,1.58
			c0.61,1.13,1.19,2.26,1.78,3.39c0.57,1.09,1.14,2.19,1.7,3.29c0.78,1.55,1.54,3.12,2.29,4.68c0.24,0.5,0.49,1,0.73,1.51
			c0.95,2.02,1.87,4.05,2.76,6.09c0.24,0.54,0.46,1.07,0.69,1.61c0.65,1.52,1.29,3.04,1.92,4.56c0.28,0.69,0.56,1.39,0.84,2.08
			c0.58,1.47,1.15,2.93,1.7,4.4c0.24,0.63,0.48,1.26,0.71,1.88c0.71,1.93,1.39,3.87,2.05,5.81c0.06,0.17,0.12,0.33,0.17,0.49
			c0.7,2.1,1.37,4.21,2.01,6.31c0.21,0.68,0.4,1.36,0.6,2.05c0.42,1.45,0.84,2.9,1.23,4.35c0.22,0.8,0.42,1.61,0.63,2.41
			c0.35,1.36,0.69,2.71,1.01,4.07c0.19,0.8,0.38,1.6,0.56,2.39c0.32,1.4,0.61,2.8,0.9,4.19c0.15,0.73,0.3,1.46,0.44,2.19
			c0.35,1.83,0.68,3.66,0.97,5.48c0.04,0.26,0.09,0.51,0.13,0.77c0.33,2.08,0.61,4.14,0.87,6.21c0.07,0.59,0.13,1.17,0.2,1.76
			c0.17,1.48,0.32,2.95,0.45,4.43c0.06,0.71,0.12,1.41,0.17,2.12c0.1,1.4,0.19,2.79,0.25,4.18c0.03,0.67,0.07,1.34,0.09,2
			c0.07,1.97,0.12,3.93,0.11,5.88c-0.01,2.04-0.06,4.05-0.15,6.02c-0.03,0.56-0.07,1.1-0.1,1.65c-0.08,1.36-0.17,2.7-0.29,4.02
			c-0.07,0.76-0.15,1.51-0.23,2.26c-0.12,1.12-0.25,2.23-0.4,3.32c-0.11,0.8-0.23,1.6-0.36,2.39c-0.16,1-0.33,2-0.51,2.98
			c-0.17,0.88-0.34,1.76-0.53,2.62c-0.19,0.88-0.39,1.76-0.6,2.62c-0.25,1.01-0.51,2.01-0.78,3c-0.29,1.03-0.57,2.06-0.88,3.05
			c-0.08,0.24-0.15,0.49-0.23,0.73c-0.46,1.41-0.95,2.78-1.47,4.13c-0.14,0.35-0.28,0.7-0.41,1.04c-0.47,1.18-0.97,2.34-1.48,3.47
			c-0.1,0.22-0.2,0.45-0.3,0.67c-1.33,2.83-2.8,5.49-4.4,7.98c-0.16,0.25-0.33,0.49-0.5,0.74c-0.61,0.92-1.23,1.81-1.88,2.68
			c-0.26,0.35-0.53,0.7-0.79,1.04c-0.61,0.79-1.24,1.56-1.89,2.31c-0.24,0.28-0.48,0.58-0.73,0.86c-0.89,0.99-1.79,1.95-2.73,2.86
			c-0.13,0.13-0.27,0.25-0.41,0.37c-0.82,0.78-1.66,1.53-2.51,2.25c-0.31,0.26-0.63,0.51-0.95,0.77c-0.73,0.59-1.48,1.16-2.24,1.7
			c-0.32,0.23-0.63,0.46-0.95,0.68c-1.06,0.73-2.14,1.43-3.25,2.07l20.73-12.05c1.11-0.64,2.19-1.34,3.25-2.07
			c0.32-0.22,0.63-0.45,0.95-0.68c0.76-0.55,1.51-1.11,2.24-1.7c0.32-0.25,0.63-0.51,0.95-0.77c0.86-0.72,1.7-1.47,2.52-2.25
			c0.13-0.13,0.27-0.24,0.4-0.37c0.94-0.91,1.85-1.87,2.73-2.86c0.25-0.28,0.49-0.57,0.73-0.86c0.64-0.75,1.27-1.52,1.89-2.31
			c0.27-0.34,0.53-0.69,0.79-1.04c0.65-0.87,1.27-1.77,1.88-2.69c0.16-0.25,0.34-0.48,0.5-0.74c0.05-0.07,0.1-0.14,0.15-0.22
			c1.5-2.35,2.88-4.85,4.13-7.49c0.04-0.09,0.08-0.18,0.12-0.27c0.1-0.22,0.2-0.45,0.3-0.67c0.52-1.13,1.01-2.29,1.48-3.47
			c0.14-0.35,0.28-0.69,0.41-1.04c0.1-0.26,0.21-0.51,0.31-0.77c0.41-1.1,0.79-2.22,1.16-3.36c0.08-0.24,0.15-0.48,0.23-0.72
			c0.18-0.56,0.36-1.12,0.53-1.69c0.13-0.44,0.23-0.92,0.36-1.37c0.27-0.99,0.54-1.99,0.78-3c0.1-0.41,0.22-0.81,0.32-1.23
			c0.1-0.45,0.18-0.93,0.28-1.39c0.18-0.86,0.36-1.74,0.53-2.62c0.09-0.45,0.19-0.89,0.27-1.35c0.09-0.53,0.16-1.09,0.24-1.63
			c0.13-0.79,0.25-1.58,0.36-2.39c0.06-0.41,0.13-0.8,0.18-1.22c0.09-0.69,0.14-1.4,0.22-2.1c0.08-0.75,0.17-1.5,0.23-2.26
			c0.03-0.31,0.07-0.6,0.09-0.91c0.08-1.02,0.13-2.07,0.19-3.11c0.03-0.55,0.08-1.1,0.1-1.66c0.01-0.14,0.02-0.27,0.03-0.41
			c0.07-1.74,0.12-3.5,0.12-5.3c0-0.11,0-0.21,0-0.32C616.27,529.3,616.24,527.66,616.19,526z"/>
		<g>
			<path class="st6" d="M486.32,353.83c60.52,34.94,109.41,119.62,109.21,189.16c-0.2,69.53-49.41,97.57-109.92,62.63
				c-60.51-34.93-109.4-119.61-109.2-189.14C376.6,346.94,425.81,318.9,486.32,353.83z"/>
		</g>
		<path class="st7" d="M467.43,383.42c12.2-6.89,25.03-12.03,38.24-16c-3.94-2.77-7.94-5.35-12-7.69
			c-60.51-34.93-109.72-6.89-109.91,62.65c-0.05,18.78,3.5,38.67,9.87,58.38C406.75,440.91,429.11,405.06,467.43,383.42z"/>
		<g>
			<path class="st8" d="M484.2,475.09c5.54,3.2,10.02,10.96,10,17.33c-0.02,6.37-4.53,8.94-10.07,5.74
				c-5.54-3.2-10.02-10.96-10-17.32C474.15,474.45,478.66,471.89,484.2,475.09z"/>
		</g>
		<g>
			<g>
				<path class="st8" d="M437.17,338.81v13h0c12.85,0,27.6,4.59,42.65,13.29c27.32,15.77,53.11,43.07,72.61,76.85
					c19.5,33.77,30.18,69.64,30.1,101.02c-0.06,20.8-4.93,37.8-14.09,49.17c-8.3,10.3-19.63,15.53-33.66,15.53
					c-12.86,0-27.61-4.6-42.67-13.29c-27.32-15.77-53.1-43.06-72.61-76.84c-19.5-33.77-30.18-69.64-30.09-101.01
					c0.06-20.8,4.93-37.81,14.09-49.18c8.3-10.3,19.63-15.53,33.66-15.53L437.17,338.81 M437.16,338.81
					c-35.9,0-60.62,28.44-60.76,77.67c-0.2,69.53,48.69,154.21,109.2,189.14c17.67,10.2,34.37,15.03,49.17,15.03
					c35.9,0,60.61-28.43,60.75-77.66c0.2-69.54-48.69-154.22-109.21-189.16C468.66,343.64,451.96,338.81,437.16,338.81
					L437.16,338.81z"/>
			</g>
		</g>
		<g>
			<path class="st8" d="M546.77,520.29c3.37,1.94,3.34,7.93-0.02,5.99c-2.48-1.43-4.97-2.87-7.46-4.31
				c-17.44-10.07-34.88-20.14-52.32-30.21c-3.36-1.94-3.34-7.93,0.02-5.99c2.49,1.44,4.97,2.87,7.46,4.31
				C511.89,500.15,529.33,510.22,546.77,520.29z"/>
		</g>
		<g>
			<path class="st8" d="M481.14,480.42c1.93,3.37-1.09,8.54-3.02,5.17c-1.43-2.49-2.86-4.98-4.29-7.48
				c-10.02-17.46-36.23-62.88-46.25-80.35c-1.93-3.37,1.09-8.53,3.02-5.17c1.43,2.49,2.86,4.98,4.29,7.48
				C444.92,417.55,471.12,462.96,481.14,480.42z"/>
		</g>
	</g>
</g>
</svg>
