<?xml version="1.0" encoding="utf-8"?>
<!-- Generator: Adobe Illustrator 23.0.0, SVG Export Plug-In . SVG Version: 6.00 Build 0)  -->
<svg version="1.1" id="Layer_1" xmlns="http://www.w3.org/2000/svg" xmlns:xlink="http://www.w3.org/1999/xlink" x="0px" y="0px"
	 viewBox="0 0 1000 1000" style="enable-background:new 0 0 1000 1000;" xml:space="preserve">
<style type="text/css">
	.st0{clip-path:url(#SVGID_2_);fill:#2A2939;}
	.st1{opacity:0.15;}
	.st2{clip-path:url(#SVGID_4_);}
	.st3{fill:none;stroke:#77DFF7;stroke-width:0.5;stroke-miterlimit:10;}
	.st4{fill:url(#SVGID_5_);}
	.st5{clip-path:url(#SVGID_7_);enable-background:new    ;}
	.st6{fill:#238DB7;}
	.st7{fill:#D4FBFC;}
	.st8{fill:#C5EFEF;}
	.st9{fill:#892020;}
	.st10{fill:#C52E2E;}
	.st11{fill:#DC3333;}
</style>
<g>
	<defs>
		<rect id="SVGID_1_" width="1000" height="1000"/>
	</defs>
	<clipPath id="SVGID_2_">
		<use xlink:href="#SVGID_1_"  style="overflow:visible;"/>
	</clipPath>
	<rect x="-80" y="-84" class="st0" width="1196" height="1196"/>
</g>
<g class="st1">
	<defs>
		<rect id="SVGID_3_" class="st1" width="1000" height="1000"/>
	</defs>
	<clipPath id="SVGID_4_">
		<use xlink:href="#SVGID_3_"  style="overflow:visible;"/>
	</clipPath>
	<g class="st2">
		<polygon class="st3" points="500,1360.19 1989.9,500 500,-360.19 -989.9,500 		"/>
		<line class="st3" x1="-960.69" y1="516.87" x2="529.22" y2="-343.33"/>
		<line class="st3" x1="-931.47" y1="533.74" x2="558.43" y2="-326.46"/>
		<line class="st3" x1="-902.26" y1="550.6" x2="587.65" y2="-309.59"/>
		<line class="st3" x1="-873.05" y1="567.47" x2="616.86" y2="-292.73"/>
		<line class="st3" x1="-843.83" y1="584.34" x2="646.07" y2="-275.86"/>
		<line class="st3" x1="-814.62" y1="601.2" x2="675.29" y2="-259"/>
		<line class="st3" x1="-785.4" y1="618.07" x2="704.5" y2="-242.13"/>
		<line class="st3" x1="-756.19" y1="634.93" x2="733.71" y2="-225.26"/>
		<line class="st3" x1="-726.98" y1="651.8" x2="762.93" y2="-208.4"/>
		<line class="st3" x1="-697.76" y1="668.67" x2="792.14" y2="-191.53"/>
		<line class="st3" x1="-668.55" y1="685.53" x2="821.35" y2="-174.66"/>
		<line class="st3" x1="-639.34" y1="702.4" x2="850.57" y2="-157.8"/>
		<line class="st3" x1="-610.12" y1="719.27" x2="879.78" y2="-140.93"/>
		<line class="st3" x1="-580.91" y1="736.13" x2="909" y2="-124.06"/>
		<line class="st3" x1="-551.7" y1="753" x2="938.21" y2="-107.2"/>
		<line class="st3" x1="-522.48" y1="769.87" x2="967.42" y2="-90.33"/>
		<line class="st3" x1="-493.27" y1="786.73" x2="996.64" y2="-73.46"/>
		<line class="st3" x1="-464.05" y1="803.6" x2="1025.85" y2="-56.6"/>
		<line class="st3" x1="-434.84" y1="820.47" x2="1055.06" y2="-39.73"/>
		<line class="st3" x1="-405.63" y1="837.33" x2="1084.28" y2="-22.86"/>
		<line class="st3" x1="-376.41" y1="854.2" x2="1113.49" y2="-6"/>
		<line class="st3" x1="-347.2" y1="871.07" x2="1142.7" y2="10.87"/>
		<line class="st3" x1="-317.99" y1="887.93" x2="1171.92" y2="27.74"/>
		<line class="st3" x1="-288.77" y1="904.8" x2="1201.13" y2="44.6"/>
		<line class="st3" x1="-259.56" y1="921.67" x2="1230.35" y2="61.47"/>
		<line class="st3" x1="-230.35" y1="938.53" x2="1259.56" y2="78.33"/>
		<line class="st3" x1="-201.13" y1="955.4" x2="1288.77" y2="95.2"/>
		<line class="st3" x1="-171.92" y1="972.26" x2="1317.99" y2="112.07"/>
		<line class="st3" x1="-142.7" y1="989.13" x2="1347.2" y2="128.93"/>
		<line class="st3" x1="-113.49" y1="1006" x2="1376.41" y2="145.8"/>
		<line class="st3" x1="-84.28" y1="1022.86" x2="1405.63" y2="162.67"/>
		<line class="st3" x1="-55.06" y1="1039.73" x2="1434.84" y2="179.53"/>
		<line class="st3" x1="-25.85" y1="1056.6" x2="1464.05" y2="196.4"/>
		<line class="st3" x1="3.36" y1="1073.46" x2="1493.27" y2="213.27"/>
		<line class="st3" x1="32.58" y1="1090.33" x2="1522.48" y2="230.13"/>
		<line class="st3" x1="61.79" y1="1107.2" x2="1551.7" y2="247"/>
		<line class="st3" x1="91" y1="1124.06" x2="1580.91" y2="263.87"/>
		<line class="st3" x1="120.22" y1="1140.93" x2="1610.12" y2="280.73"/>
		<line class="st3" x1="149.43" y1="1157.8" x2="1639.34" y2="297.6"/>
		<line class="st3" x1="178.65" y1="1174.66" x2="1668.55" y2="314.47"/>
		<line class="st3" x1="207.86" y1="1191.53" x2="1697.76" y2="331.33"/>
		<line class="st3" x1="237.07" y1="1208.4" x2="1726.98" y2="348.2"/>
		<line class="st3" x1="266.29" y1="1225.26" x2="1756.19" y2="365.07"/>
		<line class="st3" x1="295.5" y1="1242.13" x2="1785.4" y2="381.93"/>
		<line class="st3" x1="324.71" y1="1259" x2="1814.62" y2="398.8"/>
		<line class="st3" x1="353.93" y1="1275.86" x2="1843.83" y2="415.66"/>
		<line class="st3" x1="383.14" y1="1292.73" x2="1873.05" y2="432.53"/>
		<line class="st3" x1="412.35" y1="1309.59" x2="1902.26" y2="449.4"/>
		<line class="st3" x1="441.57" y1="1326.46" x2="1931.47" y2="466.26"/>
		<line class="st3" x1="470.78" y1="1343.33" x2="1960.69" y2="483.13"/>
		<line class="st3" x1="1960.69" y1="516.86" x2="470.79" y2="-343.33"/>
		<line class="st3" x1="1931.47" y1="533.73" x2="441.58" y2="-326.46"/>
		<line class="st3" x1="1902.26" y1="550.6" x2="412.36" y2="-309.59"/>
		<line class="st3" x1="1873.04" y1="567.46" x2="383.15" y2="-292.73"/>
		<line class="st3" x1="1843.83" y1="584.33" x2="353.94" y2="-275.86"/>
		<line class="st3" x1="1814.62" y1="601.2" x2="324.72" y2="-258.99"/>
		<line class="st3" x1="1785.4" y1="618.06" x2="295.51" y2="-242.13"/>
		<line class="st3" x1="1756.19" y1="634.93" x2="266.29" y2="-225.26"/>
		<line class="st3" x1="1726.98" y1="651.8" x2="237.08" y2="-208.39"/>
		<line class="st3" x1="1697.76" y1="668.66" x2="207.87" y2="-191.53"/>
		<line class="st3" x1="1668.55" y1="685.53" x2="178.65" y2="-174.66"/>
		<line class="st3" x1="1639.33" y1="702.4" x2="149.44" y2="-157.8"/>
		<line class="st3" x1="1610.12" y1="719.26" x2="120.22" y2="-140.93"/>
		<line class="st3" x1="1580.91" y1="736.13" x2="91.01" y2="-124.06"/>
		<line class="st3" x1="1551.69" y1="753" x2="61.8" y2="-107.2"/>
		<line class="st3" x1="1522.48" y1="769.86" x2="32.58" y2="-90.33"/>
		<line class="st3" x1="1493.27" y1="786.73" x2="3.37" y2="-73.46"/>
		<line class="st3" x1="1464.05" y1="803.6" x2="-25.84" y2="-56.6"/>
		<line class="st3" x1="1434.84" y1="820.46" x2="-55.06" y2="-39.73"/>
		<line class="st3" x1="1405.62" y1="837.33" x2="-84.27" y2="-22.86"/>
		<line class="st3" x1="1376.41" y1="854.2" x2="-113.49" y2="-6"/>
		<line class="st3" x1="1347.2" y1="871.06" x2="-142.7" y2="10.87"/>
		<line class="st3" x1="1317.98" y1="887.93" x2="-171.91" y2="27.74"/>
		<line class="st3" x1="1288.77" y1="904.8" x2="-201.13" y2="44.6"/>
		<line class="st3" x1="1259.55" y1="921.66" x2="-230.34" y2="61.47"/>
		<line class="st3" x1="1230.34" y1="938.53" x2="-259.55" y2="78.34"/>
		<line class="st3" x1="1201.13" y1="955.4" x2="-288.77" y2="95.2"/>
		<line class="st3" x1="1171.91" y1="972.26" x2="-317.98" y2="112.07"/>
		<line class="st3" x1="1142.7" y1="989.13" x2="-347.2" y2="128.94"/>
		<polyline class="st3" points="1113.49,1006 237.08,500 -376.41,145.8 		"/>
		<line class="st3" x1="1084.27" y1="1022.86" x2="-405.62" y2="162.67"/>
		<line class="st3" x1="1055.06" y1="1039.73" x2="-434.84" y2="179.54"/>
		<line class="st3" x1="1025.84" y1="1056.6" x2="-464.05" y2="196.4"/>
		<line class="st3" x1="996.63" y1="1073.46" x2="-493.27" y2="213.27"/>
		<line class="st3" x1="967.42" y1="1090.33" x2="-522.48" y2="230.14"/>
		<line class="st3" x1="938.2" y1="1107.2" x2="-551.69" y2="247"/>
		<line class="st3" x1="908.99" y1="1124.06" x2="-580.91" y2="263.87"/>
		<line class="st3" x1="879.78" y1="1140.93" x2="-610.12" y2="280.74"/>
		<line class="st3" x1="850.56" y1="1157.8" x2="-639.33" y2="297.6"/>
		<line class="st3" x1="821.35" y1="1174.66" x2="-668.55" y2="314.47"/>
		<line class="st3" x1="792.13" y1="1191.53" x2="-697.76" y2="331.34"/>
		<line class="st3" x1="762.92" y1="1208.39" x2="-726.98" y2="348.2"/>
		<line class="st3" x1="733.71" y1="1225.26" x2="-756.19" y2="365.07"/>
		<line class="st3" x1="704.49" y1="1242.13" x2="-785.4" y2="381.94"/>
		<line class="st3" x1="675.28" y1="1258.99" x2="-814.62" y2="398.8"/>
		<line class="st3" x1="646.06" y1="1275.86" x2="-843.83" y2="415.67"/>
		<line class="st3" x1="616.85" y1="1292.73" x2="-873.04" y2="432.54"/>
		<line class="st3" x1="587.64" y1="1309.59" x2="-902.26" y2="449.4"/>
		<line class="st3" x1="558.42" y1="1326.46" x2="-931.47" y2="466.27"/>
		<line class="st3" x1="529.21" y1="1343.33" x2="-960.69" y2="483.14"/>
	</g>
</g>
<g>
	<radialGradient id="SVGID_5_" cx="500" cy="513.5235" r="197.8188" gradientUnits="userSpaceOnUse">
		<stop  offset="1.198083e-07" style="stop-color:#2A2939"/>
		<stop  offset="0.8917" style="stop-color:#2A2939;stop-opacity:0.1083"/>
		<stop  offset="1" style="stop-color:#2A2939;stop-opacity:0"/>
	</radialGradient>
	<ellipse class="st4" cx="500" cy="513.52" rx="242.28" ry="139.88"/>
	<g>
		<g>
			<defs>
				<path id="SVGID_6_" d="M603.46,414.58l-0.07,25.02c-0.02,7.72-3.15,15.6-9.32,22.98l0.07-25.02
					C600.31,430.18,603.44,422.3,603.46,414.58z"/>
			</defs>
			<use xlink:href="#SVGID_6_"  style="overflow:visible;fill:#238DB7;"/>
			<clipPath id="SVGID_7_">
				<use xlink:href="#SVGID_6_"  style="overflow:visible;"/>
			</clipPath>
			<g class="st5">
				<path class="st6" d="M603.46,414.58l-0.07,25.02c0,0.25,0,0.51-0.01,0.76l0.07-25.02C603.46,415.09,603.46,414.83,603.46,414.58
					"/>
				<path class="st6" d="M603.45,415.34l-0.07,25.02c-0.05,1.66-0.24,3.33-0.57,5l0.07-25.02C603.21,418.67,603.4,417,603.45,415.34
					"/>
				<path class="st6" d="M602.88,420.33l-0.07,25.02c-0.34,1.69-0.82,3.38-1.46,5.07l0.07-25.02
					C602.05,423.71,602.54,422.02,602.88,420.33"/>
				<path class="st6" d="M601.42,425.4l-0.07,25.02c-0.66,1.77-1.49,3.53-2.48,5.28l0.07-25.02
					C599.93,428.93,600.76,427.17,601.42,425.4"/>
				<path class="st6" d="M598.94,430.68l-0.07,25.02c-1.08,1.92-2.36,3.82-3.83,5.69l0.07-25.02
					C596.58,434.5,597.86,432.6,598.94,430.68"/>
				<path class="st6" d="M595.11,436.37l-0.07,25.02c-0.31,0.4-0.64,0.8-0.97,1.19l0.07-25.02
					C594.47,437.17,594.8,436.77,595.11,436.37"/>
			</g>
		</g>
		<path class="st6" d="M666.5,477.9c-0.02,0.38-0.04,0.75-0.08,1.13c-0.03,0.34-0.08,0.68-0.13,1.03c-0.05,0.38-0.11,0.75-0.18,1.13
			c-0.06,0.34-0.14,0.68-0.22,1.02c-0.09,0.39-0.18,0.77-0.28,1.16c-0.09,0.34-0.19,0.68-0.3,1.02c-0.12,0.39-0.25,0.77-0.38,1.16
			c-0.12,0.33-0.24,0.66-0.37,0.99c-0.17,0.42-0.34,0.84-0.53,1.26c-0.14,0.32-0.29,0.64-0.45,0.96c-0.2,0.42-0.42,0.84-0.65,1.26
			c-0.21,0.38-0.41,0.76-0.63,1.14c-0.07,0.12-0.15,0.25-0.22,0.37c-0.36,0.6-0.75,1.2-1.16,1.8c-0.07,0.1-0.15,0.21-0.22,0.31
			c-0.4,0.58-0.82,1.15-1.26,1.72c-0.04,0.06-0.09,0.11-0.13,0.17c-0.47,0.61-0.98,1.21-1.5,1.81c-0.14,0.16-0.28,0.32-0.43,0.48
			c-0.42,0.47-0.85,0.93-1.29,1.39c-0.15,0.16-0.3,0.31-0.45,0.47c-0.58,0.58-1.17,1.16-1.79,1.73c-0.41,0.37-0.84,0.74-1.27,1.11
			c-0.32,0.28-0.62,0.55-0.95,0.83c-0.46,0.38-0.96,0.76-1.44,1.14c-0.32,0.25-0.62,0.5-0.95,0.75c-0.55,0.41-1.13,0.82-1.7,1.22
			c-0.29,0.21-0.57,0.42-0.87,0.62c-0.89,0.61-1.8,1.21-2.74,1.79l-0.07,25.02c0.94-0.59,1.86-1.19,2.74-1.79
			c0.3-0.21,0.58-0.42,0.88-0.63c0.57-0.4,1.15-0.81,1.69-1.22c0.33-0.25,0.64-0.51,0.97-0.76c0.48-0.38,0.97-0.75,1.42-1.13
			c0.33-0.27,0.64-0.56,0.96-0.83c0.42-0.37,0.86-0.73,1.26-1.11c0.02-0.02,0.05-0.04,0.07-0.06c0.59-0.55,1.16-1.1,1.72-1.66
			c0.15-0.16,0.3-0.31,0.45-0.47c0.44-0.46,0.87-0.92,1.29-1.39c0.14-0.16,0.29-0.32,0.43-0.48c0.5-0.57,0.98-1.15,1.44-1.73
			c0.02-0.03,0.04-0.05,0.06-0.08c0.05-0.06,0.09-0.12,0.13-0.18c0.44-0.57,0.86-1.14,1.26-1.72c0.07-0.1,0.15-0.21,0.22-0.31
			c0.41-0.6,0.79-1.2,1.16-1.8c0.07-0.12,0.15-0.25,0.22-0.37c0.11-0.18,0.22-0.36,0.32-0.54c0.11-0.2,0.2-0.4,0.31-0.6
			c0.23-0.42,0.44-0.84,0.65-1.26c0.16-0.32,0.3-0.64,0.45-0.96c0.19-0.42,0.36-0.84,0.53-1.26c0.07-0.17,0.15-0.35,0.22-0.52
			c0.06-0.16,0.1-0.31,0.15-0.47c0.14-0.39,0.26-0.77,0.38-1.16c0.11-0.34,0.21-0.68,0.3-1.02c0.1-0.39,0.2-0.77,0.28-1.16
			c0.05-0.21,0.11-0.42,0.15-0.63c0.03-0.13,0.04-0.26,0.06-0.38c0.07-0.38,0.13-0.75,0.18-1.13c0.05-0.34,0.1-0.68,0.13-1.02
			c0.04-0.38,0.06-0.76,0.08-1.13c0.01-0.23,0.04-0.46,0.05-0.7c0.01-0.22,0.01-0.44,0.01-0.66l0.07-25.02
			C666.56,476.99,666.52,477.45,666.5,477.9z"/>
		<path class="st6" d="M677.07,539.23c-0.02,0.29-0.03,0.57-0.06,0.86c-0.03,0.31-0.08,0.61-0.12,0.92
			c-0.04,0.29-0.08,0.57-0.14,0.86c-0.06,0.3-0.13,0.6-0.2,0.91c-0.07,0.3-0.13,0.59-0.22,0.89c-0.08,0.3-0.18,0.6-0.28,0.9
			c-0.09,0.29-0.19,0.59-0.29,0.88c-0.1,0.28-0.22,0.56-0.33,0.84c-0.14,0.33-0.27,0.67-0.42,1c-0.13,0.28-0.27,0.56-0.41,0.84
			c-0.16,0.33-0.33,0.66-0.51,0.98c-0.14,0.26-0.3,0.51-0.45,0.77c-0.23,0.39-0.47,0.77-0.72,1.16c-0.17,0.25-0.34,0.51-0.51,0.76
			c-0.27,0.38-0.54,0.76-0.83,1.14c-0.22,0.29-0.44,0.58-0.68,0.87c-0.11,0.13-0.22,0.27-0.33,0.4c-0.42,0.5-0.85,1-1.31,1.5
			c0,0-0.01,0.01-0.01,0.01c-0.46,0.5-0.95,0.99-1.46,1.48c-0.13,0.13-0.26,0.26-0.4,0.38c-0.31,0.29-0.64,0.58-0.96,0.88
			c-0.35,0.31-0.7,0.62-1.06,0.93c-0.3,0.25-0.6,0.5-0.91,0.75c-0.38,0.3-0.76,0.6-1.15,0.9c-0.32,0.24-0.65,0.49-0.98,0.73
			c-0.41,0.29-0.82,0.59-1.24,0.88c-0.35,0.24-0.7,0.47-1.05,0.71c-0.44,0.29-0.89,0.57-1.34,0.85c-0.52,0.32-1.03,0.65-1.58,0.96
			c-1.06,0.62-2.16,1.2-3.27,1.77c-0.26,0.13-0.53,0.27-0.79,0.4c-1.11,0.55-2.23,1.09-3.38,1.59c-0.11,0.05-0.21,0.09-0.32,0.13
			c-1.07,0.46-2.16,0.9-3.26,1.33c-0.28,0.11-0.55,0.21-0.83,0.32c-1.18,0.44-2.38,0.86-3.6,1.26c-0.32,0.1-0.64,0.2-0.96,0.3
			c-0.64,0.2-1.28,0.4-1.93,0.58c-0.39,0.11-0.77,0.22-1.16,0.32c-0.6,0.17-1.21,0.33-1.81,0.48c-0.41,0.1-0.82,0.2-1.24,0.3
			c-0.59,0.14-1.19,0.28-1.79,0.41c-0.42,0.09-0.84,0.18-1.26,0.27c-0.61,0.13-1.21,0.24-1.82,0.36c-0.39,0.07-0.77,0.15-1.16,0.21
			c-1.22,0.22-2.44,0.41-3.66,0.59c-0.15,0.02-0.3,0.04-0.45,0.06c-1.1,0.15-2.2,0.28-3.3,0.4c-0.37,0.04-0.74,0.08-1.11,0.11
			c-0.7,0.07-1.4,0.12-2.11,0.18c-0.38,0.03-0.76,0.06-1.14,0.08c-0.82,0.05-1.63,0.09-2.44,0.12c-0.26,0.01-0.53,0.03-0.79,0.04
			c-0.72,0.02-1.44,0.03-2.15,0.04c-0.28,0-0.56,0.01-0.84,0.01c-1,0-1.99-0.01-2.98-0.03c-0.46-0.01-0.92-0.04-1.39-0.05
			c-0.5-0.02-0.99-0.03-1.49-0.06c-0.45-0.02-0.9-0.06-1.34-0.09c-0.5-0.03-1-0.06-1.5-0.1c-0.82-0.07-1.64-0.15-2.45-0.24
			c-0.11-0.01-0.23-0.02-0.34-0.03c-0.92-0.1-1.84-0.22-2.76-0.35c-0.41-0.06-0.8-0.13-1.21-0.19c-0.51-0.08-1.02-0.15-1.53-0.24
			c-0.4-0.07-0.8-0.15-1.2-0.23c-0.5-0.09-1-0.18-1.49-0.28c-0.93-0.19-1.85-0.4-2.76-0.62c-0.25-0.06-0.5-0.13-0.74-0.19
			c-0.66-0.17-1.31-0.34-1.95-0.52c-0.23-0.07-0.46-0.14-0.69-0.21c-0.76-0.22-1.51-0.46-2.26-0.7c-0.32-0.11-0.64-0.22-0.95-0.33
			c-0.66-0.23-1.32-0.47-1.97-0.72c-0.34-0.13-0.69-0.26-1.02-0.39c-0.27-0.11-0.54-0.22-0.81-0.33c-0.47-0.2-0.93-0.4-1.39-0.6
			c-0.26-0.12-0.52-0.24-0.78-0.36c-0.48-0.22-0.95-0.46-1.42-0.69c-0.22-0.11-0.44-0.22-0.66-0.33c-0.68-0.35-1.34-0.71-1.99-1.09
			L339.95,434.17c-12.31-8.58-18.37-19.31-18.34-30.36l-0.07,25.02c-0.03,11.05,6.04,21.78,18.34,30.36L571.4,592.86
			c0.65,0.38,1.32,0.74,1.99,1.09c0.22,0.11,0.44,0.22,0.66,0.33c0.47,0.24,0.94,0.47,1.42,0.69c0.26,0.12,0.52,0.24,0.79,0.36
			c0.46,0.21,0.92,0.41,1.39,0.61c0.27,0.11,0.53,0.22,0.8,0.33c0.15,0.06,0.29,0.13,0.45,0.18c0.19,0.08,0.39,0.14,0.58,0.21
			c0.65,0.25,1.3,0.49,1.96,0.72c0.32,0.11,0.63,0.22,0.95,0.33c0.74,0.25,1.5,0.48,2.26,0.7c0.18,0.05,0.35,0.11,0.53,0.16
			c0.05,0.01,0.11,0.03,0.16,0.04c0.65,0.18,1.32,0.36,1.98,0.52c0.24,0.06,0.48,0.13,0.72,0.19c0.91,0.22,1.83,0.43,2.76,0.62
			c0.01,0,0.03,0.01,0.04,0.01c0.48,0.1,0.96,0.18,1.44,0.27c0.4,0.08,0.8,0.16,1.21,0.23c0.52,0.09,1.05,0.17,1.57,0.25
			c0.39,0.06,0.78,0.13,1.17,0.18c0.01,0,0.02,0,0.03,0c0.9,0.13,1.82,0.24,2.73,0.35c0.11,0.01,0.23,0.02,0.34,0.03
			c0.8,0.09,1.61,0.17,2.42,0.23c0.01,0,0.02,0,0.03,0c0.48,0.04,0.97,0.07,1.46,0.1c0.46,0.03,0.93,0.07,1.39,0.09
			c0.49,0.03,0.99,0.04,1.49,0.06c0.45,0.02,0.9,0.04,1.35,0.05c0.01,0,0.02,0,0.03,0c0.99,0.02,1.99,0.03,2.98,0.03
			c0.27,0,0.54-0.01,0.81-0.01c0.73-0.01,1.45-0.02,2.18-0.04c0.05,0,0.09,0,0.14,0c0.22-0.01,0.44-0.02,0.66-0.03
			c0.81-0.03,1.63-0.07,2.44-0.12c0.38-0.02,0.76-0.05,1.14-0.08c0.7-0.05,1.41-0.11,2.11-0.18c0.2-0.02,0.39-0.03,0.59-0.05
			c0.17-0.02,0.34-0.04,0.51-0.06c1.1-0.12,2.21-0.25,3.31-0.4c0.15-0.02,0.29-0.04,0.44-0.06c1.23-0.17,2.45-0.37,3.66-0.59
			c0.13-0.02,0.26-0.04,0.39-0.06c0.26-0.05,0.52-0.1,0.78-0.15c0.61-0.11,1.21-0.23,1.82-0.36c0.42-0.09,0.84-0.18,1.26-0.27
			c0.6-0.13,1.19-0.27,1.79-0.41c0.41-0.1,0.83-0.2,1.24-0.3c0.61-0.15,1.21-0.32,1.81-0.48c0.39-0.11,0.78-0.21,1.17-0.32
			c0.65-0.19,1.29-0.38,1.93-0.58c0.27-0.08,0.55-0.16,0.82-0.25c0.05-0.02,0.09-0.03,0.14-0.05c1.22-0.39,2.41-0.82,3.6-1.26
			c0.28-0.1,0.55-0.21,0.83-0.32c1.1-0.42,2.19-0.86,3.27-1.33c0.11-0.05,0.21-0.09,0.32-0.13c1.15-0.5,2.27-1.04,3.37-1.59
			c0.27-0.13,0.53-0.27,0.79-0.4c1.11-0.57,2.2-1.15,3.26-1.77c0.3-0.17,0.6-0.35,0.89-0.53c0.24-0.14,0.46-0.29,0.69-0.44
			c0.45-0.28,0.9-0.56,1.34-0.85c0.36-0.23,0.71-0.47,1.06-0.71c0.42-0.29,0.84-0.58,1.24-0.87c0.33-0.24,0.66-0.48,0.98-0.73
			c0.39-0.3,0.78-0.6,1.15-0.9c0.31-0.25,0.61-0.5,0.91-0.75c0.36-0.31,0.72-0.62,1.06-0.93c0.17-0.16,0.36-0.31,0.53-0.47
			c0.15-0.14,0.28-0.27,0.43-0.41c0.13-0.13,0.27-0.26,0.4-0.38c0.5-0.49,0.99-0.98,1.46-1.48c0,0,0.01-0.01,0.01-0.01
			c0.46-0.5,0.89-1,1.31-1.5c0.11-0.13,0.22-0.27,0.33-0.4c0.11-0.14,0.23-0.28,0.34-0.41c0.12-0.15,0.22-0.31,0.34-0.46
			c0.29-0.38,0.57-0.76,0.83-1.14c0.18-0.25,0.35-0.51,0.51-0.76c0.25-0.38,0.49-0.77,0.72-1.16c0.09-0.16,0.2-0.32,0.29-0.47
			c0.06-0.1,0.1-0.2,0.15-0.3c0.18-0.33,0.34-0.65,0.51-0.98c0.14-0.28,0.28-0.56,0.41-0.84c0.15-0.33,0.29-0.66,0.42-1
			c0.08-0.2,0.18-0.41,0.26-0.61c0.03-0.08,0.05-0.15,0.08-0.23c0.11-0.29,0.2-0.59,0.29-0.89c0.1-0.3,0.2-0.6,0.28-0.9
			c0.08-0.3,0.15-0.59,0.22-0.89c0.05-0.22,0.12-0.45,0.16-0.67c0.02-0.08,0.02-0.16,0.04-0.24c0.05-0.29,0.09-0.57,0.14-0.86
			c0.05-0.31,0.09-0.62,0.12-0.92c0.03-0.29,0.04-0.57,0.06-0.86c0.01-0.22,0.04-0.43,0.05-0.65c0.01-0.18,0.01-0.35,0.01-0.53
			l0.07-25.02C677.12,538.44,677.09,538.84,677.07,539.23z"/>
		<g>
			<path class="st7" d="M581.28,382.63c24.58,14.19,28.53,36.2,12.86,54.93c19.58-0.76,38.85,2.86,53.02,11.04
				c27.18,15.69,25.52,42.32-3.24,60.25c6.45,1.49,12.42,3.71,17.56,6.67c22.45,12.96,20.5,35.18-4.36,49.63
				c-24.86,14.44-63.2,15.65-85.65,2.69L339.95,434.17c-27.98-19.5-23.71-50.12,11.15-70.38c36.62-21.28,93.12-23.06,126.18-3.97
				c7,4.04,12.37,8.7,16.17,13.73C524.09,366.6,558.47,369.46,581.28,382.63z"/>
		</g>
		<g>
			<path class="st8" d="M662.51,515.53c-5.13-2.96-11.1-5.18-17.56-6.67c28.75-17.94,30.42-44.56,3.24-60.25
				c-14.17-8.18-33.44-11.8-53.02-11.04c8.52-10.19,11.23-21.35,7.98-31.69c-38.48,27.77-83.22,47.92-129.28,58.26
				c-21.37,4.8-42.92,7.71-64.58,9.48l163.21,94.23c22.45,12.96,60.8,11.76,85.65-2.69C683.01,550.71,684.96,528.49,662.51,515.53z"
				/>
		</g>
		<g>
			<polygon class="st9" points="448.46,456.29 448.37,487.92 397.77,458.71 397.86,427.08 			"/>
		</g>
		<g>
			<polygon class="st9" points="530.75,503.8 530.66,535.43 480.06,506.22 480.15,474.59 			"/>
		</g>
		<g>
			<polygon class="st9" points="403.57,519.1 403.48,550.72 371.79,532.43 371.88,500.8 			"/>
		</g>
		<g>
			<polygon class="st10" points="480.15,474.59 480.06,506.22 403.48,550.72 403.57,519.1 			"/>
		</g>
		<g>
			<polygon class="st11" points="522.16,431.82 526.46,467.82 530.75,503.8 480.15,474.59 403.57,519.1 371.88,500.8 448.46,456.29 
				397.86,427.08 460.01,429.45 			"/>
		</g>
	</g>
</g>
</svg>
