<svg xmlns="http://www.w3.org/2000/svg" xmlns:xlink="http://www.w3.org/1999/xlink" width="500" zoomAndPan="magnify" viewBox="0 0 375 374.999991" height="500" preserveAspectRatio="xMidYMid meet" version="1.0"><defs><clipPath id="386527ef8d"><path d="M 20 31.679688 L 356 31.679688 L 356 366 L 20 366 Z M 20 31.679688 " clip-rule="nonzero"/></clipPath><clipPath id="c4600b1b9c"><path d="M 172 347 L 192 347 L 192 366.179688 L 172 366.179688 Z M 172 347 " clip-rule="nonzero"/></clipPath><clipPath id="c95374ac64"><path d="M 132.503906 8.855469 L 242.753906 8.855469 L 242.753906 88.355469 L 132.503906 88.355469 Z M 132.503906 8.855469 " clip-rule="nonzero"/></clipPath></defs><g clip-path="url(#386527ef8d)"><path fill="#1ba553" d="M 187.421875 31.984375 C 93.726562 32.300781 18.84375 108.476562 20.066406 202.148438 C 20.121094 206.855469 20.375 211.550781 20.828125 216.238281 C 21.28125 220.921875 21.929688 225.578125 22.773438 230.210938 C 23.621094 234.839844 24.660156 239.425781 25.890625 243.96875 C 27.125 248.511719 28.546875 252.992188 30.15625 257.414062 C 31.769531 261.835938 33.5625 266.183594 35.542969 270.457031 C 37.519531 274.726562 39.675781 278.90625 42.007812 282.996094 C 44.339844 287.082031 46.839844 291.066406 49.507812 294.945312 C 52.175781 298.824219 55 302.582031 57.984375 306.21875 C 58.457031 306.792969 58.878906 307.402344 59.257812 308.039062 C 59.636719 308.675781 59.964844 309.339844 60.242188 310.027344 C 60.523438 310.714844 60.75 311.417969 60.921875 312.136719 C 61.097656 312.859375 61.214844 313.589844 61.28125 314.328125 C 61.34375 315.066406 61.355469 315.804688 61.308594 316.546875 C 61.261719 317.285156 61.164062 318.019531 61.007812 318.746094 C 60.851562 319.46875 60.640625 320.179688 60.378906 320.871094 C 60.117188 321.566406 59.808594 322.238281 59.445312 322.882812 L 44.976562 348.804688 C 40.964844 355.992188 47.5 364.488281 55.476562 362.457031 L 104.476562 349.984375 C 106.1875 349.550781 107.917969 349.425781 109.671875 349.605469 C 111.425781 349.785156 113.097656 350.261719 114.683594 351.03125 C 124.578125 355.84375 134.851562 359.636719 145.5 362.410156 C 146.15625 362.582031 146.824219 362.6875 147.503906 362.726562 C 148.183594 362.765625 148.859375 362.738281 149.53125 362.644531 C 150.203125 362.550781 150.863281 362.394531 151.503906 362.171875 C 152.144531 361.949219 152.761719 361.664062 153.347656 361.320312 C 153.933594 360.976562 154.480469 360.578125 154.988281 360.125 C 155.496094 359.675781 155.953125 359.179688 156.363281 358.636719 C 156.773438 358.09375 157.125 357.515625 157.421875 356.90625 C 157.71875 356.292969 157.953125 355.660156 158.125 355.003906 C 158.292969 354.34375 158.398438 353.675781 158.4375 353 C 158.480469 352.320312 158.453125 351.644531 158.359375 350.972656 C 158.265625 350.296875 158.105469 349.640625 157.882812 349 C 157.660156 348.355469 157.375 347.742188 157.03125 347.15625 C 156.6875 346.570312 156.289062 346.023438 155.839844 345.515625 C 155.386719 345.007812 154.890625 344.550781 154.347656 344.140625 C 153.804688 343.730469 153.230469 343.378906 152.617188 343.082031 C 152.007812 342.785156 151.371094 342.550781 150.714844 342.382812 C 148.136719 341.710938 145.585938 340.96875 143.066406 340.160156 C 139.398438 338.984375 135.785156 337.664062 132.21875 336.207031 C 128.65625 334.746094 125.15625 333.148438 121.71875 331.414062 C 118.28125 329.679688 114.914062 327.8125 111.625 325.8125 C 108.332031 323.816406 105.125 321.691406 102 319.441406 C 98.875 317.191406 95.839844 314.820312 92.902344 312.335938 C 89.960938 309.847656 87.125 307.25 84.390625 304.539062 C 81.652344 301.828125 79.027344 299.015625 76.511719 296.097656 C 74 293.183594 71.601562 290.171875 69.324219 287.070312 C 67.042969 283.964844 64.890625 280.777344 62.859375 277.503906 C 60.832031 274.234375 58.933594 270.886719 57.167969 267.464844 C 55.398438 264.042969 53.769531 260.558594 52.277344 257.007812 C 50.785156 253.460938 49.429688 249.859375 48.21875 246.203125 C 47.007812 242.546875 45.945312 238.851562 45.023438 235.113281 C 44.101562 231.371094 43.328125 227.605469 42.703125 223.804688 C 42.078125 220.003906 41.601562 216.1875 41.273438 212.351562 C 40.949219 208.515625 40.773438 204.671875 40.75 200.820312 C 40.257812 119.480469 105.398438 53.359375 186.75 52.683594 C 268.332031 52.007812 334.738281 117.671875 335.25 198.964844 C 335.707031 271.585938 282.425781 332.894531 213.054688 344.984375 C 212.460938 345.085938 211.878906 345.242188 211.308594 345.449219 C 210.738281 345.65625 210.195312 345.910156 209.667969 346.214844 C 209.144531 346.515625 208.652344 346.859375 208.1875 347.25 C 207.722656 347.636719 207.296875 348.0625 206.910156 348.527344 C 206.519531 348.992188 206.175781 349.484375 205.871094 350.007812 C 205.570312 350.53125 205.316406 351.078125 205.109375 351.648438 C 204.902344 352.214844 204.746094 352.796875 204.640625 353.394531 C 204.535156 353.992188 204.484375 354.589844 204.484375 355.195312 C 204.484375 355.570312 204.503906 355.945312 204.546875 356.320312 C 204.585938 356.695312 204.648438 357.066406 204.726562 357.433594 C 204.808594 357.800781 204.910156 358.160156 205.03125 358.515625 C 205.148438 358.875 205.289062 359.222656 205.449219 359.5625 C 205.605469 359.90625 205.78125 360.238281 205.976562 360.558594 C 206.171875 360.878906 206.382812 361.191406 206.609375 361.488281 C 206.839844 361.789062 207.082031 362.074219 207.339844 362.347656 C 207.601562 362.621094 207.875 362.878906 208.160156 363.121094 C 208.449219 363.363281 208.746094 363.589844 209.058594 363.800781 C 209.371094 364.007812 209.691406 364.203125 210.027344 364.378906 C 210.359375 364.550781 210.699219 364.707031 211.050781 364.847656 C 211.398438 364.984375 211.757812 365.101562 212.121094 365.203125 C 212.480469 365.300781 212.847656 365.382812 213.21875 365.441406 C 213.59375 365.5 213.964844 365.539062 214.339844 365.558594 C 214.714844 365.574219 215.09375 365.574219 215.46875 365.550781 C 215.84375 365.53125 216.214844 365.488281 216.585938 365.425781 C 295.464844 351.949219 355.691406 283.570312 355.949219 200.445312 C 356.238281 107.265625 280.621094 31.671875 187.421875 31.984375 Z M 187.421875 31.984375 " fill-opacity="1" fill-rule="nonzero"/></g><path fill="#1ba553" d="M 161.683594 128.332031 L 161.75 128.464844 L 170.53125 145.882812 C 171.003906 146.820312 171.398438 147.785156 171.714844 148.789062 C 172.03125 149.789062 172.265625 150.804688 172.417969 151.84375 C 172.566406 152.882812 172.636719 153.925781 172.617188 154.976562 C 172.601562 156.023438 172.5 157.0625 172.316406 158.097656 C 172.132812 159.128906 171.863281 160.140625 171.515625 161.128906 C 171.167969 162.121094 170.742188 163.074219 170.242188 163.996094 C 169.738281 164.917969 169.167969 165.792969 168.523438 166.621094 C 167.878906 167.449219 167.175781 168.222656 166.40625 168.9375 C 165.640625 169.644531 164.9375 170.410156 164.296875 171.234375 C 163.65625 172.054688 163.085938 172.921875 162.582031 173.839844 C 162.082031 174.753906 161.65625 175.699219 161.304688 176.683594 C 160.957031 177.664062 160.6875 178.667969 160.5 179.695312 C 160.3125 180.722656 160.207031 181.753906 160.1875 182.796875 C 160.164062 183.839844 160.226562 184.878906 160.371094 185.910156 C 160.515625 186.945312 160.742188 187.957031 161.050781 188.953125 C 161.359375 189.949219 161.746094 190.917969 162.207031 191.851562 C 167.480469 202.4375 176.613281 217.027344 190.554688 227.554688 C 191.332031 228.144531 192.148438 228.671875 193.003906 229.140625 C 193.859375 229.609375 194.746094 230.011719 195.660156 230.34375 C 196.578125 230.679688 197.511719 230.945312 198.46875 231.140625 C 199.421875 231.335938 200.386719 231.460938 201.363281 231.511719 C 202.335938 231.5625 203.308594 231.539062 204.28125 231.445312 C 205.25 231.351562 206.207031 231.183594 207.15625 230.945312 C 208.101562 230.707031 209.023438 230.402344 209.921875 230.027344 C 210.824219 229.652344 211.691406 229.210938 212.523438 228.703125 L 218.179688 225.261719 C 219.449219 224.492188 220.789062 223.871094 222.199219 223.40625 C 223.609375 222.941406 225.050781 222.640625 226.53125 222.503906 C 228.007812 222.367188 229.484375 222.398438 230.953125 222.597656 C 232.425781 222.800781 233.855469 223.164062 235.242188 223.691406 L 257.726562 232.238281 C 258.324219 232.464844 258.90625 232.71875 259.480469 233.003906 C 260.050781 233.289062 260.609375 233.601562 261.148438 233.941406 C 261.691406 234.277344 262.214844 234.644531 262.71875 235.035156 C 263.226562 235.425781 263.710938 235.839844 264.175781 236.277344 C 264.640625 236.714844 265.082031 237.175781 265.5 237.65625 C 265.921875 238.136719 266.316406 238.640625 266.6875 239.160156 C 267.054688 239.679688 267.398438 240.21875 267.71875 240.773438 C 268.035156 241.328125 268.324219 241.894531 268.585938 242.476562 C 268.847656 243.058594 269.082031 243.652344 269.285156 244.257812 C 269.488281 244.863281 269.660156 245.480469 269.804688 246.101562 C 269.945312 246.722656 270.058594 247.351562 270.140625 247.984375 C 270.222656 248.617188 270.269531 249.253906 270.289062 249.894531 C 270.308594 250.53125 270.296875 251.167969 270.253906 251.808594 C 270.207031 252.445312 270.132812 253.078125 270.027344 253.707031 C 269.921875 254.335938 269.785156 254.960938 269.617188 255.578125 C 269.449219 256.191406 269.253906 256.800781 269.023438 257.398438 C 268.761719 258.082031 268.460938 258.753906 268.125 259.40625 L 261.898438 271.480469 C 261.390625 272.457031 260.808594 273.382812 260.148438 274.261719 C 259.488281 275.140625 258.757812 275.957031 257.957031 276.710938 C 257.160156 277.464844 256.304688 278.148438 255.386719 278.757812 C 254.472656 279.367188 253.515625 279.898438 252.511719 280.34375 C 251.507812 280.792969 250.472656 281.152344 249.410156 281.425781 C 248.34375 281.699219 247.265625 281.882812 246.167969 281.972656 C 245.074219 282.0625 243.980469 282.0625 242.882812 281.96875 C 241.789062 281.875 240.710938 281.6875 239.644531 281.410156 C 204.335938 272.277344 120.1875 240.527344 113.40625 144.523438 C 113.339844 143.574219 113.339844 142.628906 113.414062 141.679688 C 113.484375 140.734375 113.625 139.796875 113.832031 138.871094 C 114.039062 137.941406 114.316406 137.035156 114.65625 136.148438 C 114.996094 135.261719 115.398438 134.40625 115.867188 133.578125 C 116.332031 132.75 116.855469 131.960938 117.4375 131.207031 C 118.015625 130.457031 118.648438 129.75 119.335938 129.09375 C 120.019531 128.433594 120.746094 127.828125 121.519531 127.273438 C 122.292969 126.722656 123.101562 126.226562 123.945312 125.792969 L 135.414062 119.90625 C 135.980469 119.613281 136.5625 119.347656 137.15625 119.113281 C 137.75 118.878906 138.355469 118.671875 138.96875 118.496094 C 139.582031 118.320312 140.203125 118.175781 140.832031 118.0625 C 141.460938 117.949219 142.09375 117.863281 142.730469 117.8125 C 143.367188 117.757812 144.007812 117.738281 144.644531 117.75 C 145.285156 117.757812 145.921875 117.800781 146.554688 117.871094 C 147.191406 117.945312 147.820312 118.050781 148.445312 118.183594 C 149.070312 118.316406 149.683594 118.484375 150.292969 118.679688 C 150.902344 118.875 151.5 119.097656 152.085938 119.351562 C 152.671875 119.605469 153.246094 119.886719 153.804688 120.199219 C 154.363281 120.507812 154.902344 120.84375 155.429688 121.207031 C 155.953125 121.570312 156.460938 121.960938 156.949219 122.371094 C 157.4375 122.785156 157.902344 123.222656 158.347656 123.679688 C 158.789062 124.140625 159.210938 124.617188 159.609375 125.117188 C 160.007812 125.617188 160.378906 126.136719 160.722656 126.675781 C 161.070312 127.210938 161.390625 127.761719 161.683594 128.332031 Z M 161.683594 128.332031 " fill-opacity="1" fill-rule="nonzero"/><g clip-path="url(#c4600b1b9c)"><path fill="#1ba553" d="M 191.734375 356.65625 C 191.734375 357.277344 191.671875 357.898438 191.550781 358.507812 C 191.429688 359.121094 191.25 359.714844 191.007812 360.292969 C 190.769531 360.871094 190.476562 361.417969 190.128906 361.9375 C 189.785156 362.457031 189.390625 362.9375 188.949219 363.378906 C 188.507812 363.820312 188.027344 364.214844 187.507812 364.5625 C 186.988281 364.910156 186.4375 365.203125 185.863281 365.441406 C 185.285156 365.679688 184.691406 365.859375 184.078125 365.980469 C 183.464844 366.101562 182.847656 366.164062 182.222656 366.164062 C 181.597656 366.164062 180.980469 366.101562 180.367188 365.980469 C 179.753906 365.859375 179.160156 365.679688 178.582031 365.441406 C 178.003906 365.203125 177.457031 364.910156 176.9375 364.5625 C 176.417969 364.214844 175.9375 363.820312 175.496094 363.378906 C 175.054688 362.9375 174.660156 362.457031 174.3125 361.9375 C 173.96875 361.417969 173.675781 360.871094 173.433594 360.292969 C 173.195312 359.714844 173.015625 359.121094 172.894531 358.507812 C 172.773438 357.898438 172.710938 357.277344 172.710938 356.65625 C 172.710938 356.03125 172.773438 355.410156 172.894531 354.800781 C 173.015625 354.1875 173.195312 353.59375 173.433594 353.015625 C 173.675781 352.4375 173.96875 351.890625 174.3125 351.371094 C 174.660156 350.851562 175.054688 350.371094 175.496094 349.929688 C 175.9375 349.488281 176.417969 349.09375 176.9375 348.746094 C 177.457031 348.398438 178.003906 348.105469 178.582031 347.867188 C 179.160156 347.628906 179.753906 347.449219 180.367188 347.328125 C 180.980469 347.207031 181.597656 347.144531 182.222656 347.144531 C 182.847656 347.144531 183.464844 347.207031 184.078125 347.328125 C 184.691406 347.449219 185.285156 347.628906 185.863281 347.867188 C 186.4375 348.105469 186.988281 348.398438 187.507812 348.746094 C 188.027344 349.09375 188.507812 349.488281 188.949219 349.929688 C 189.390625 350.371094 189.785156 350.851562 190.128906 351.371094 C 190.476562 351.890625 190.769531 352.4375 191.007812 353.015625 C 191.25 353.59375 191.429688 354.1875 191.550781 354.800781 C 191.671875 355.410156 191.734375 356.03125 191.734375 356.65625 Z M 191.734375 356.65625 " fill-opacity="1" fill-rule="nonzero"/></g><g clip-path="url(#c95374ac64)"><path fill="#009b3a" d="M 242.722656 76.125 C 242.722656 82.878906 237.242188 88.355469 230.480469 88.355469 L 144.777344 88.355469 C 138.015625 88.355469 132.535156 82.878906 132.535156 76.125 L 132.535156 21.085938 C 132.535156 14.332031 138.015625 8.855469 144.777344 8.855469 L 230.480469 8.855469 C 237.242188 8.855469 242.722656 14.332031 242.722656 21.085938 Z M 242.722656 76.125 " fill-opacity="1" fill-rule="nonzero"/></g><path fill="#fedf01" d="M 232.707031 48.605469 L 187.628906 82.617188 L 142.546875 48.605469 L 187.628906 14.589844 Z M 232.707031 48.605469 " fill-opacity="1" fill-rule="nonzero"/><path fill="#002776" d="M 207.320312 48.371094 C 207.320312 49.019531 207.289062 49.664062 207.226562 50.308594 C 207.164062 50.953125 207.066406 51.589844 206.941406 52.226562 C 206.816406 52.859375 206.65625 53.484375 206.46875 54.105469 C 206.28125 54.722656 206.0625 55.332031 205.816406 55.929688 C 205.570312 56.527344 205.292969 57.109375 204.988281 57.679688 C 204.683594 58.25 204.347656 58.804688 203.988281 59.34375 C 203.628906 59.882812 203.246094 60.398438 202.835938 60.898438 C 202.421875 61.398438 201.988281 61.878906 201.53125 62.335938 C 201.074219 62.792969 200.59375 63.226562 200.09375 63.636719 C 199.59375 64.046875 199.074219 64.433594 198.535156 64.792969 C 198 65.152344 197.445312 65.484375 196.871094 65.789062 C 196.300781 66.09375 195.71875 66.367188 195.117188 66.617188 C 194.519531 66.863281 193.910156 67.082031 193.292969 67.269531 C 192.671875 67.457031 192.046875 67.613281 191.410156 67.738281 C 190.777344 67.867188 190.136719 67.960938 189.492188 68.023438 C 188.847656 68.085938 188.203125 68.117188 187.554688 68.117188 C 186.90625 68.117188 186.261719 68.085938 185.617188 68.023438 C 184.972656 67.960938 184.332031 67.867188 183.699219 67.738281 C 183.0625 67.613281 182.4375 67.457031 181.816406 67.269531 C 181.195312 67.082031 180.589844 66.863281 179.992188 66.617188 C 179.390625 66.367188 178.808594 66.09375 178.238281 65.789062 C 177.664062 65.484375 177.109375 65.152344 176.574219 64.792969 C 176.035156 64.433594 175.515625 64.046875 175.015625 63.636719 C 174.515625 63.226562 174.035156 62.792969 173.578125 62.335938 C 173.121094 61.878906 172.683594 61.398438 172.273438 60.898438 C 171.863281 60.398438 171.480469 59.882812 171.121094 59.34375 C 170.757812 58.804688 170.425781 58.25 170.121094 57.679688 C 169.816406 57.109375 169.539062 56.527344 169.292969 55.929688 C 169.042969 55.332031 168.828125 54.722656 168.640625 54.105469 C 168.453125 53.484375 168.292969 52.859375 168.167969 52.226562 C 168.042969 51.589844 167.945312 50.953125 167.882812 50.308594 C 167.820312 49.664062 167.789062 49.019531 167.789062 48.371094 C 167.789062 47.726562 167.820312 47.082031 167.882812 46.4375 C 167.945312 45.792969 168.042969 45.15625 168.167969 44.519531 C 168.292969 43.886719 168.453125 43.257812 168.640625 42.640625 C 168.828125 42.023438 169.042969 41.414062 169.292969 40.816406 C 169.539062 40.21875 169.816406 39.632812 170.121094 39.0625 C 170.425781 38.492188 170.757812 37.941406 171.121094 37.402344 C 171.480469 36.863281 171.863281 36.34375 172.273438 35.84375 C 172.683594 35.34375 173.121094 34.867188 173.578125 34.410156 C 174.035156 33.953125 174.515625 33.519531 175.015625 33.109375 C 175.515625 32.699219 176.035156 32.3125 176.574219 31.953125 C 177.109375 31.59375 177.664062 31.261719 178.238281 30.957031 C 178.808594 30.652344 179.390625 30.375 179.992188 30.128906 C 180.589844 29.882812 181.195312 29.664062 181.816406 29.476562 C 182.4375 29.289062 183.0625 29.132812 183.699219 29.003906 C 184.332031 28.878906 184.972656 28.785156 185.617188 28.722656 C 186.261719 28.65625 186.90625 28.625 187.554688 28.625 C 188.203125 28.625 188.847656 28.65625 189.492188 28.722656 C 190.136719 28.785156 190.777344 28.878906 191.410156 29.003906 C 192.046875 29.132812 192.671875 29.289062 193.292969 29.476562 C 193.910156 29.664062 194.519531 29.882812 195.117188 30.128906 C 195.71875 30.375 196.300781 30.652344 196.871094 30.957031 C 197.445312 31.261719 198 31.59375 198.535156 31.953125 C 199.074219 32.3125 199.59375 32.699219 200.09375 33.109375 C 200.59375 33.519531 201.074219 33.953125 201.53125 34.410156 C 201.988281 34.867188 202.421875 35.34375 202.835938 35.84375 C 203.246094 36.34375 203.628906 36.863281 203.988281 37.402344 C 204.347656 37.941406 204.683594 38.492188 204.988281 39.0625 C 205.292969 39.632812 205.570312 40.21875 205.816406 40.816406 C 206.0625 41.414062 206.28125 42.023438 206.46875 42.640625 C 206.65625 43.257812 206.816406 43.886719 206.941406 44.519531 C 207.066406 45.15625 207.164062 45.792969 207.226562 46.4375 C 207.289062 47.082031 207.320312 47.726562 207.320312 48.371094 Z M 207.320312 48.371094 " fill-opacity="1" fill-rule="nonzero"/><path fill="#cbe9d4" d="M 170.109375 39.085938 C 169.09375 40.984375 168.402344 43.070312 168.054688 45.273438 C 180.28125 44.386719 196.878906 51.054688 204 59.320312 C 205.230469 57.476562 206.144531 55.410156 206.703125 53.195312 C 197.914062 44.609375 182.46875 39.039062 170.109375 39.085938 Z M 170.109375 39.085938 " fill-opacity="1" fill-rule="nonzero"/><path fill="#88c9f9" d="M 169.261719 49.316406 L 172.324219 49.316406 L 172.324219 52.375 L 169.261719 52.375 Z M 172.324219 55.433594 L 175.386719 55.433594 L 175.386719 58.492188 L 172.324219 58.492188 Z M 172.324219 55.433594 " fill-opacity="1" fill-rule="nonzero"/><path fill="#55acee" d="M 178.445312 49.316406 L 181.507812 49.316406 L 181.507812 52.375 L 178.445312 52.375 Z M 184.566406 52.375 L 187.628906 52.375 L 187.628906 55.433594 L 184.566406 55.433594 Z M 196.808594 58.492188 L 199.871094 58.492188 L 199.871094 61.546875 L 196.808594 61.546875 Z M 187.628906 61.546875 L 190.6875 61.546875 L 190.6875 64.605469 L 187.628906 64.605469 Z M 196.808594 43.203125 L 199.871094 43.203125 L 199.871094 46.257812 L 196.808594 46.257812 Z M 196.808594 43.203125 " fill-opacity="1" fill-rule="nonzero"/><path fill="#3b88c3" d="M 190.6875 55.433594 L 193.75 55.433594 L 193.75 58.492188 L 190.6875 58.492188 Z M 190.6875 55.433594 " fill-opacity="1" fill-rule="nonzero"/></svg>